%TF.GenerationSoftware,KiCad,Pcbnew,7.0.1*%
%TF.CreationDate,2023-04-13T18:21:33+09:00*%
%TF.ProjectId,motor_driver,6d6f746f-725f-4647-9269-7665722e6b69,rev?*%
%TF.SameCoordinates,Original*%
%TF.FileFunction,Soldermask,Bot*%
%TF.FilePolarity,Negative*%
%FSLAX46Y46*%
G04 Gerber Fmt 4.6, Leading zero omitted, Abs format (unit mm)*
G04 Created by KiCad (PCBNEW 7.0.1) date 2023-04-13 18:21:33*
%MOMM*%
%LPD*%
G01*
G04 APERTURE LIST*
G04 Aperture macros list*
%AMRoundRect*
0 Rectangle with rounded corners*
0 $1 Rounding radius*
0 $2 $3 $4 $5 $6 $7 $8 $9 X,Y pos of 4 corners*
0 Add a 4 corners polygon primitive as box body*
4,1,4,$2,$3,$4,$5,$6,$7,$8,$9,$2,$3,0*
0 Add four circle primitives for the rounded corners*
1,1,$1+$1,$2,$3*
1,1,$1+$1,$4,$5*
1,1,$1+$1,$6,$7*
1,1,$1+$1,$8,$9*
0 Add four rect primitives between the rounded corners*
20,1,$1+$1,$2,$3,$4,$5,0*
20,1,$1+$1,$4,$5,$6,$7,0*
20,1,$1+$1,$6,$7,$8,$9,0*
20,1,$1+$1,$8,$9,$2,$3,0*%
G04 Aperture macros list end*
%ADD10R,2.400000X1.600000*%
%ADD11O,2.400000X1.600000*%
%ADD12R,2.400000X2.400000*%
%ADD13C,2.400000*%
%ADD14R,4.500000X2.500000*%
%ADD15O,4.500000X2.500000*%
%ADD16R,6.600000X3.300000*%
%ADD17O,6.600000X3.300000*%
%ADD18R,3.300000X6.600000*%
%ADD19O,3.300000X6.600000*%
%ADD20RoundRect,0.250000X0.650000X-1.500000X0.650000X1.500000X-0.650000X1.500000X-0.650000X-1.500000X0*%
%ADD21RoundRect,0.155000X-0.155000X0.212500X-0.155000X-0.212500X0.155000X-0.212500X0.155000X0.212500X0*%
%ADD22RoundRect,0.237500X-0.250000X-0.237500X0.250000X-0.237500X0.250000X0.237500X-0.250000X0.237500X0*%
%ADD23RoundRect,0.237500X0.237500X-0.250000X0.237500X0.250000X-0.237500X0.250000X-0.237500X-0.250000X0*%
%ADD24RoundRect,0.237500X-0.237500X0.250000X-0.237500X-0.250000X0.237500X-0.250000X0.237500X0.250000X0*%
G04 APERTURE END LIST*
D10*
%TO.C,U8*%
X89080000Y-109220000D03*
D11*
X89080000Y-111760000D03*
X89080000Y-114300000D03*
X89080000Y-116840000D03*
X96700000Y-116840000D03*
X96700000Y-114300000D03*
X96700000Y-111760000D03*
X96700000Y-109220000D03*
%TD*%
D10*
%TO.C,U9*%
X89080000Y-123190000D03*
D11*
X89080000Y-125730000D03*
X89080000Y-128270000D03*
X89080000Y-130810000D03*
X96700000Y-130810000D03*
X96700000Y-128270000D03*
X96700000Y-125730000D03*
X96700000Y-123190000D03*
%TD*%
D12*
%TO.C,C8*%
X80190000Y-87211000D03*
D13*
X80190000Y-92211000D03*
%TD*%
D14*
%TO.C,Q2*%
X167820000Y-42810000D03*
D15*
X167820000Y-48260000D03*
X167820000Y-53710000D03*
%TD*%
D14*
%TO.C,Q6*%
X167820000Y-130440000D03*
D15*
X167820000Y-135890000D03*
X167820000Y-141340000D03*
%TD*%
D14*
%TO.C,Q5*%
X130990000Y-107580000D03*
D15*
X130990000Y-113030000D03*
X130990000Y-118480000D03*
%TD*%
D12*
%TO.C,C7*%
X80190000Y-71835000D03*
D13*
X80190000Y-76835000D03*
%TD*%
D16*
%TO.C,J2*%
X39550000Y-61120000D03*
D17*
X39550000Y-71120000D03*
X39550000Y-81120000D03*
%TD*%
D12*
%TO.C,C3*%
X80190000Y-39370000D03*
D13*
X80190000Y-44370000D03*
%TD*%
D14*
%TO.C,Q3*%
X130990000Y-66940000D03*
D15*
X130990000Y-72390000D03*
X130990000Y-77840000D03*
%TD*%
D10*
%TO.C,U6*%
X89080000Y-78740000D03*
D11*
X89080000Y-81280000D03*
X89080000Y-83820000D03*
X89080000Y-86360000D03*
X96700000Y-86360000D03*
X96700000Y-83820000D03*
X96700000Y-81280000D03*
X96700000Y-78740000D03*
%TD*%
D10*
%TO.C,U7*%
X89080000Y-92710000D03*
D11*
X89080000Y-95250000D03*
X89080000Y-97790000D03*
X89080000Y-100330000D03*
X96700000Y-100330000D03*
X96700000Y-97790000D03*
X96700000Y-95250000D03*
X96700000Y-92710000D03*
%TD*%
D14*
%TO.C,Q4*%
X167820000Y-88530000D03*
D15*
X167820000Y-93980000D03*
X167820000Y-99430000D03*
%TD*%
D18*
%TO.C,J1*%
X204550000Y-26670000D03*
D19*
X214550000Y-26670000D03*
%TD*%
D10*
%TO.C,U5*%
X89080000Y-60960000D03*
D11*
X89080000Y-63500000D03*
X89080000Y-66040000D03*
X89080000Y-68580000D03*
X96700000Y-68580000D03*
X96700000Y-66040000D03*
X96700000Y-63500000D03*
X96700000Y-60960000D03*
%TD*%
D10*
%TO.C,U4*%
X89065000Y-47000000D03*
D11*
X89065000Y-49540000D03*
X89065000Y-52080000D03*
X89065000Y-54620000D03*
X96685000Y-54620000D03*
X96685000Y-52080000D03*
X96685000Y-49540000D03*
X96685000Y-47000000D03*
%TD*%
D16*
%TO.C,J3*%
X39550000Y-113665000D03*
D17*
X39550000Y-123665000D03*
%TD*%
D12*
%TO.C,C11*%
X80190000Y-102235000D03*
D13*
X80190000Y-107235000D03*
%TD*%
D12*
%TO.C,C4*%
X80190000Y-116920000D03*
D13*
X80190000Y-121920000D03*
%TD*%
D12*
%TO.C,C12*%
X80190000Y-54610000D03*
D13*
X80190000Y-59610000D03*
%TD*%
D16*
%TO.C,J8*%
X219710000Y-86520000D03*
D17*
X219710000Y-96520000D03*
X219710000Y-106520000D03*
%TD*%
D14*
%TO.C,Q1*%
X130990000Y-22490000D03*
D15*
X130990000Y-27940000D03*
X130990000Y-33390000D03*
%TD*%
D10*
%TO.C,U1*%
X62410000Y-63754000D03*
D11*
X62410000Y-66294000D03*
X62410000Y-68834000D03*
X62410000Y-71374000D03*
X62410000Y-73914000D03*
X62410000Y-76454000D03*
X62410000Y-78994000D03*
X70030000Y-78994000D03*
X70030000Y-76454000D03*
X70030000Y-73914000D03*
X70030000Y-71374000D03*
X70030000Y-68834000D03*
X70030000Y-66294000D03*
X70030000Y-63754000D03*
%TD*%
D20*
%TO.C,D1*%
X110670000Y-44410000D03*
X110670000Y-39410000D03*
%TD*%
D21*
%TO.C,C9*%
X93525000Y-112395000D03*
X93525000Y-113530000D03*
%TD*%
D22*
%TO.C,R19*%
X78007500Y-111760000D03*
X79832500Y-111760000D03*
%TD*%
D23*
%TO.C,R11*%
X114480000Y-54610000D03*
X114480000Y-52785000D03*
%TD*%
D22*
%TO.C,R21*%
X109757500Y-111760000D03*
X111582500Y-111760000D03*
%TD*%
D24*
%TO.C,R3*%
X84000000Y-81280000D03*
X84000000Y-83105000D03*
%TD*%
D21*
%TO.C,C1*%
X93525000Y-50232500D03*
X93525000Y-51367500D03*
%TD*%
D23*
%TO.C,R24*%
X114480000Y-130810000D03*
X114480000Y-128985000D03*
%TD*%
D21*
%TO.C,C2*%
X93525000Y-64202500D03*
X93525000Y-65337500D03*
%TD*%
D22*
%TO.C,R7*%
X78007500Y-49530000D03*
X79832500Y-49530000D03*
%TD*%
%TO.C,R9*%
X109757500Y-49530000D03*
X111582500Y-49530000D03*
%TD*%
%TO.C,R20*%
X78007500Y-125730000D03*
X79832500Y-125730000D03*
%TD*%
D23*
%TO.C,R23*%
X114480000Y-116840000D03*
X114480000Y-115015000D03*
%TD*%
D20*
%TO.C,D8*%
X120830000Y-120650000D03*
X120830000Y-115650000D03*
%TD*%
%TO.C,D4*%
X120830000Y-58380000D03*
X120830000Y-53380000D03*
%TD*%
%TO.C,D7*%
X120830000Y-104100000D03*
X120830000Y-99100000D03*
%TD*%
%TO.C,D3*%
X110670000Y-107910000D03*
X110670000Y-102910000D03*
%TD*%
D24*
%TO.C,R5*%
X84000000Y-111760000D03*
X84000000Y-113585000D03*
%TD*%
D22*
%TO.C,R8*%
X78007500Y-63500000D03*
X79832500Y-63500000D03*
%TD*%
%TO.C,R14*%
X78007500Y-95250000D03*
X79832500Y-95250000D03*
%TD*%
D23*
%TO.C,R12*%
X114480000Y-68580000D03*
X114480000Y-66755000D03*
%TD*%
D22*
%TO.C,R13*%
X78007500Y-81280000D03*
X79832500Y-81280000D03*
%TD*%
D21*
%TO.C,C6*%
X93525000Y-95952500D03*
X93525000Y-97087500D03*
%TD*%
%TO.C,C10*%
X93525000Y-126365000D03*
X93525000Y-127500000D03*
%TD*%
D24*
%TO.C,R2*%
X84000000Y-63500000D03*
X84000000Y-65325000D03*
%TD*%
D22*
%TO.C,R10*%
X109757500Y-63500000D03*
X111582500Y-63500000D03*
%TD*%
D24*
%TO.C,R6*%
X84000000Y-125730000D03*
X84000000Y-127555000D03*
%TD*%
D23*
%TO.C,R17*%
X114480000Y-86360000D03*
X114480000Y-84535000D03*
%TD*%
%TO.C,R18*%
X114480000Y-100330000D03*
X114480000Y-98505000D03*
%TD*%
D24*
%TO.C,R1*%
X84000000Y-49530000D03*
X84000000Y-51355000D03*
%TD*%
D20*
%TO.C,D2*%
X110670000Y-77430000D03*
X110670000Y-72430000D03*
%TD*%
%TO.C,D6*%
X120830000Y-90130000D03*
X120830000Y-85130000D03*
%TD*%
%TO.C,D5*%
X120830000Y-72350000D03*
X120830000Y-67350000D03*
%TD*%
D22*
%TO.C,R16*%
X109757500Y-95250000D03*
X111582500Y-95250000D03*
%TD*%
D21*
%TO.C,C5*%
X93525000Y-81915000D03*
X93525000Y-83050000D03*
%TD*%
D24*
%TO.C,R4*%
X84000000Y-95250000D03*
X84000000Y-97075000D03*
%TD*%
D22*
%TO.C,R22*%
X109757500Y-125730000D03*
X111582500Y-125730000D03*
%TD*%
%TO.C,R15*%
X109757500Y-81280000D03*
X111582500Y-81280000D03*
%TD*%
D20*
%TO.C,D9*%
X120830000Y-134580000D03*
X120830000Y-129580000D03*
%TD*%
M02*
