%TF.GenerationSoftware,KiCad,Pcbnew,7.0.1*%
%TF.CreationDate,2023-04-13T18:21:32+09:00*%
%TF.ProjectId,motor_driver,6d6f746f-725f-4647-9269-7665722e6b69,rev?*%
%TF.SameCoordinates,Original*%
%TF.FileFunction,Copper,L1,Top*%
%TF.FilePolarity,Positive*%
%FSLAX46Y46*%
G04 Gerber Fmt 4.6, Leading zero omitted, Abs format (unit mm)*
G04 Created by KiCad (PCBNEW 7.0.1) date 2023-04-13 18:21:32*
%MOMM*%
%LPD*%
G01*
G04 APERTURE LIST*
%TA.AperFunction,ComponentPad*%
%ADD10R,2.400000X1.600000*%
%TD*%
%TA.AperFunction,ComponentPad*%
%ADD11O,2.400000X1.600000*%
%TD*%
%TA.AperFunction,ComponentPad*%
%ADD12R,2.400000X2.400000*%
%TD*%
%TA.AperFunction,ComponentPad*%
%ADD13C,2.400000*%
%TD*%
%TA.AperFunction,ComponentPad*%
%ADD14R,4.500000X2.500000*%
%TD*%
%TA.AperFunction,ComponentPad*%
%ADD15O,4.500000X2.500000*%
%TD*%
%TA.AperFunction,ComponentPad*%
%ADD16R,6.600000X3.300000*%
%TD*%
%TA.AperFunction,ComponentPad*%
%ADD17O,6.600000X3.300000*%
%TD*%
%TA.AperFunction,ComponentPad*%
%ADD18R,3.300000X6.600000*%
%TD*%
%TA.AperFunction,ComponentPad*%
%ADD19O,3.300000X6.600000*%
%TD*%
%TA.AperFunction,ViaPad*%
%ADD20C,2.000000*%
%TD*%
%TA.AperFunction,Conductor*%
%ADD21C,2.000000*%
%TD*%
%TA.AperFunction,Conductor*%
%ADD22C,1.000000*%
%TD*%
%TA.AperFunction,Conductor*%
%ADD23C,0.500000*%
%TD*%
G04 APERTURE END LIST*
D10*
%TO.P,U8,1,NC*%
%TO.N,unconnected-(U8-NC-Pad1)*%
X89080000Y-109220000D03*
D11*
%TO.P,U8,2,A*%
%TO.N,Net-(U8-A)*%
X89080000Y-111760000D03*
%TO.P,U8,3,C*%
%TO.N,GNDD*%
X89080000Y-114300000D03*
%TO.P,U8,4,NC*%
%TO.N,unconnected-(U8-NC-Pad4)*%
X89080000Y-116840000D03*
%TO.P,U8,5,VEE*%
%TO.N,Net-(D8-A1)*%
X96700000Y-116840000D03*
%TO.P,U8,6,VO*%
%TO.N,Net-(R21-Pad1)*%
X96700000Y-114300000D03*
%TO.P,U8,7,VO*%
X96700000Y-111760000D03*
%TO.P,U8,8,VCC*%
%TO.N,Net-(D3-K)*%
X96700000Y-109220000D03*
%TD*%
D10*
%TO.P,U9,1,NC*%
%TO.N,unconnected-(U9-NC-Pad1)*%
X89080000Y-123190000D03*
D11*
%TO.P,U9,2,A*%
%TO.N,Net-(U9-A)*%
X89080000Y-125730000D03*
%TO.P,U9,3,C*%
%TO.N,GNDD*%
X89080000Y-128270000D03*
%TO.P,U9,4,NC*%
%TO.N,unconnected-(U9-NC-Pad4)*%
X89080000Y-130810000D03*
%TO.P,U9,5,VEE*%
%TO.N,GND*%
X96700000Y-130810000D03*
%TO.P,U9,6,VO*%
%TO.N,Net-(R22-Pad1)*%
X96700000Y-128270000D03*
%TO.P,U9,7,VO*%
X96700000Y-125730000D03*
%TO.P,U9,8,VCC*%
%TO.N,+15V*%
X96700000Y-123190000D03*
%TD*%
D12*
%TO.P,C8,1*%
%TO.N,+15V*%
X80190000Y-87211000D03*
D13*
%TO.P,C8,2*%
%TO.N,GND*%
X80190000Y-92211000D03*
%TD*%
D14*
%TO.P,Q2,1,G*%
%TO.N,Net-(D5-A2)*%
X167820000Y-42810000D03*
D15*
%TO.P,Q2,2,C*%
%TO.N,Net-(D4-A1)*%
X167820000Y-48260000D03*
%TO.P,Q2,3,E*%
%TO.N,GND*%
X167820000Y-53710000D03*
%TD*%
D14*
%TO.P,Q6,1,G*%
%TO.N,Net-(D9-A2)*%
X167820000Y-130440000D03*
D15*
%TO.P,Q6,2,C*%
%TO.N,Net-(D8-A1)*%
X167820000Y-135890000D03*
%TO.P,Q6,3,E*%
%TO.N,GND*%
X167820000Y-141340000D03*
%TD*%
D14*
%TO.P,Q5,1,G*%
%TO.N,Net-(D8-A2)*%
X130990000Y-107580000D03*
D15*
%TO.P,Q5,2,C*%
%TO.N,+VDC*%
X130990000Y-113030000D03*
%TO.P,Q5,3,E*%
%TO.N,Net-(D8-A1)*%
X130990000Y-118480000D03*
%TD*%
D12*
%TO.P,C7,1*%
%TO.N,Net-(D2-K)*%
X80190000Y-71835000D03*
D13*
%TO.P,C7,2*%
%TO.N,Net-(D6-A1)*%
X80190000Y-76835000D03*
%TD*%
D16*
%TO.P,J2,1,Pin_1*%
%TO.N,S1*%
X39550000Y-61120000D03*
D17*
%TO.P,J2,2,Pin_2*%
%TO.N,S3*%
X39550000Y-71120000D03*
%TO.P,J2,3,Pin_3*%
%TO.N,S5*%
X39550000Y-81120000D03*
%TD*%
D12*
%TO.P,C3,1*%
%TO.N,Net-(D1-K)*%
X80190000Y-39370000D03*
D13*
%TO.P,C3,2*%
%TO.N,Net-(D4-A1)*%
X80190000Y-44370000D03*
%TD*%
D14*
%TO.P,Q3,1,G*%
%TO.N,Net-(D6-A2)*%
X130990000Y-66940000D03*
D15*
%TO.P,Q3,2,C*%
%TO.N,+VDC*%
X130990000Y-72390000D03*
%TO.P,Q3,3,E*%
%TO.N,Net-(D6-A1)*%
X130990000Y-77840000D03*
%TD*%
D10*
%TO.P,U6,1,NC*%
%TO.N,unconnected-(U6-NC-Pad1)*%
X89080000Y-78740000D03*
D11*
%TO.P,U6,2,A*%
%TO.N,Net-(U6-A)*%
X89080000Y-81280000D03*
%TO.P,U6,3,C*%
%TO.N,GNDD*%
X89080000Y-83820000D03*
%TO.P,U6,4,NC*%
%TO.N,unconnected-(U6-NC-Pad4)*%
X89080000Y-86360000D03*
%TO.P,U6,5,VEE*%
%TO.N,Net-(D6-A1)*%
X96700000Y-86360000D03*
%TO.P,U6,6,VO*%
%TO.N,Net-(R15-Pad1)*%
X96700000Y-83820000D03*
%TO.P,U6,7,VO*%
X96700000Y-81280000D03*
%TO.P,U6,8,VCC*%
%TO.N,Net-(D2-K)*%
X96700000Y-78740000D03*
%TD*%
D10*
%TO.P,U7,1,NC*%
%TO.N,unconnected-(U7-NC-Pad1)*%
X89080000Y-92710000D03*
D11*
%TO.P,U7,2,A*%
%TO.N,Net-(U7-A)*%
X89080000Y-95250000D03*
%TO.P,U7,3,C*%
%TO.N,GNDD*%
X89080000Y-97790000D03*
%TO.P,U7,4,NC*%
%TO.N,unconnected-(U7-NC-Pad4)*%
X89080000Y-100330000D03*
%TO.P,U7,5,VEE*%
%TO.N,GND*%
X96700000Y-100330000D03*
%TO.P,U7,6,VO*%
%TO.N,Net-(R16-Pad1)*%
X96700000Y-97790000D03*
%TO.P,U7,7,VO*%
X96700000Y-95250000D03*
%TO.P,U7,8,VCC*%
%TO.N,+15V*%
X96700000Y-92710000D03*
%TD*%
D14*
%TO.P,Q4,1,G*%
%TO.N,Net-(D7-A2)*%
X167820000Y-88530000D03*
D15*
%TO.P,Q4,2,C*%
%TO.N,Net-(D6-A1)*%
X167820000Y-93980000D03*
%TO.P,Q4,3,E*%
%TO.N,GND*%
X167820000Y-99430000D03*
%TD*%
D18*
%TO.P,J1,1,Pin_1*%
%TO.N,+VDC*%
X204550000Y-26670000D03*
D19*
%TO.P,J1,2,Pin_2*%
%TO.N,GND*%
X214550000Y-26670000D03*
%TD*%
D10*
%TO.P,U5,1,NC*%
%TO.N,unconnected-(U5-NC-Pad1)*%
X89080000Y-60960000D03*
D11*
%TO.P,U5,2,A*%
%TO.N,Net-(U5-A)*%
X89080000Y-63500000D03*
%TO.P,U5,3,C*%
%TO.N,GNDD*%
X89080000Y-66040000D03*
%TO.P,U5,4,NC*%
%TO.N,unconnected-(U5-NC-Pad4)*%
X89080000Y-68580000D03*
%TO.P,U5,5,VEE*%
%TO.N,GND*%
X96700000Y-68580000D03*
%TO.P,U5,6,VO*%
%TO.N,Net-(R10-Pad1)*%
X96700000Y-66040000D03*
%TO.P,U5,7,VO*%
X96700000Y-63500000D03*
%TO.P,U5,8,VCC*%
%TO.N,+15V*%
X96700000Y-60960000D03*
%TD*%
D10*
%TO.P,U4,1,NC*%
%TO.N,unconnected-(U4-NC-Pad1)*%
X89065000Y-47000000D03*
D11*
%TO.P,U4,2,A*%
%TO.N,Net-(U4-A)*%
X89065000Y-49540000D03*
%TO.P,U4,3,C*%
%TO.N,GNDD*%
X89065000Y-52080000D03*
%TO.P,U4,4,NC*%
%TO.N,unconnected-(U4-NC-Pad4)*%
X89065000Y-54620000D03*
%TO.P,U4,5,VEE*%
%TO.N,Net-(D4-A1)*%
X96685000Y-54620000D03*
%TO.P,U4,6,VO*%
%TO.N,Net-(R9-Pad1)*%
X96685000Y-52080000D03*
%TO.P,U4,7,VO*%
X96685000Y-49540000D03*
%TO.P,U4,8,VCC*%
%TO.N,Net-(D1-K)*%
X96685000Y-47000000D03*
%TD*%
D16*
%TO.P,J3,1,Pin_1*%
%TO.N,Net-(J3-Pin_1)*%
X39550000Y-113665000D03*
D17*
%TO.P,J3,2,Pin_2*%
%TO.N,GNDD*%
X39550000Y-123665000D03*
%TD*%
D12*
%TO.P,C11,1*%
%TO.N,Net-(D3-K)*%
X80190000Y-102235000D03*
D13*
%TO.P,C11,2*%
%TO.N,Net-(D8-A1)*%
X80190000Y-107235000D03*
%TD*%
D12*
%TO.P,C4,1*%
%TO.N,+15V*%
X80190000Y-116920000D03*
D13*
%TO.P,C4,2*%
%TO.N,GND*%
X80190000Y-121920000D03*
%TD*%
D12*
%TO.P,C12,1*%
%TO.N,+15V*%
X80190000Y-54610000D03*
D13*
%TO.P,C12,2*%
%TO.N,GND*%
X80190000Y-59610000D03*
%TD*%
D16*
%TO.P,J8,1,Pin_1*%
%TO.N,Net-(D4-A1)*%
X219710000Y-86520000D03*
D17*
%TO.P,J8,2,Pin_2*%
%TO.N,Net-(D6-A1)*%
X219710000Y-96520000D03*
%TO.P,J8,3,Pin_3*%
%TO.N,Net-(D8-A1)*%
X219710000Y-106520000D03*
%TD*%
D14*
%TO.P,Q1,1,G*%
%TO.N,Net-(D4-A2)*%
X130990000Y-22490000D03*
D15*
%TO.P,Q1,2,C*%
%TO.N,+VDC*%
X130990000Y-27940000D03*
%TO.P,Q1,3,E*%
%TO.N,Net-(D4-A1)*%
X130990000Y-33390000D03*
%TD*%
D10*
%TO.P,U1,1*%
%TO.N,S1*%
X62410000Y-63754000D03*
D11*
%TO.P,U1,2*%
%TO.N,S2*%
X62410000Y-66294000D03*
%TO.P,U1,3*%
%TO.N,S3*%
X62410000Y-68834000D03*
%TO.P,U1,4*%
%TO.N,S4*%
X62410000Y-71374000D03*
%TO.P,U1,5*%
%TO.N,S5*%
X62410000Y-73914000D03*
%TO.P,U1,6*%
%TO.N,S6*%
X62410000Y-76454000D03*
%TO.P,U1,7,GND*%
%TO.N,GNDD*%
X62410000Y-78994000D03*
%TO.P,U1,8*%
%TO.N,unconnected-(U1-Pad8)*%
X70030000Y-78994000D03*
%TO.P,U1,9*%
%TO.N,unconnected-(U1-Pad9)*%
X70030000Y-76454000D03*
%TO.P,U1,10*%
%TO.N,unconnected-(U1-Pad10)*%
X70030000Y-73914000D03*
%TO.P,U1,11*%
%TO.N,unconnected-(U1-Pad11)*%
X70030000Y-71374000D03*
%TO.P,U1,12*%
%TO.N,unconnected-(U1-Pad12)*%
X70030000Y-68834000D03*
%TO.P,U1,13*%
%TO.N,unconnected-(U1-Pad13)*%
X70030000Y-66294000D03*
%TO.P,U1,14,VCC*%
%TO.N,Net-(J3-Pin_1)*%
X70030000Y-63754000D03*
%TD*%
D20*
%TO.N,+15V*%
X105410000Y-102870000D03*
X105410000Y-72390000D03*
X105410000Y-39370000D03*
%TO.N,GNDD*%
X52070000Y-120650000D03*
%TD*%
D21*
%TO.N,Net-(D4-A1)*%
X145860000Y-48260000D02*
X130990000Y-33390000D01*
X181450000Y-48260000D02*
X167820000Y-48260000D01*
X167820000Y-48260000D02*
X145860000Y-48260000D01*
X219710000Y-86520000D02*
X181450000Y-48260000D01*
D22*
%TO.N,+15V*%
X100330000Y-60960000D02*
X96700000Y-60960000D01*
X105410000Y-72390000D02*
X105410000Y-60960000D01*
X105410000Y-60960000D02*
X100330000Y-60960000D01*
X105410000Y-39370000D02*
X105410000Y-60960000D01*
X100330000Y-92710000D02*
X96700000Y-92710000D01*
X105410000Y-102870000D02*
X105410000Y-97790000D01*
X105410000Y-114480000D02*
X96700000Y-123190000D01*
X105410000Y-72390000D02*
X105410000Y-97790000D01*
X105410000Y-97790000D02*
X100330000Y-92710000D01*
X105410000Y-102870000D02*
X105410000Y-114480000D01*
%TO.N,GND*%
X92710000Y-130810000D02*
X96700000Y-130810000D01*
X96700000Y-100330000D02*
X92710000Y-104320000D01*
X92710000Y-104320000D02*
X92710000Y-130810000D01*
X92710000Y-72570000D02*
X92710000Y-96340000D01*
X92710000Y-96340000D02*
X96700000Y-100330000D01*
X96700000Y-68580000D02*
X92710000Y-72570000D01*
D21*
%TO.N,Net-(D6-A1)*%
X199390000Y-93980000D02*
X167820000Y-93980000D01*
X201930000Y-96520000D02*
X199390000Y-93980000D01*
X219710000Y-96520000D02*
X201930000Y-96520000D01*
X167820000Y-93980000D02*
X147130000Y-93980000D01*
X147130000Y-93980000D02*
X130990000Y-77840000D01*
%TO.N,Net-(D8-A1)*%
X190500000Y-135730000D02*
X190500000Y-135890000D01*
X219710000Y-106520000D02*
X190500000Y-135730000D01*
X167820000Y-135890000D02*
X148400000Y-135890000D01*
X148400000Y-135890000D02*
X130990000Y-118480000D01*
X190500000Y-135890000D02*
X167820000Y-135890000D01*
D22*
%TO.N,Net-(J3-Pin_1)*%
X55880000Y-59690000D02*
X65966000Y-59690000D01*
X55880000Y-97335000D02*
X55880000Y-59690000D01*
X39550000Y-113665000D02*
X55880000Y-97335000D01*
X65966000Y-59690000D02*
X70030000Y-63754000D01*
D23*
%TO.N,GNDD*%
X73586000Y-90170000D02*
X73660000Y-90096000D01*
X62410000Y-78994000D02*
X73586000Y-90170000D01*
D22*
X62230000Y-110490000D02*
X62230000Y-79174000D01*
D23*
X73586000Y-113616000D02*
X80240000Y-120270000D01*
X89080000Y-66040000D02*
X85090000Y-66040000D01*
X73586000Y-90170000D02*
X73586000Y-113616000D01*
X83440000Y-120270000D02*
X85090000Y-121920000D01*
X85090000Y-97790000D02*
X85090000Y-114300000D01*
X85090000Y-90170000D02*
X85090000Y-97790000D01*
X85090000Y-114300000D02*
X85090000Y-121920000D01*
X85090000Y-66040000D02*
X85090000Y-83820000D01*
X85090000Y-128270000D02*
X89080000Y-128270000D01*
X85090000Y-121920000D02*
X85090000Y-128270000D01*
X73586000Y-90170000D02*
X85090000Y-90170000D01*
X83820000Y-58420000D02*
X83820000Y-64770000D01*
X89065000Y-52080000D02*
X83820000Y-52080000D01*
X80240000Y-120270000D02*
X83440000Y-120270000D01*
X83820000Y-52080000D02*
X83820000Y-58420000D01*
X83820000Y-64770000D02*
X85090000Y-66040000D01*
X85090000Y-114300000D02*
X89080000Y-114300000D01*
X89080000Y-83820000D02*
X85090000Y-83820000D01*
X73660000Y-68580000D02*
X83820000Y-58420000D01*
D22*
X62230000Y-79174000D02*
X62410000Y-78994000D01*
X52070000Y-120650000D02*
X62230000Y-110490000D01*
D23*
X89080000Y-97790000D02*
X85090000Y-97790000D01*
X73660000Y-90096000D02*
X73660000Y-68580000D01*
X85090000Y-83820000D02*
X85090000Y-90170000D01*
D21*
%TO.N,+VDC*%
X123190000Y-29210000D02*
X123190000Y-72390000D01*
X124460000Y-27940000D02*
X123190000Y-29210000D01*
X130990000Y-72390000D02*
X123190000Y-72390000D01*
X123190000Y-113030000D02*
X130990000Y-113030000D01*
X203280000Y-27940000D02*
X130990000Y-27940000D01*
X204550000Y-26670000D02*
X203280000Y-27940000D01*
X123190000Y-72390000D02*
X123190000Y-113030000D01*
X130990000Y-27940000D02*
X124460000Y-27940000D01*
%TD*%
%TA.AperFunction,Conductor*%
%TO.N,GNDD*%
G36*
X123128000Y-16527113D02*
G01*
X123173387Y-16572500D01*
X123190000Y-16634500D01*
X123190000Y-24770500D01*
X123173387Y-24832500D01*
X123128000Y-24877887D01*
X123066000Y-24894500D01*
X120139876Y-24894500D01*
X120008468Y-24911879D01*
X120008464Y-24911879D01*
X120008464Y-24911880D01*
X119946215Y-24928637D01*
X119823847Y-24979577D01*
X119718921Y-25060579D01*
X119673498Y-25106323D01*
X119593244Y-25211808D01*
X119593242Y-25211811D01*
X119593243Y-25211811D01*
X119543166Y-25334534D01*
X119526846Y-25396900D01*
X119510392Y-25528431D01*
X120133948Y-114073308D01*
X120143646Y-115450433D01*
X120161633Y-115580566D01*
X120178536Y-115642200D01*
X120229449Y-115763304D01*
X120229450Y-115763305D01*
X120309852Y-115867201D01*
X120355199Y-115912230D01*
X120459659Y-115991899D01*
X120459660Y-115991899D01*
X120459661Y-115991900D01*
X120581117Y-116041959D01*
X120581118Y-116041959D01*
X120581120Y-116041960D01*
X120642868Y-116058428D01*
X120773130Y-116075500D01*
X120773134Y-116075500D01*
X123066000Y-116075500D01*
X123128000Y-116092113D01*
X123173387Y-116137500D01*
X123190000Y-116199500D01*
X123190000Y-156085500D01*
X123173387Y-156147500D01*
X123128000Y-156192887D01*
X123066000Y-156209500D01*
X29334500Y-156209500D01*
X29272500Y-156192887D01*
X29227113Y-156147500D01*
X29210500Y-156085500D01*
X29210500Y-130810000D01*
X87374531Y-130810000D01*
X87394364Y-131036689D01*
X87453261Y-131256497D01*
X87549432Y-131462735D01*
X87679953Y-131649140D01*
X87840859Y-131810046D01*
X88027264Y-131940567D01*
X88027265Y-131940567D01*
X88027266Y-131940568D01*
X88233504Y-132036739D01*
X88453308Y-132095635D01*
X88538261Y-132103067D01*
X88623214Y-132110500D01*
X88623216Y-132110500D01*
X89536784Y-132110500D01*
X89536786Y-132110500D01*
X89604747Y-132104554D01*
X89706692Y-132095635D01*
X89926496Y-132036739D01*
X90132734Y-131940568D01*
X90319139Y-131810047D01*
X90480047Y-131649139D01*
X90610568Y-131462734D01*
X90706739Y-131256496D01*
X90765635Y-131036692D01*
X90785468Y-130810000D01*
X90765635Y-130583308D01*
X90706739Y-130363504D01*
X90610568Y-130157266D01*
X90480047Y-129970861D01*
X90480046Y-129970859D01*
X90319140Y-129809953D01*
X90132736Y-129679433D01*
X90074725Y-129652382D01*
X90074132Y-129652105D01*
X90021958Y-129606348D01*
X90002539Y-129539723D01*
X90021959Y-129473098D01*
X90074135Y-129427342D01*
X90132479Y-129400135D01*
X90318819Y-129269658D01*
X90479658Y-129108819D01*
X90610134Y-128922480D01*
X90706266Y-128716326D01*
X90758872Y-128520000D01*
X87401128Y-128520000D01*
X87453733Y-128716326D01*
X87549865Y-128922480D01*
X87680341Y-129108819D01*
X87841180Y-129269658D01*
X88027519Y-129400134D01*
X88085865Y-129427342D01*
X88138040Y-129473099D01*
X88157460Y-129539723D01*
X88138041Y-129606348D01*
X88085866Y-129652105D01*
X88027267Y-129679430D01*
X87840859Y-129809953D01*
X87679953Y-129970859D01*
X87549432Y-130157264D01*
X87453261Y-130363502D01*
X87394364Y-130583310D01*
X87374531Y-130810000D01*
X29210500Y-130810000D01*
X29210500Y-123915000D01*
X35764148Y-123915000D01*
X35790049Y-124103449D01*
X35869406Y-124386676D01*
X35986586Y-124656451D01*
X36139409Y-124907758D01*
X36325031Y-125135918D01*
X36539991Y-125336677D01*
X36780280Y-125506292D01*
X37041439Y-125641613D01*
X37318582Y-125740111D01*
X37606553Y-125799951D01*
X37826553Y-125815000D01*
X39300000Y-125815000D01*
X39300000Y-123915000D01*
X39800000Y-123915000D01*
X39800000Y-125815000D01*
X41273447Y-125815000D01*
X41493446Y-125799951D01*
X41781417Y-125740111D01*
X41809869Y-125729999D01*
X87374531Y-125729999D01*
X87394364Y-125956689D01*
X87453261Y-126176497D01*
X87549432Y-126382735D01*
X87679953Y-126569140D01*
X87840859Y-126730046D01*
X88027264Y-126860567D01*
X88027265Y-126860567D01*
X88027266Y-126860568D01*
X88085865Y-126887893D01*
X88138040Y-126933650D01*
X88157460Y-127000274D01*
X88138041Y-127066899D01*
X88085866Y-127112656D01*
X88027522Y-127139863D01*
X87841180Y-127270341D01*
X87680341Y-127431180D01*
X87549865Y-127617519D01*
X87453733Y-127823673D01*
X87401128Y-128019999D01*
X87401128Y-128020000D01*
X90758872Y-128020000D01*
X90758871Y-128019999D01*
X90706266Y-127823673D01*
X90610134Y-127617519D01*
X90479658Y-127431180D01*
X90318819Y-127270341D01*
X90132482Y-127139866D01*
X90074133Y-127112657D01*
X90021958Y-127066899D01*
X90002539Y-127000274D01*
X90021959Y-126933649D01*
X90074134Y-126887893D01*
X90132734Y-126860568D01*
X90319139Y-126730047D01*
X90480047Y-126569139D01*
X90610568Y-126382734D01*
X90706739Y-126176496D01*
X90765635Y-125956692D01*
X90785468Y-125730000D01*
X90765635Y-125503308D01*
X90706739Y-125283504D01*
X90610568Y-125077266D01*
X90491878Y-124907758D01*
X90480046Y-124890859D01*
X90319140Y-124729953D01*
X90294537Y-124712726D01*
X90255399Y-124667884D01*
X90241666Y-124609970D01*
X90256500Y-124552328D01*
X90296485Y-124508239D01*
X90352406Y-124487861D01*
X90387483Y-124484091D01*
X90522331Y-124433796D01*
X90637546Y-124347546D01*
X90723796Y-124232331D01*
X90774091Y-124097483D01*
X90780500Y-124037873D01*
X90780499Y-122342128D01*
X90774091Y-122282517D01*
X90723796Y-122147669D01*
X90637546Y-122032454D01*
X90522331Y-121946204D01*
X90387483Y-121895909D01*
X90327873Y-121889500D01*
X90327869Y-121889500D01*
X87832130Y-121889500D01*
X87772515Y-121895909D01*
X87637669Y-121946204D01*
X87522454Y-122032454D01*
X87436204Y-122147668D01*
X87385909Y-122282516D01*
X87379500Y-122342130D01*
X87379500Y-124037869D01*
X87385909Y-124097483D01*
X87436204Y-124232331D01*
X87522454Y-124347546D01*
X87637669Y-124433796D01*
X87772517Y-124484091D01*
X87807594Y-124487862D01*
X87863513Y-124508239D01*
X87903497Y-124552327D01*
X87918332Y-124609968D01*
X87904600Y-124667881D01*
X87865464Y-124712724D01*
X87840860Y-124729952D01*
X87679953Y-124890859D01*
X87549432Y-125077264D01*
X87453261Y-125283502D01*
X87394364Y-125503310D01*
X87374531Y-125729999D01*
X41809869Y-125729999D01*
X42058560Y-125641613D01*
X42319719Y-125506292D01*
X42560008Y-125336677D01*
X42774968Y-125135918D01*
X42960590Y-124907758D01*
X43113413Y-124656451D01*
X43230593Y-124386676D01*
X43309950Y-124103449D01*
X43335852Y-123915000D01*
X39800000Y-123915000D01*
X39300000Y-123915000D01*
X35764148Y-123915000D01*
X29210500Y-123915000D01*
X29210500Y-123415000D01*
X35764148Y-123415000D01*
X39300000Y-123415000D01*
X39300000Y-121515000D01*
X39800000Y-121515000D01*
X39800000Y-123415000D01*
X43335852Y-123415000D01*
X43335851Y-123414999D01*
X43309950Y-123226550D01*
X43230593Y-122943323D01*
X43113413Y-122673548D01*
X42960590Y-122422241D01*
X42774968Y-122194081D01*
X42560008Y-121993322D01*
X42456133Y-121919999D01*
X78484731Y-121919999D01*
X78503777Y-122174154D01*
X78560492Y-122422637D01*
X78653608Y-122659891D01*
X78701881Y-122743502D01*
X78781041Y-122880612D01*
X78939950Y-123079877D01*
X79126783Y-123253232D01*
X79337366Y-123396805D01*
X79566996Y-123507389D01*
X79810542Y-123582513D01*
X80062565Y-123620500D01*
X80317435Y-123620500D01*
X80569458Y-123582513D01*
X80813004Y-123507389D01*
X81042634Y-123396805D01*
X81253217Y-123253232D01*
X81440050Y-123079877D01*
X81598959Y-122880612D01*
X81726393Y-122659888D01*
X81819508Y-122422637D01*
X81876222Y-122174157D01*
X81895268Y-121920000D01*
X81892982Y-121889501D01*
X81876222Y-121665845D01*
X81876222Y-121665843D01*
X81819508Y-121417363D01*
X81726393Y-121180112D01*
X81598959Y-120959388D01*
X81440050Y-120760123D01*
X81253217Y-120586768D01*
X81042634Y-120443195D01*
X80813004Y-120332611D01*
X80569458Y-120257487D01*
X80317435Y-120219500D01*
X80062565Y-120219500D01*
X79810542Y-120257487D01*
X79566996Y-120332611D01*
X79337366Y-120443195D01*
X79232074Y-120514981D01*
X79126781Y-120586769D01*
X78939950Y-120760123D01*
X78781038Y-120959392D01*
X78653608Y-121180108D01*
X78560492Y-121417362D01*
X78503777Y-121665845D01*
X78484731Y-121919999D01*
X42456133Y-121919999D01*
X42319719Y-121823707D01*
X42058560Y-121688386D01*
X41781417Y-121589888D01*
X41493446Y-121530048D01*
X41273447Y-121515000D01*
X39800000Y-121515000D01*
X39300000Y-121515000D01*
X37826553Y-121515000D01*
X37606553Y-121530048D01*
X37318582Y-121589888D01*
X37041439Y-121688386D01*
X36780280Y-121823707D01*
X36539991Y-121993322D01*
X36325031Y-122194081D01*
X36139409Y-122422241D01*
X35986586Y-122673548D01*
X35869406Y-122943323D01*
X35790049Y-123226550D01*
X35764148Y-123414999D01*
X35764148Y-123415000D01*
X29210500Y-123415000D01*
X29210500Y-118167869D01*
X78489500Y-118167869D01*
X78495909Y-118227483D01*
X78546204Y-118362331D01*
X78632454Y-118477546D01*
X78747669Y-118563796D01*
X78882517Y-118614091D01*
X78942127Y-118620500D01*
X81437872Y-118620499D01*
X81497483Y-118614091D01*
X81632331Y-118563796D01*
X81747546Y-118477546D01*
X81833796Y-118362331D01*
X81884091Y-118227483D01*
X81890500Y-118167873D01*
X81890499Y-116839999D01*
X87374531Y-116839999D01*
X87394364Y-117066689D01*
X87453261Y-117286497D01*
X87549432Y-117492735D01*
X87679953Y-117679140D01*
X87840859Y-117840046D01*
X88027264Y-117970567D01*
X88027265Y-117970567D01*
X88027266Y-117970568D01*
X88233504Y-118066739D01*
X88453308Y-118125635D01*
X88538261Y-118133067D01*
X88623214Y-118140500D01*
X88623216Y-118140500D01*
X89536784Y-118140500D01*
X89536786Y-118140500D01*
X89604747Y-118134553D01*
X89706692Y-118125635D01*
X89926496Y-118066739D01*
X90132734Y-117970568D01*
X90319139Y-117840047D01*
X90480047Y-117679139D01*
X90610568Y-117492734D01*
X90706739Y-117286496D01*
X90765635Y-117066692D01*
X90785468Y-116840000D01*
X90765635Y-116613308D01*
X90706739Y-116393504D01*
X90610568Y-116187266D01*
X90532309Y-116075500D01*
X90480046Y-116000859D01*
X90319140Y-115839953D01*
X90132736Y-115709433D01*
X90074723Y-115682381D01*
X90074132Y-115682105D01*
X90021958Y-115636348D01*
X90002539Y-115569723D01*
X90021959Y-115503098D01*
X90074135Y-115457342D01*
X90132479Y-115430135D01*
X90318819Y-115299658D01*
X90479658Y-115138819D01*
X90610134Y-114952480D01*
X90706266Y-114746326D01*
X90758872Y-114550000D01*
X87401128Y-114550000D01*
X87453733Y-114746326D01*
X87549865Y-114952480D01*
X87680341Y-115138819D01*
X87841180Y-115299658D01*
X88027519Y-115430134D01*
X88085865Y-115457342D01*
X88138040Y-115503099D01*
X88157460Y-115569723D01*
X88138041Y-115636348D01*
X88085866Y-115682105D01*
X88027267Y-115709430D01*
X87840859Y-115839953D01*
X87679953Y-116000859D01*
X87549432Y-116187264D01*
X87453261Y-116393502D01*
X87394364Y-116613310D01*
X87374531Y-116839999D01*
X81890499Y-116839999D01*
X81890499Y-115672128D01*
X81884091Y-115612517D01*
X81833796Y-115477669D01*
X81747546Y-115362454D01*
X81632331Y-115276204D01*
X81497483Y-115225909D01*
X81437873Y-115219500D01*
X81437869Y-115219500D01*
X78942130Y-115219500D01*
X78882515Y-115225909D01*
X78747669Y-115276204D01*
X78632454Y-115362454D01*
X78546204Y-115477668D01*
X78495909Y-115612516D01*
X78489500Y-115672130D01*
X78489500Y-118167869D01*
X29210500Y-118167869D01*
X29210500Y-115362869D01*
X35749500Y-115362869D01*
X35755909Y-115422484D01*
X35769013Y-115457616D01*
X35806204Y-115557331D01*
X35892454Y-115672546D01*
X36007669Y-115758796D01*
X36142517Y-115809091D01*
X36202127Y-115815500D01*
X42897872Y-115815499D01*
X42957483Y-115809091D01*
X43092331Y-115758796D01*
X43207546Y-115672546D01*
X43293796Y-115557331D01*
X43344091Y-115422483D01*
X43350500Y-115362873D01*
X43350499Y-111967128D01*
X43344091Y-111907517D01*
X43293796Y-111772669D01*
X43284311Y-111759999D01*
X87374531Y-111759999D01*
X87394364Y-111986689D01*
X87453261Y-112206497D01*
X87549432Y-112412735D01*
X87679953Y-112599140D01*
X87840859Y-112760046D01*
X88027264Y-112890567D01*
X88027265Y-112890567D01*
X88027266Y-112890568D01*
X88085865Y-112917893D01*
X88138040Y-112963650D01*
X88157460Y-113030274D01*
X88138041Y-113096899D01*
X88085866Y-113142656D01*
X88027522Y-113169863D01*
X87841180Y-113300341D01*
X87680341Y-113461180D01*
X87549865Y-113647519D01*
X87453733Y-113853673D01*
X87401128Y-114049999D01*
X87401128Y-114050000D01*
X90758872Y-114050000D01*
X90758871Y-114049999D01*
X90706266Y-113853673D01*
X90610134Y-113647519D01*
X90479658Y-113461180D01*
X90318819Y-113300341D01*
X90132482Y-113169866D01*
X90074133Y-113142657D01*
X90021958Y-113096899D01*
X90002539Y-113030274D01*
X90021959Y-112963649D01*
X90074134Y-112917893D01*
X90132734Y-112890568D01*
X90319139Y-112760047D01*
X90480047Y-112599139D01*
X90610568Y-112412734D01*
X90706739Y-112206496D01*
X90765635Y-111986692D01*
X90785468Y-111760000D01*
X90765635Y-111533308D01*
X90706739Y-111313504D01*
X90610568Y-111107266D01*
X90480047Y-110920861D01*
X90480046Y-110920859D01*
X90319140Y-110759953D01*
X90294537Y-110742726D01*
X90255399Y-110697884D01*
X90241666Y-110639970D01*
X90256500Y-110582328D01*
X90296485Y-110538239D01*
X90352406Y-110517861D01*
X90387483Y-110514091D01*
X90522331Y-110463796D01*
X90637546Y-110377546D01*
X90723796Y-110262331D01*
X90774091Y-110127483D01*
X90780500Y-110067873D01*
X90780499Y-108372128D01*
X90774091Y-108312517D01*
X90723796Y-108177669D01*
X90637546Y-108062454D01*
X90522331Y-107976204D01*
X90387483Y-107925909D01*
X90327873Y-107919500D01*
X90327869Y-107919500D01*
X87832130Y-107919500D01*
X87772515Y-107925909D01*
X87637669Y-107976204D01*
X87522454Y-108062454D01*
X87436204Y-108177668D01*
X87385909Y-108312516D01*
X87379500Y-108372130D01*
X87379500Y-110067869D01*
X87385909Y-110127483D01*
X87436204Y-110262331D01*
X87522454Y-110377546D01*
X87637669Y-110463796D01*
X87772517Y-110514091D01*
X87807594Y-110517862D01*
X87863513Y-110538239D01*
X87903497Y-110582327D01*
X87918332Y-110639968D01*
X87904600Y-110697881D01*
X87865464Y-110742724D01*
X87840860Y-110759952D01*
X87679953Y-110920859D01*
X87549432Y-111107264D01*
X87453261Y-111313502D01*
X87394364Y-111533310D01*
X87374531Y-111759999D01*
X43284311Y-111759999D01*
X43207546Y-111657454D01*
X43187664Y-111642570D01*
X43145795Y-111586636D01*
X43140811Y-111516945D01*
X43174294Y-111455625D01*
X47394919Y-107235000D01*
X78484731Y-107235000D01*
X78503777Y-107489154D01*
X78560492Y-107737637D01*
X78653608Y-107974891D01*
X78719738Y-108089432D01*
X78781041Y-108195612D01*
X78939950Y-108394877D01*
X79126783Y-108568232D01*
X79337366Y-108711805D01*
X79566996Y-108822389D01*
X79810542Y-108897513D01*
X80062565Y-108935500D01*
X80317435Y-108935500D01*
X80569458Y-108897513D01*
X80813004Y-108822389D01*
X81042634Y-108711805D01*
X81253217Y-108568232D01*
X81440050Y-108394877D01*
X81598959Y-108195612D01*
X81726393Y-107974888D01*
X81819508Y-107737637D01*
X81876222Y-107489157D01*
X81895268Y-107235000D01*
X81876222Y-106980843D01*
X81819508Y-106732363D01*
X81726393Y-106495112D01*
X81598959Y-106274388D01*
X81440050Y-106075123D01*
X81253217Y-105901768D01*
X81042634Y-105758195D01*
X80813004Y-105647611D01*
X80569458Y-105572487D01*
X80317435Y-105534500D01*
X80062565Y-105534500D01*
X79810542Y-105572487D01*
X79566996Y-105647611D01*
X79337366Y-105758195D01*
X79232074Y-105829981D01*
X79126781Y-105901769D01*
X78939950Y-106075123D01*
X78781038Y-106274392D01*
X78653608Y-106495108D01*
X78560492Y-106732362D01*
X78503777Y-106980845D01*
X78484731Y-107235000D01*
X47394919Y-107235000D01*
X50284442Y-104345477D01*
X91704663Y-104345477D01*
X91708506Y-104375651D01*
X91709500Y-104391317D01*
X91709500Y-130781500D01*
X91709341Y-130787779D01*
X91705631Y-130860937D01*
X91716720Y-130933324D01*
X91717514Y-130939554D01*
X91724926Y-131012440D01*
X91729749Y-131027812D01*
X91734003Y-131046143D01*
X91736444Y-131062071D01*
X91736445Y-131062073D01*
X91761882Y-131130759D01*
X91763911Y-131136696D01*
X91785841Y-131206588D01*
X91793659Y-131220674D01*
X91801518Y-131237779D01*
X91807112Y-131252884D01*
X91845864Y-131315055D01*
X91849051Y-131320470D01*
X91884591Y-131384502D01*
X91895076Y-131396715D01*
X91906224Y-131411896D01*
X91914747Y-131425571D01*
X91965220Y-131478668D01*
X91969431Y-131483329D01*
X92017134Y-131538895D01*
X92029874Y-131548756D01*
X92043842Y-131561377D01*
X92054942Y-131573054D01*
X92115050Y-131614890D01*
X92120116Y-131618610D01*
X92178037Y-131663445D01*
X92178040Y-131663446D01*
X92178042Y-131663448D01*
X92192509Y-131670544D01*
X92208733Y-131680095D01*
X92221949Y-131689294D01*
X92221950Y-131689294D01*
X92221951Y-131689295D01*
X92289263Y-131718181D01*
X92294962Y-131720800D01*
X92360727Y-131753060D01*
X92376311Y-131757094D01*
X92394136Y-131763186D01*
X92408942Y-131769540D01*
X92408945Y-131769540D01*
X92408946Y-131769541D01*
X92435887Y-131775076D01*
X92480700Y-131784285D01*
X92486779Y-131785695D01*
X92557715Y-131804063D01*
X92573807Y-131804879D01*
X92592483Y-131807258D01*
X92608258Y-131810500D01*
X92608259Y-131810500D01*
X92681499Y-131810500D01*
X92687778Y-131810658D01*
X92712842Y-131811930D01*
X92760935Y-131814369D01*
X92760935Y-131814368D01*
X92760936Y-131814369D01*
X92776857Y-131811929D01*
X92795635Y-131810500D01*
X95422412Y-131810500D01*
X95459699Y-131816239D01*
X95493533Y-131832924D01*
X95647266Y-131940568D01*
X95853504Y-132036739D01*
X96073308Y-132095635D01*
X96158261Y-132103067D01*
X96243214Y-132110500D01*
X96243216Y-132110500D01*
X97156784Y-132110500D01*
X97156786Y-132110500D01*
X97224747Y-132104554D01*
X97326692Y-132095635D01*
X97546496Y-132036739D01*
X97752734Y-131940568D01*
X97939139Y-131810047D01*
X98100047Y-131649139D01*
X98230568Y-131462734D01*
X98326739Y-131256496D01*
X98385635Y-131036692D01*
X98405468Y-130810000D01*
X98385635Y-130583308D01*
X98326739Y-130363504D01*
X98230568Y-130157266D01*
X98100047Y-129970861D01*
X98100046Y-129970859D01*
X97939140Y-129809953D01*
X97752733Y-129679431D01*
X97694725Y-129652382D01*
X97642549Y-129606625D01*
X97623129Y-129540000D01*
X97642549Y-129473375D01*
X97694725Y-129427618D01*
X97695317Y-129427342D01*
X97752734Y-129400568D01*
X97939139Y-129270047D01*
X98100047Y-129109139D01*
X98230568Y-128922734D01*
X98326739Y-128716496D01*
X98385635Y-128496692D01*
X98405468Y-128270000D01*
X98385635Y-128043308D01*
X98326739Y-127823504D01*
X98230568Y-127617266D01*
X98100270Y-127431180D01*
X98100046Y-127430859D01*
X97939140Y-127269953D01*
X97752736Y-127139433D01*
X97694723Y-127112381D01*
X97642548Y-127066623D01*
X97623129Y-126999997D01*
X97642549Y-126933372D01*
X97694721Y-126887619D01*
X97752734Y-126860568D01*
X97939139Y-126730047D01*
X98100047Y-126569139D01*
X98230568Y-126382734D01*
X98326739Y-126176496D01*
X98385635Y-125956692D01*
X98405468Y-125730000D01*
X98385635Y-125503308D01*
X98326739Y-125283504D01*
X98230568Y-125077266D01*
X98111878Y-124907758D01*
X98100046Y-124890859D01*
X97939140Y-124729953D01*
X97752733Y-124599431D01*
X97694725Y-124572382D01*
X97642549Y-124526625D01*
X97623129Y-124460000D01*
X97642549Y-124393375D01*
X97694725Y-124347618D01*
X97752734Y-124320568D01*
X97939139Y-124190047D01*
X98100047Y-124029139D01*
X98230568Y-123842734D01*
X98326739Y-123636496D01*
X98385635Y-123416692D01*
X98405468Y-123190000D01*
X98405468Y-123189999D01*
X98387133Y-122980427D01*
X98394139Y-122927210D01*
X98422978Y-122881941D01*
X106107389Y-115197529D01*
X106109559Y-115195413D01*
X106173053Y-115135059D01*
X106206759Y-115086630D01*
X106212428Y-115079113D01*
X106249698Y-115033407D01*
X106263783Y-115006439D01*
X106271918Y-114993015D01*
X106278373Y-114983740D01*
X106289295Y-114968049D01*
X106312568Y-114913815D01*
X106316588Y-114905350D01*
X106343909Y-114853049D01*
X106352275Y-114823808D01*
X106357539Y-114809019D01*
X106369540Y-114781058D01*
X106381417Y-114723256D01*
X106383652Y-114714148D01*
X106399886Y-114657418D01*
X106402196Y-114627078D01*
X106404376Y-114611540D01*
X106410500Y-114581742D01*
X106410500Y-114522756D01*
X106410858Y-114513341D01*
X106411154Y-114509449D01*
X106415337Y-114454524D01*
X106411494Y-114424348D01*
X106410500Y-114408683D01*
X106410500Y-104047027D01*
X106418983Y-104001952D01*
X106443268Y-103963046D01*
X106598164Y-103794785D01*
X106734173Y-103586607D01*
X106834063Y-103358881D01*
X106895108Y-103117821D01*
X106915643Y-102870000D01*
X106895108Y-102622179D01*
X106834063Y-102381119D01*
X106734173Y-102153393D01*
X106598164Y-101945215D01*
X106443268Y-101776953D01*
X106418983Y-101738048D01*
X106410500Y-101692973D01*
X106410500Y-97804279D01*
X106410540Y-97801137D01*
X106412757Y-97713640D01*
X106412756Y-97713639D01*
X106412757Y-97713637D01*
X106412444Y-97711894D01*
X106410500Y-97690019D01*
X106410500Y-73567027D01*
X106418983Y-73521952D01*
X106443268Y-73483046D01*
X106598164Y-73314785D01*
X106734173Y-73106607D01*
X106834063Y-72878881D01*
X106895108Y-72637821D01*
X106915643Y-72390000D01*
X106895108Y-72142179D01*
X106834063Y-71901119D01*
X106734173Y-71673393D01*
X106598164Y-71465215D01*
X106443268Y-71296953D01*
X106418983Y-71258048D01*
X106410500Y-71212973D01*
X106410500Y-60988501D01*
X106410659Y-60982220D01*
X106414369Y-60909064D01*
X106411930Y-60893144D01*
X106410500Y-60874365D01*
X106410500Y-40547027D01*
X106418983Y-40501952D01*
X106443268Y-40463046D01*
X106598164Y-40294785D01*
X106734173Y-40086607D01*
X106834063Y-39858881D01*
X106895108Y-39617821D01*
X106915643Y-39370000D01*
X106895108Y-39122179D01*
X106834063Y-38881119D01*
X106734173Y-38653393D01*
X106598164Y-38445215D01*
X106429744Y-38262262D01*
X106407612Y-38245036D01*
X106233514Y-38109529D01*
X106233510Y-38109526D01*
X106233509Y-38109526D01*
X106014810Y-37991172D01*
X106014806Y-37991170D01*
X106014805Y-37991170D01*
X105779615Y-37910429D01*
X105534335Y-37869500D01*
X105285665Y-37869500D01*
X105040384Y-37910429D01*
X104805194Y-37991170D01*
X104586485Y-38109529D01*
X104390259Y-38262259D01*
X104221837Y-38445214D01*
X104085825Y-38653395D01*
X103985938Y-38881117D01*
X103924891Y-39122183D01*
X103904356Y-39369999D01*
X103924891Y-39617816D01*
X103924891Y-39617819D01*
X103924892Y-39617821D01*
X103985937Y-39858881D01*
X104030960Y-39961523D01*
X104085825Y-40086604D01*
X104085827Y-40086607D01*
X104221836Y-40294785D01*
X104376731Y-40463046D01*
X104401017Y-40501952D01*
X104409500Y-40547027D01*
X104409500Y-59835500D01*
X104392887Y-59897500D01*
X104347500Y-59942887D01*
X104285500Y-59959500D01*
X100431741Y-59959500D01*
X97977588Y-59959500D01*
X97940301Y-59953761D01*
X97906465Y-59937075D01*
X97878750Y-59917669D01*
X97752734Y-59829432D01*
X97637367Y-59775635D01*
X97546497Y-59733261D01*
X97326689Y-59674364D01*
X97156786Y-59659500D01*
X97156784Y-59659500D01*
X96243216Y-59659500D01*
X96243214Y-59659500D01*
X96073310Y-59674364D01*
X95853502Y-59733261D01*
X95647264Y-59829432D01*
X95460859Y-59959953D01*
X95299953Y-60120859D01*
X95169432Y-60307264D01*
X95073261Y-60513502D01*
X95014364Y-60733310D01*
X94994531Y-60959999D01*
X95014364Y-61186689D01*
X95073261Y-61406497D01*
X95169432Y-61612735D01*
X95299953Y-61799140D01*
X95460859Y-61960046D01*
X95521249Y-62002331D01*
X95647266Y-62090568D01*
X95705275Y-62117618D01*
X95757450Y-62163375D01*
X95776869Y-62230000D01*
X95757450Y-62296625D01*
X95705275Y-62342382D01*
X95647263Y-62369433D01*
X95460859Y-62499953D01*
X95299953Y-62660859D01*
X95169432Y-62847264D01*
X95073261Y-63053502D01*
X95014364Y-63273310D01*
X94994531Y-63499999D01*
X95014364Y-63726689D01*
X95073261Y-63946497D01*
X95169432Y-64152735D01*
X95299953Y-64339140D01*
X95460859Y-64500046D01*
X95593811Y-64593139D01*
X95647266Y-64630568D01*
X95705275Y-64657618D01*
X95757450Y-64703375D01*
X95776869Y-64770000D01*
X95757450Y-64836625D01*
X95705275Y-64882382D01*
X95647263Y-64909433D01*
X95460859Y-65039953D01*
X95299953Y-65200859D01*
X95169432Y-65387264D01*
X95073261Y-65593502D01*
X95014364Y-65813310D01*
X94994531Y-66040000D01*
X95014364Y-66266689D01*
X95073261Y-66486497D01*
X95169432Y-66692735D01*
X95299953Y-66879140D01*
X95460859Y-67040046D01*
X95647263Y-67170566D01*
X95647266Y-67170568D01*
X95704683Y-67197342D01*
X95705275Y-67197618D01*
X95757450Y-67243375D01*
X95776869Y-67310000D01*
X95757450Y-67376625D01*
X95705275Y-67422382D01*
X95647263Y-67449433D01*
X95460859Y-67579953D01*
X95299953Y-67740859D01*
X95169432Y-67927264D01*
X95073261Y-68133502D01*
X95014364Y-68353310D01*
X94994531Y-68580000D01*
X95012866Y-68789570D01*
X95005860Y-68842788D01*
X94977019Y-68888058D01*
X92012646Y-71852432D01*
X92010399Y-71854623D01*
X91946948Y-71914939D01*
X91913244Y-71963362D01*
X91907573Y-71970882D01*
X91870301Y-72016593D01*
X91856210Y-72043566D01*
X91848082Y-72056983D01*
X91830705Y-72081950D01*
X91807439Y-72136165D01*
X91803399Y-72144671D01*
X91776090Y-72196952D01*
X91767720Y-72226201D01*
X91762459Y-72240978D01*
X91750460Y-72268942D01*
X91738587Y-72326713D01*
X91736342Y-72335860D01*
X91720113Y-72392580D01*
X91717802Y-72422925D01*
X91715622Y-72438466D01*
X91709500Y-72468259D01*
X91709500Y-72527242D01*
X91709142Y-72536656D01*
X91704663Y-72595477D01*
X91708506Y-72625651D01*
X91709500Y-72641317D01*
X91709500Y-96325721D01*
X91709460Y-96328863D01*
X91707242Y-96416362D01*
X91717648Y-96474420D01*
X91718957Y-96483749D01*
X91724926Y-96542438D01*
X91734033Y-96571467D01*
X91737772Y-96586702D01*
X91743141Y-96616652D01*
X91765020Y-96671425D01*
X91768180Y-96680300D01*
X91785841Y-96736588D01*
X91800607Y-96763191D01*
X91807337Y-96777364D01*
X91818622Y-96805617D01*
X91851080Y-96854867D01*
X91855961Y-96862923D01*
X91884590Y-96914501D01*
X91904404Y-96937581D01*
X91913856Y-96950116D01*
X91930599Y-96975520D01*
X91972300Y-97017221D01*
X91978705Y-97024132D01*
X92017134Y-97068896D01*
X92041193Y-97087519D01*
X92052972Y-97097893D01*
X94977019Y-100021939D01*
X95005860Y-100067209D01*
X95012866Y-100120427D01*
X94994531Y-100329999D01*
X95012866Y-100539570D01*
X95005860Y-100592788D01*
X94977019Y-100638058D01*
X92012646Y-103602432D01*
X92010399Y-103604623D01*
X91946948Y-103664939D01*
X91913244Y-103713362D01*
X91907573Y-103720882D01*
X91870301Y-103766593D01*
X91856210Y-103793566D01*
X91848082Y-103806983D01*
X91830705Y-103831950D01*
X91807439Y-103886165D01*
X91803399Y-103894671D01*
X91776090Y-103946952D01*
X91767720Y-103976201D01*
X91762459Y-103990978D01*
X91750460Y-104018942D01*
X91738587Y-104076713D01*
X91736342Y-104085860D01*
X91720113Y-104142580D01*
X91717802Y-104172925D01*
X91715622Y-104188466D01*
X91709500Y-104218259D01*
X91709500Y-104277242D01*
X91709142Y-104286656D01*
X91704663Y-104345477D01*
X50284442Y-104345477D01*
X51147050Y-103482869D01*
X78489500Y-103482869D01*
X78495909Y-103542484D01*
X78518684Y-103603547D01*
X78546204Y-103677331D01*
X78632454Y-103792546D01*
X78747669Y-103878796D01*
X78882517Y-103929091D01*
X78942127Y-103935500D01*
X81437872Y-103935499D01*
X81497483Y-103929091D01*
X81632331Y-103878796D01*
X81747546Y-103792546D01*
X81833796Y-103677331D01*
X81884091Y-103542483D01*
X81890500Y-103482873D01*
X81890499Y-100987128D01*
X81884091Y-100927517D01*
X81833796Y-100792669D01*
X81747546Y-100677454D01*
X81632331Y-100591204D01*
X81497483Y-100540909D01*
X81437873Y-100534500D01*
X81437869Y-100534500D01*
X78942130Y-100534500D01*
X78882515Y-100540909D01*
X78747669Y-100591204D01*
X78632454Y-100677454D01*
X78546204Y-100792668D01*
X78495909Y-100927515D01*
X78495909Y-100927517D01*
X78489973Y-100982734D01*
X78489500Y-100987130D01*
X78489500Y-103482869D01*
X51147050Y-103482869D01*
X54299919Y-100330000D01*
X87374531Y-100330000D01*
X87394364Y-100556689D01*
X87453261Y-100776497D01*
X87549432Y-100982735D01*
X87679953Y-101169140D01*
X87840859Y-101330046D01*
X88027264Y-101460567D01*
X88027265Y-101460567D01*
X88027266Y-101460568D01*
X88233504Y-101556739D01*
X88453308Y-101615635D01*
X88538262Y-101623067D01*
X88623214Y-101630500D01*
X88623216Y-101630500D01*
X89536784Y-101630500D01*
X89536786Y-101630500D01*
X89604747Y-101624554D01*
X89706692Y-101615635D01*
X89926496Y-101556739D01*
X90132734Y-101460568D01*
X90319139Y-101330047D01*
X90480047Y-101169139D01*
X90610568Y-100982734D01*
X90706739Y-100776496D01*
X90765635Y-100556692D01*
X90785468Y-100330000D01*
X90765635Y-100103308D01*
X90706739Y-99883504D01*
X90610568Y-99677266D01*
X90480047Y-99490861D01*
X90480046Y-99490859D01*
X90319140Y-99329953D01*
X90132736Y-99199433D01*
X90074721Y-99172380D01*
X90074132Y-99172105D01*
X90021958Y-99126348D01*
X90002539Y-99059723D01*
X90021959Y-98993098D01*
X90074135Y-98947342D01*
X90132479Y-98920135D01*
X90318819Y-98789658D01*
X90479658Y-98628819D01*
X90610134Y-98442480D01*
X90706266Y-98236326D01*
X90758872Y-98040000D01*
X87401128Y-98040000D01*
X87453733Y-98236326D01*
X87549865Y-98442480D01*
X87680341Y-98628819D01*
X87841180Y-98789658D01*
X88027519Y-98920134D01*
X88085865Y-98947342D01*
X88138040Y-98993099D01*
X88157460Y-99059723D01*
X88138041Y-99126348D01*
X88085866Y-99172105D01*
X88027267Y-99199430D01*
X87840859Y-99329953D01*
X87679953Y-99490859D01*
X87549432Y-99677264D01*
X87453261Y-99883502D01*
X87394364Y-100103310D01*
X87374531Y-100330000D01*
X54299919Y-100330000D01*
X56577409Y-98052510D01*
X56579579Y-98050394D01*
X56643053Y-97990059D01*
X56676763Y-97941624D01*
X56682405Y-97934141D01*
X56719697Y-97888408D01*
X56733786Y-97861433D01*
X56741908Y-97848027D01*
X56759295Y-97823049D01*
X56782568Y-97768815D01*
X56786590Y-97760346D01*
X56813909Y-97708049D01*
X56819068Y-97690019D01*
X56822275Y-97678808D01*
X56827539Y-97664019D01*
X56839540Y-97636058D01*
X56851417Y-97578256D01*
X56853652Y-97569148D01*
X56869886Y-97512418D01*
X56872196Y-97482078D01*
X56874376Y-97466540D01*
X56880500Y-97436742D01*
X56880500Y-97377756D01*
X56880858Y-97368341D01*
X56882749Y-97343502D01*
X56885337Y-97309524D01*
X56881494Y-97279348D01*
X56880500Y-97263683D01*
X56880500Y-95250000D01*
X87374531Y-95250000D01*
X87394364Y-95476689D01*
X87453261Y-95696497D01*
X87549432Y-95902735D01*
X87679953Y-96089140D01*
X87840859Y-96250046D01*
X88027264Y-96380567D01*
X88027265Y-96380567D01*
X88027266Y-96380568D01*
X88085865Y-96407893D01*
X88138040Y-96453650D01*
X88157460Y-96520274D01*
X88138041Y-96586899D01*
X88085866Y-96632656D01*
X88027522Y-96659863D01*
X87841180Y-96790341D01*
X87680341Y-96951180D01*
X87549865Y-97137519D01*
X87453733Y-97343673D01*
X87401128Y-97539999D01*
X87401128Y-97540000D01*
X90758872Y-97540000D01*
X90758871Y-97539999D01*
X90706266Y-97343673D01*
X90610134Y-97137519D01*
X90479658Y-96951180D01*
X90318819Y-96790341D01*
X90132482Y-96659866D01*
X90074133Y-96632657D01*
X90021958Y-96586899D01*
X90002539Y-96520274D01*
X90021959Y-96453649D01*
X90074134Y-96407893D01*
X90132734Y-96380568D01*
X90319139Y-96250047D01*
X90480047Y-96089139D01*
X90610568Y-95902734D01*
X90706739Y-95696496D01*
X90765635Y-95476692D01*
X90785468Y-95250000D01*
X90765635Y-95023308D01*
X90706739Y-94803504D01*
X90610568Y-94597266D01*
X90480047Y-94410861D01*
X90480046Y-94410859D01*
X90319140Y-94249953D01*
X90294537Y-94232726D01*
X90255399Y-94187884D01*
X90241666Y-94129970D01*
X90256500Y-94072328D01*
X90296485Y-94028239D01*
X90352406Y-94007861D01*
X90387483Y-94004091D01*
X90522331Y-93953796D01*
X90637546Y-93867546D01*
X90723796Y-93752331D01*
X90774091Y-93617483D01*
X90780500Y-93557873D01*
X90780499Y-91862128D01*
X90774091Y-91802517D01*
X90723796Y-91667669D01*
X90637546Y-91552454D01*
X90522331Y-91466204D01*
X90387483Y-91415909D01*
X90327873Y-91409500D01*
X90327869Y-91409500D01*
X87832130Y-91409500D01*
X87772515Y-91415909D01*
X87637669Y-91466204D01*
X87522454Y-91552454D01*
X87436204Y-91667668D01*
X87385909Y-91802516D01*
X87379500Y-91862130D01*
X87379500Y-93557869D01*
X87385909Y-93617483D01*
X87436204Y-93752331D01*
X87522454Y-93867546D01*
X87637669Y-93953796D01*
X87772517Y-94004091D01*
X87807594Y-94007862D01*
X87863513Y-94028239D01*
X87903497Y-94072327D01*
X87918332Y-94129968D01*
X87904600Y-94187881D01*
X87865464Y-94232724D01*
X87840860Y-94249952D01*
X87679953Y-94410859D01*
X87549432Y-94597264D01*
X87453261Y-94803502D01*
X87394364Y-95023310D01*
X87374531Y-95250000D01*
X56880500Y-95250000D01*
X56880500Y-92210999D01*
X78484731Y-92210999D01*
X78503777Y-92465154D01*
X78560492Y-92713637D01*
X78653608Y-92950891D01*
X78772314Y-93156496D01*
X78781041Y-93171612D01*
X78939950Y-93370877D01*
X79126783Y-93544232D01*
X79337366Y-93687805D01*
X79566996Y-93798389D01*
X79810542Y-93873513D01*
X80062565Y-93911500D01*
X80317435Y-93911500D01*
X80569458Y-93873513D01*
X80813004Y-93798389D01*
X81042634Y-93687805D01*
X81253217Y-93544232D01*
X81440050Y-93370877D01*
X81598959Y-93171612D01*
X81726393Y-92950888D01*
X81819508Y-92713637D01*
X81876222Y-92465157D01*
X81895268Y-92211000D01*
X81876222Y-91956843D01*
X81819508Y-91708363D01*
X81726393Y-91471112D01*
X81723559Y-91466204D01*
X81598961Y-91250392D01*
X81598959Y-91250388D01*
X81440050Y-91051123D01*
X81253217Y-90877768D01*
X81042634Y-90734195D01*
X80813004Y-90623611D01*
X80569458Y-90548487D01*
X80317435Y-90510500D01*
X80062565Y-90510500D01*
X79810542Y-90548487D01*
X79566996Y-90623611D01*
X79337366Y-90734195D01*
X79232074Y-90805981D01*
X79126781Y-90877769D01*
X78939950Y-91051123D01*
X78781038Y-91250392D01*
X78653608Y-91471108D01*
X78560492Y-91708362D01*
X78503777Y-91956845D01*
X78484731Y-92210999D01*
X56880500Y-92210999D01*
X56880500Y-88458869D01*
X78489500Y-88458869D01*
X78495909Y-88518483D01*
X78546204Y-88653331D01*
X78632454Y-88768546D01*
X78747669Y-88854796D01*
X78882517Y-88905091D01*
X78942127Y-88911500D01*
X81437872Y-88911499D01*
X81497483Y-88905091D01*
X81632331Y-88854796D01*
X81747546Y-88768546D01*
X81833796Y-88653331D01*
X81884091Y-88518483D01*
X81890500Y-88458873D01*
X81890499Y-86360000D01*
X87374531Y-86360000D01*
X87394364Y-86586689D01*
X87453261Y-86806497D01*
X87549432Y-87012735D01*
X87679953Y-87199140D01*
X87840859Y-87360046D01*
X88027264Y-87490567D01*
X88027265Y-87490567D01*
X88027266Y-87490568D01*
X88233504Y-87586739D01*
X88453308Y-87645635D01*
X88538261Y-87653067D01*
X88623214Y-87660500D01*
X88623216Y-87660500D01*
X89536784Y-87660500D01*
X89536786Y-87660500D01*
X89604747Y-87654554D01*
X89706692Y-87645635D01*
X89926496Y-87586739D01*
X90132734Y-87490568D01*
X90319139Y-87360047D01*
X90480047Y-87199139D01*
X90610568Y-87012734D01*
X90706739Y-86806496D01*
X90765635Y-86586692D01*
X90785468Y-86360000D01*
X90765635Y-86133308D01*
X90706739Y-85913504D01*
X90610568Y-85707266D01*
X90512496Y-85567204D01*
X90480046Y-85520859D01*
X90319140Y-85359953D01*
X90132736Y-85229433D01*
X90074725Y-85202382D01*
X90074132Y-85202105D01*
X90021958Y-85156348D01*
X90002539Y-85089723D01*
X90021959Y-85023098D01*
X90074135Y-84977342D01*
X90132479Y-84950135D01*
X90318819Y-84819658D01*
X90479658Y-84658819D01*
X90610134Y-84472480D01*
X90706266Y-84266326D01*
X90758872Y-84070000D01*
X87401128Y-84070000D01*
X87453733Y-84266326D01*
X87549865Y-84472480D01*
X87680341Y-84658819D01*
X87841180Y-84819658D01*
X88027519Y-84950134D01*
X88085865Y-84977342D01*
X88138040Y-85023099D01*
X88157460Y-85089723D01*
X88138041Y-85156348D01*
X88085866Y-85202105D01*
X88027267Y-85229430D01*
X87840859Y-85359953D01*
X87679953Y-85520859D01*
X87549432Y-85707264D01*
X87453261Y-85913502D01*
X87394364Y-86133310D01*
X87374531Y-86360000D01*
X81890499Y-86360000D01*
X81890499Y-85963128D01*
X81884091Y-85903517D01*
X81833796Y-85768669D01*
X81747546Y-85653454D01*
X81632331Y-85567204D01*
X81497483Y-85516909D01*
X81437873Y-85510500D01*
X81437869Y-85510500D01*
X78942130Y-85510500D01*
X78882515Y-85516909D01*
X78747669Y-85567204D01*
X78632454Y-85653454D01*
X78546204Y-85768668D01*
X78495909Y-85903516D01*
X78489500Y-85963130D01*
X78489500Y-88458869D01*
X56880500Y-88458869D01*
X56880500Y-81280000D01*
X87374531Y-81280000D01*
X87394364Y-81506689D01*
X87453261Y-81726497D01*
X87549432Y-81932735D01*
X87679953Y-82119140D01*
X87840859Y-82280046D01*
X88027264Y-82410567D01*
X88027265Y-82410567D01*
X88027266Y-82410568D01*
X88085865Y-82437893D01*
X88138040Y-82483650D01*
X88157460Y-82550274D01*
X88138041Y-82616899D01*
X88085866Y-82662656D01*
X88027522Y-82689863D01*
X87841180Y-82820341D01*
X87680341Y-82981180D01*
X87549865Y-83167519D01*
X87453733Y-83373673D01*
X87401128Y-83569999D01*
X87401128Y-83570000D01*
X90758872Y-83570000D01*
X90758871Y-83569999D01*
X90706266Y-83373673D01*
X90610134Y-83167519D01*
X90479658Y-82981180D01*
X90318819Y-82820341D01*
X90132482Y-82689866D01*
X90074133Y-82662657D01*
X90021958Y-82616899D01*
X90002539Y-82550274D01*
X90021959Y-82483649D01*
X90074134Y-82437893D01*
X90132734Y-82410568D01*
X90319139Y-82280047D01*
X90480047Y-82119139D01*
X90610568Y-81932734D01*
X90706739Y-81726496D01*
X90765635Y-81506692D01*
X90785468Y-81280000D01*
X90765635Y-81053308D01*
X90706739Y-80833504D01*
X90610568Y-80627266D01*
X90480047Y-80440861D01*
X90480046Y-80440859D01*
X90319140Y-80279953D01*
X90294537Y-80262726D01*
X90255399Y-80217884D01*
X90241666Y-80159970D01*
X90256500Y-80102328D01*
X90296485Y-80058239D01*
X90352406Y-80037861D01*
X90387483Y-80034091D01*
X90522331Y-79983796D01*
X90637546Y-79897546D01*
X90723796Y-79782331D01*
X90774091Y-79647483D01*
X90780500Y-79587873D01*
X90780499Y-77892128D01*
X90774091Y-77832517D01*
X90723796Y-77697669D01*
X90637546Y-77582454D01*
X90522331Y-77496204D01*
X90387483Y-77445909D01*
X90327873Y-77439500D01*
X90327869Y-77439500D01*
X87832130Y-77439500D01*
X87772515Y-77445909D01*
X87637669Y-77496204D01*
X87522454Y-77582454D01*
X87436204Y-77697668D01*
X87385909Y-77832515D01*
X87385909Y-77832517D01*
X87382539Y-77863866D01*
X87379500Y-77892130D01*
X87379500Y-79587869D01*
X87385909Y-79647484D01*
X87411056Y-79714907D01*
X87436204Y-79782331D01*
X87522454Y-79897546D01*
X87637669Y-79983796D01*
X87772517Y-80034091D01*
X87807594Y-80037862D01*
X87863513Y-80058239D01*
X87903497Y-80102327D01*
X87918332Y-80159968D01*
X87904600Y-80217881D01*
X87865464Y-80262724D01*
X87840860Y-80279952D01*
X87679953Y-80440859D01*
X87549432Y-80627264D01*
X87453261Y-80833502D01*
X87394364Y-81053310D01*
X87374531Y-81280000D01*
X56880500Y-81280000D01*
X56880500Y-79244000D01*
X60731128Y-79244000D01*
X60783733Y-79440326D01*
X60879865Y-79646480D01*
X61010341Y-79832819D01*
X61171180Y-79993658D01*
X61357519Y-80124134D01*
X61563673Y-80220266D01*
X61783397Y-80279141D01*
X61953235Y-80294000D01*
X62160000Y-80294000D01*
X62160000Y-79244000D01*
X62660000Y-79244000D01*
X62660000Y-80294000D01*
X62866765Y-80294000D01*
X63036602Y-80279141D01*
X63256326Y-80220266D01*
X63462480Y-80124134D01*
X63648819Y-79993658D01*
X63809658Y-79832819D01*
X63940134Y-79646480D01*
X64036266Y-79440326D01*
X64088872Y-79244000D01*
X62660000Y-79244000D01*
X62160000Y-79244000D01*
X60731128Y-79244000D01*
X56880500Y-79244000D01*
X56880500Y-76454000D01*
X60704531Y-76454000D01*
X60724364Y-76680689D01*
X60783261Y-76900497D01*
X60879432Y-77106735D01*
X61009953Y-77293140D01*
X61170859Y-77454046D01*
X61357264Y-77584567D01*
X61357265Y-77584567D01*
X61357266Y-77584568D01*
X61415865Y-77611893D01*
X61468040Y-77657650D01*
X61487460Y-77724274D01*
X61468041Y-77790899D01*
X61415866Y-77836656D01*
X61357522Y-77863863D01*
X61171180Y-77994341D01*
X61010341Y-78155180D01*
X60879865Y-78341519D01*
X60783733Y-78547673D01*
X60731128Y-78743999D01*
X60731128Y-78744000D01*
X64088872Y-78744000D01*
X64088871Y-78743999D01*
X64036266Y-78547673D01*
X63940134Y-78341519D01*
X63809658Y-78155180D01*
X63648819Y-77994341D01*
X63462482Y-77863866D01*
X63404133Y-77836657D01*
X63351958Y-77790899D01*
X63332539Y-77724274D01*
X63351959Y-77657649D01*
X63404134Y-77611893D01*
X63462734Y-77584568D01*
X63649139Y-77454047D01*
X63810047Y-77293139D01*
X63940568Y-77106734D01*
X64036739Y-76900496D01*
X64095635Y-76680692D01*
X64115468Y-76454000D01*
X64095635Y-76227308D01*
X64036739Y-76007504D01*
X63940568Y-75801266D01*
X63810047Y-75614861D01*
X63810046Y-75614859D01*
X63649140Y-75453953D01*
X63462732Y-75323430D01*
X63404724Y-75296380D01*
X63352549Y-75250623D01*
X63333130Y-75183997D01*
X63352550Y-75117373D01*
X63404721Y-75071619D01*
X63462734Y-75044568D01*
X63649139Y-74914047D01*
X63810047Y-74753139D01*
X63940568Y-74566734D01*
X64036739Y-74360496D01*
X64095635Y-74140692D01*
X64115468Y-73914000D01*
X64095635Y-73687308D01*
X64036739Y-73467504D01*
X63940568Y-73261266D01*
X63936494Y-73255448D01*
X63810046Y-73074859D01*
X63649140Y-72913953D01*
X63462733Y-72783431D01*
X63404725Y-72756382D01*
X63352549Y-72710625D01*
X63333129Y-72644000D01*
X63352549Y-72577375D01*
X63404725Y-72531618D01*
X63462734Y-72504568D01*
X63649139Y-72374047D01*
X63810047Y-72213139D01*
X63940568Y-72026734D01*
X64036739Y-71820496D01*
X64095635Y-71600692D01*
X64115468Y-71374000D01*
X64095635Y-71147308D01*
X64036739Y-70927504D01*
X63940568Y-70721266D01*
X63912685Y-70681445D01*
X63810046Y-70534859D01*
X63649140Y-70373953D01*
X63462733Y-70243431D01*
X63404725Y-70216382D01*
X63352549Y-70170625D01*
X63333129Y-70104000D01*
X63352549Y-70037375D01*
X63404725Y-69991618D01*
X63462734Y-69964568D01*
X63649139Y-69834047D01*
X63810047Y-69673139D01*
X63940568Y-69486734D01*
X64036739Y-69280496D01*
X64095635Y-69060692D01*
X64115468Y-68834000D01*
X64095635Y-68607308D01*
X64036739Y-68387504D01*
X63940568Y-68181266D01*
X63810047Y-67994861D01*
X63810046Y-67994859D01*
X63649140Y-67833953D01*
X63462733Y-67703431D01*
X63404725Y-67676382D01*
X63352549Y-67630625D01*
X63333129Y-67564000D01*
X63352549Y-67497375D01*
X63404725Y-67451618D01*
X63409415Y-67449431D01*
X63462734Y-67424568D01*
X63649139Y-67294047D01*
X63810047Y-67133139D01*
X63940568Y-66946734D01*
X64036739Y-66740496D01*
X64095635Y-66520692D01*
X64115468Y-66294000D01*
X64095635Y-66067308D01*
X64036739Y-65847504D01*
X63940568Y-65641266D01*
X63907243Y-65593673D01*
X63810046Y-65454859D01*
X63649140Y-65293953D01*
X63624537Y-65276726D01*
X63585399Y-65231884D01*
X63571666Y-65173970D01*
X63586500Y-65116328D01*
X63626485Y-65072239D01*
X63682406Y-65051861D01*
X63717483Y-65048091D01*
X63852331Y-64997796D01*
X63967546Y-64911546D01*
X64053796Y-64796331D01*
X64104091Y-64661483D01*
X64110500Y-64601873D01*
X64110499Y-62906128D01*
X64104091Y-62846517D01*
X64053796Y-62711669D01*
X63967546Y-62596454D01*
X63852331Y-62510204D01*
X63717483Y-62459909D01*
X63657873Y-62453500D01*
X63657869Y-62453500D01*
X61162130Y-62453500D01*
X61102515Y-62459909D01*
X60967669Y-62510204D01*
X60852454Y-62596454D01*
X60766204Y-62711668D01*
X60715909Y-62846516D01*
X60709500Y-62906130D01*
X60709500Y-64601869D01*
X60715523Y-64657893D01*
X60715909Y-64661483D01*
X60766204Y-64796331D01*
X60852454Y-64911546D01*
X60967669Y-64997796D01*
X61102517Y-65048091D01*
X61137594Y-65051862D01*
X61193513Y-65072239D01*
X61233497Y-65116327D01*
X61248332Y-65173968D01*
X61234600Y-65231881D01*
X61195464Y-65276724D01*
X61170860Y-65293952D01*
X61009953Y-65454859D01*
X60879432Y-65641264D01*
X60783261Y-65847502D01*
X60724364Y-66067310D01*
X60704531Y-66294000D01*
X60724364Y-66520689D01*
X60783261Y-66740497D01*
X60879432Y-66946735D01*
X61009953Y-67133140D01*
X61170859Y-67294046D01*
X61353748Y-67422105D01*
X61357266Y-67424568D01*
X61410585Y-67449431D01*
X61415275Y-67451618D01*
X61467450Y-67497375D01*
X61486869Y-67564000D01*
X61467450Y-67630625D01*
X61415275Y-67676382D01*
X61357263Y-67703433D01*
X61170859Y-67833953D01*
X61009953Y-67994859D01*
X60879432Y-68181264D01*
X60783261Y-68387502D01*
X60724364Y-68607310D01*
X60704531Y-68834000D01*
X60724364Y-69060689D01*
X60783261Y-69280497D01*
X60879432Y-69486735D01*
X61009953Y-69673140D01*
X61170859Y-69834046D01*
X61357263Y-69964566D01*
X61357266Y-69964568D01*
X61415275Y-69991618D01*
X61467450Y-70037375D01*
X61486869Y-70104000D01*
X61467450Y-70170625D01*
X61415275Y-70216382D01*
X61357263Y-70243433D01*
X61170859Y-70373953D01*
X61009953Y-70534859D01*
X60879432Y-70721264D01*
X60783261Y-70927502D01*
X60724364Y-71147310D01*
X60704531Y-71374000D01*
X60724364Y-71600689D01*
X60783261Y-71820497D01*
X60879432Y-72026735D01*
X61009953Y-72213140D01*
X61170859Y-72374046D01*
X61305411Y-72468259D01*
X61357266Y-72504568D01*
X61415275Y-72531618D01*
X61467450Y-72577375D01*
X61486869Y-72644000D01*
X61467450Y-72710625D01*
X61415275Y-72756382D01*
X61357263Y-72783433D01*
X61170859Y-72913953D01*
X61009953Y-73074859D01*
X60879432Y-73261264D01*
X60783261Y-73467502D01*
X60724364Y-73687310D01*
X60704531Y-73913999D01*
X60724364Y-74140689D01*
X60783261Y-74360497D01*
X60879432Y-74566735D01*
X61009953Y-74753140D01*
X61170859Y-74914046D01*
X61357262Y-75044565D01*
X61357266Y-75044568D01*
X61415273Y-75071617D01*
X61467449Y-75117373D01*
X61486869Y-75183997D01*
X61467451Y-75250622D01*
X61415276Y-75296380D01*
X61357266Y-75323431D01*
X61170859Y-75453953D01*
X61009953Y-75614859D01*
X60879432Y-75801264D01*
X60783261Y-76007502D01*
X60724364Y-76227310D01*
X60704531Y-76454000D01*
X56880500Y-76454000D01*
X56880500Y-60814500D01*
X56897113Y-60752500D01*
X56942500Y-60707113D01*
X57004500Y-60690500D01*
X65500217Y-60690500D01*
X65547670Y-60699939D01*
X65587898Y-60726819D01*
X66951647Y-62090568D01*
X68307019Y-63445939D01*
X68335860Y-63491209D01*
X68342866Y-63544427D01*
X68324531Y-63753999D01*
X68344364Y-63980689D01*
X68403261Y-64200497D01*
X68499432Y-64406735D01*
X68629953Y-64593140D01*
X68790859Y-64754046D01*
X68909187Y-64836899D01*
X68977266Y-64884568D01*
X69035275Y-64911618D01*
X69087450Y-64957375D01*
X69106869Y-65024000D01*
X69087450Y-65090625D01*
X69035275Y-65136382D01*
X68977263Y-65163433D01*
X68790859Y-65293953D01*
X68629953Y-65454859D01*
X68499432Y-65641264D01*
X68403261Y-65847502D01*
X68344364Y-66067310D01*
X68324531Y-66294000D01*
X68344364Y-66520689D01*
X68403261Y-66740497D01*
X68499432Y-66946735D01*
X68629953Y-67133140D01*
X68790859Y-67294046D01*
X68973748Y-67422105D01*
X68977266Y-67424568D01*
X69030585Y-67449431D01*
X69035275Y-67451618D01*
X69087450Y-67497375D01*
X69106869Y-67564000D01*
X69087450Y-67630625D01*
X69035275Y-67676382D01*
X68977263Y-67703433D01*
X68790859Y-67833953D01*
X68629953Y-67994859D01*
X68499432Y-68181264D01*
X68403261Y-68387502D01*
X68344364Y-68607310D01*
X68324531Y-68834000D01*
X68344364Y-69060689D01*
X68403261Y-69280497D01*
X68499432Y-69486735D01*
X68629953Y-69673140D01*
X68790859Y-69834046D01*
X68977263Y-69964566D01*
X68977266Y-69964568D01*
X69035275Y-69991618D01*
X69087450Y-70037375D01*
X69106869Y-70104000D01*
X69087450Y-70170625D01*
X69035275Y-70216382D01*
X68977263Y-70243433D01*
X68790859Y-70373953D01*
X68629953Y-70534859D01*
X68499432Y-70721264D01*
X68403261Y-70927502D01*
X68344364Y-71147310D01*
X68324531Y-71374000D01*
X68344364Y-71600689D01*
X68403261Y-71820497D01*
X68499432Y-72026735D01*
X68629953Y-72213140D01*
X68790859Y-72374046D01*
X68925411Y-72468259D01*
X68977266Y-72504568D01*
X69035275Y-72531618D01*
X69087450Y-72577375D01*
X69106869Y-72644000D01*
X69087450Y-72710625D01*
X69035275Y-72756382D01*
X68977263Y-72783433D01*
X68790859Y-72913953D01*
X68629953Y-73074859D01*
X68499432Y-73261264D01*
X68403261Y-73467502D01*
X68344364Y-73687310D01*
X68324531Y-73913999D01*
X68344364Y-74140689D01*
X68403261Y-74360497D01*
X68499432Y-74566735D01*
X68629953Y-74753140D01*
X68790859Y-74914046D01*
X68977262Y-75044565D01*
X68977266Y-75044568D01*
X69035273Y-75071617D01*
X69087449Y-75117373D01*
X69106869Y-75183997D01*
X69087451Y-75250622D01*
X69035276Y-75296380D01*
X68977266Y-75323431D01*
X68790859Y-75453953D01*
X68629953Y-75614859D01*
X68499432Y-75801264D01*
X68403261Y-76007502D01*
X68344364Y-76227310D01*
X68324531Y-76454000D01*
X68344364Y-76680689D01*
X68403261Y-76900497D01*
X68499432Y-77106735D01*
X68629953Y-77293140D01*
X68790859Y-77454046D01*
X68791315Y-77454365D01*
X68977266Y-77584568D01*
X69030587Y-77609432D01*
X69035275Y-77611618D01*
X69087450Y-77657375D01*
X69106869Y-77724000D01*
X69087450Y-77790625D01*
X69035275Y-77836382D01*
X68977263Y-77863433D01*
X68790859Y-77993953D01*
X68629953Y-78154859D01*
X68499432Y-78341264D01*
X68403261Y-78547502D01*
X68344364Y-78767310D01*
X68324531Y-78994000D01*
X68344364Y-79220689D01*
X68403261Y-79440497D01*
X68499432Y-79646735D01*
X68629953Y-79833140D01*
X68790859Y-79994046D01*
X68977264Y-80124567D01*
X68977265Y-80124567D01*
X68977266Y-80124568D01*
X69183504Y-80220739D01*
X69403308Y-80279635D01*
X69488262Y-80287067D01*
X69573214Y-80294500D01*
X69573216Y-80294500D01*
X70486784Y-80294500D01*
X70486786Y-80294500D01*
X70554747Y-80288554D01*
X70656692Y-80279635D01*
X70876496Y-80220739D01*
X71082734Y-80124568D01*
X71269139Y-79994047D01*
X71430047Y-79833139D01*
X71560568Y-79646734D01*
X71656739Y-79440496D01*
X71715635Y-79220692D01*
X71735468Y-78994000D01*
X71715635Y-78767308D01*
X71656739Y-78547504D01*
X71560568Y-78341266D01*
X71539939Y-78311805D01*
X71430046Y-78154859D01*
X71269140Y-77993953D01*
X71082733Y-77863431D01*
X71024725Y-77836382D01*
X70972549Y-77790625D01*
X70953129Y-77724000D01*
X70972549Y-77657375D01*
X71024725Y-77611618D01*
X71029413Y-77609432D01*
X71082734Y-77584568D01*
X71269139Y-77454047D01*
X71430047Y-77293139D01*
X71560568Y-77106734D01*
X71656739Y-76900496D01*
X71674289Y-76834999D01*
X78484731Y-76834999D01*
X78503777Y-77089154D01*
X78560492Y-77337637D01*
X78653608Y-77574891D01*
X78778162Y-77790625D01*
X78781041Y-77795612D01*
X78939950Y-77994877D01*
X79126783Y-78168232D01*
X79337366Y-78311805D01*
X79566996Y-78422389D01*
X79810542Y-78497513D01*
X80062565Y-78535500D01*
X80317435Y-78535500D01*
X80569458Y-78497513D01*
X80813004Y-78422389D01*
X81042634Y-78311805D01*
X81253217Y-78168232D01*
X81440050Y-77994877D01*
X81598959Y-77795612D01*
X81726393Y-77574888D01*
X81819508Y-77337637D01*
X81876222Y-77089157D01*
X81895268Y-76835000D01*
X81876222Y-76580843D01*
X81819508Y-76332363D01*
X81726393Y-76095112D01*
X81598959Y-75874388D01*
X81440050Y-75675123D01*
X81253217Y-75501768D01*
X81042634Y-75358195D01*
X80813004Y-75247611D01*
X80569458Y-75172487D01*
X80317435Y-75134500D01*
X80062565Y-75134500D01*
X79810542Y-75172487D01*
X79566996Y-75247611D01*
X79337366Y-75358195D01*
X79232074Y-75429981D01*
X79126781Y-75501769D01*
X78939950Y-75675123D01*
X78781038Y-75874392D01*
X78653608Y-76095108D01*
X78560492Y-76332362D01*
X78503777Y-76580845D01*
X78484731Y-76834999D01*
X71674289Y-76834999D01*
X71715635Y-76680692D01*
X71735468Y-76454000D01*
X71715635Y-76227308D01*
X71656739Y-76007504D01*
X71560568Y-75801266D01*
X71430047Y-75614861D01*
X71430046Y-75614859D01*
X71269140Y-75453953D01*
X71082732Y-75323430D01*
X71024724Y-75296380D01*
X70972549Y-75250623D01*
X70953130Y-75183997D01*
X70972550Y-75117373D01*
X71024721Y-75071619D01*
X71082734Y-75044568D01*
X71269139Y-74914047D01*
X71430047Y-74753139D01*
X71560568Y-74566734D01*
X71656739Y-74360496D01*
X71715635Y-74140692D01*
X71735468Y-73914000D01*
X71715635Y-73687308D01*
X71656739Y-73467504D01*
X71560568Y-73261266D01*
X71556494Y-73255448D01*
X71435655Y-73082869D01*
X78489500Y-73082869D01*
X78492052Y-73106604D01*
X78495909Y-73142483D01*
X78546204Y-73277331D01*
X78632454Y-73392546D01*
X78747669Y-73478796D01*
X78882517Y-73529091D01*
X78942127Y-73535500D01*
X81437872Y-73535499D01*
X81497483Y-73529091D01*
X81632331Y-73478796D01*
X81747546Y-73392546D01*
X81833796Y-73277331D01*
X81884091Y-73142483D01*
X81890500Y-73082873D01*
X81890499Y-70587128D01*
X81884091Y-70527517D01*
X81833796Y-70392669D01*
X81747546Y-70277454D01*
X81632331Y-70191204D01*
X81497483Y-70140909D01*
X81437873Y-70134500D01*
X81437869Y-70134500D01*
X78942130Y-70134500D01*
X78882515Y-70140909D01*
X78747669Y-70191204D01*
X78632454Y-70277454D01*
X78546204Y-70392668D01*
X78495909Y-70527516D01*
X78489500Y-70587130D01*
X78489500Y-73082869D01*
X71435655Y-73082869D01*
X71430046Y-73074859D01*
X71269140Y-72913953D01*
X71082733Y-72783431D01*
X71024725Y-72756382D01*
X70972549Y-72710625D01*
X70953129Y-72644000D01*
X70972549Y-72577375D01*
X71024725Y-72531618D01*
X71082734Y-72504568D01*
X71269139Y-72374047D01*
X71430047Y-72213139D01*
X71560568Y-72026734D01*
X71656739Y-71820496D01*
X71715635Y-71600692D01*
X71735468Y-71374000D01*
X71715635Y-71147308D01*
X71656739Y-70927504D01*
X71560568Y-70721266D01*
X71532685Y-70681445D01*
X71430046Y-70534859D01*
X71269140Y-70373953D01*
X71082733Y-70243431D01*
X71024725Y-70216382D01*
X70972549Y-70170625D01*
X70953129Y-70104000D01*
X70972549Y-70037375D01*
X71024725Y-69991618D01*
X71082734Y-69964568D01*
X71269139Y-69834047D01*
X71430047Y-69673139D01*
X71560568Y-69486734D01*
X71656739Y-69280496D01*
X71715635Y-69060692D01*
X71735468Y-68834000D01*
X71715635Y-68607308D01*
X71708318Y-68580000D01*
X87374531Y-68580000D01*
X87394364Y-68806689D01*
X87453261Y-69026497D01*
X87549432Y-69232735D01*
X87679953Y-69419140D01*
X87840859Y-69580046D01*
X88027264Y-69710567D01*
X88027265Y-69710567D01*
X88027266Y-69710568D01*
X88233504Y-69806739D01*
X88453308Y-69865635D01*
X88538262Y-69873067D01*
X88623214Y-69880500D01*
X88623216Y-69880500D01*
X89536784Y-69880500D01*
X89536786Y-69880500D01*
X89604747Y-69874554D01*
X89706692Y-69865635D01*
X89926496Y-69806739D01*
X90132734Y-69710568D01*
X90319139Y-69580047D01*
X90480047Y-69419139D01*
X90610568Y-69232734D01*
X90706739Y-69026496D01*
X90765635Y-68806692D01*
X90785468Y-68580000D01*
X90765635Y-68353308D01*
X90706739Y-68133504D01*
X90610568Y-67927266D01*
X90545230Y-67833953D01*
X90480046Y-67740859D01*
X90319140Y-67579953D01*
X90132736Y-67449433D01*
X90079413Y-67424568D01*
X90074132Y-67422105D01*
X90021958Y-67376348D01*
X90002539Y-67309723D01*
X90021959Y-67243098D01*
X90074135Y-67197342D01*
X90132479Y-67170135D01*
X90318819Y-67039658D01*
X90479658Y-66878819D01*
X90610134Y-66692480D01*
X90706266Y-66486326D01*
X90758872Y-66290000D01*
X87401128Y-66290000D01*
X87453733Y-66486326D01*
X87549865Y-66692480D01*
X87680341Y-66878819D01*
X87841180Y-67039658D01*
X88027519Y-67170134D01*
X88085865Y-67197342D01*
X88138040Y-67243099D01*
X88157460Y-67309723D01*
X88138041Y-67376348D01*
X88085866Y-67422105D01*
X88027267Y-67449430D01*
X87840859Y-67579953D01*
X87679953Y-67740859D01*
X87549432Y-67927264D01*
X87453261Y-68133502D01*
X87394364Y-68353310D01*
X87374531Y-68580000D01*
X71708318Y-68580000D01*
X71656739Y-68387504D01*
X71560568Y-68181266D01*
X71430047Y-67994861D01*
X71430046Y-67994859D01*
X71269140Y-67833953D01*
X71082733Y-67703431D01*
X71024725Y-67676382D01*
X70972549Y-67630625D01*
X70953129Y-67564000D01*
X70972549Y-67497375D01*
X71024725Y-67451618D01*
X71029415Y-67449431D01*
X71082734Y-67424568D01*
X71269139Y-67294047D01*
X71430047Y-67133139D01*
X71560568Y-66946734D01*
X71656739Y-66740496D01*
X71715635Y-66520692D01*
X71735468Y-66294000D01*
X71715635Y-66067308D01*
X71656739Y-65847504D01*
X71560568Y-65641266D01*
X71527243Y-65593673D01*
X71430046Y-65454859D01*
X71269140Y-65293953D01*
X71082733Y-65163431D01*
X71024725Y-65136382D01*
X70972549Y-65090625D01*
X70953129Y-65024000D01*
X70972549Y-64957375D01*
X71024725Y-64911618D01*
X71082734Y-64884568D01*
X71269139Y-64754047D01*
X71430047Y-64593139D01*
X71560568Y-64406734D01*
X71656739Y-64200496D01*
X71715635Y-63980692D01*
X71735468Y-63754000D01*
X71715635Y-63527308D01*
X71708318Y-63499999D01*
X87374531Y-63499999D01*
X87394364Y-63726689D01*
X87453261Y-63946497D01*
X87549432Y-64152735D01*
X87679953Y-64339140D01*
X87840859Y-64500046D01*
X88027264Y-64630567D01*
X88027265Y-64630567D01*
X88027266Y-64630568D01*
X88085865Y-64657893D01*
X88138040Y-64703650D01*
X88157460Y-64770274D01*
X88138041Y-64836899D01*
X88085866Y-64882656D01*
X88027522Y-64909863D01*
X87841180Y-65040341D01*
X87680341Y-65201180D01*
X87549865Y-65387519D01*
X87453733Y-65593673D01*
X87401128Y-65789999D01*
X87401128Y-65790000D01*
X90758872Y-65790000D01*
X90758871Y-65789999D01*
X90706266Y-65593673D01*
X90610134Y-65387519D01*
X90479658Y-65201180D01*
X90318819Y-65040341D01*
X90132482Y-64909866D01*
X90074133Y-64882657D01*
X90021958Y-64836899D01*
X90002539Y-64770274D01*
X90021959Y-64703649D01*
X90074134Y-64657893D01*
X90132734Y-64630568D01*
X90319139Y-64500047D01*
X90480047Y-64339139D01*
X90610568Y-64152734D01*
X90706739Y-63946496D01*
X90765635Y-63726692D01*
X90785468Y-63500000D01*
X90765635Y-63273308D01*
X90706739Y-63053504D01*
X90610568Y-62847266D01*
X90610042Y-62846515D01*
X90480046Y-62660859D01*
X90319140Y-62499953D01*
X90294537Y-62482726D01*
X90255399Y-62437884D01*
X90241666Y-62379970D01*
X90256500Y-62322328D01*
X90296485Y-62278239D01*
X90352406Y-62257861D01*
X90387483Y-62254091D01*
X90522331Y-62203796D01*
X90637546Y-62117546D01*
X90723796Y-62002331D01*
X90774091Y-61867483D01*
X90780500Y-61807873D01*
X90780499Y-60112128D01*
X90774091Y-60052517D01*
X90723796Y-59917669D01*
X90637546Y-59802454D01*
X90522331Y-59716204D01*
X90387483Y-59665909D01*
X90327873Y-59659500D01*
X90327869Y-59659500D01*
X87832130Y-59659500D01*
X87772515Y-59665909D01*
X87637669Y-59716204D01*
X87522454Y-59802454D01*
X87436204Y-59917668D01*
X87385909Y-60052516D01*
X87379500Y-60112130D01*
X87379500Y-61807869D01*
X87385909Y-61867483D01*
X87436204Y-62002331D01*
X87522454Y-62117546D01*
X87637669Y-62203796D01*
X87772517Y-62254091D01*
X87807594Y-62257862D01*
X87863513Y-62278239D01*
X87903497Y-62322327D01*
X87918332Y-62379968D01*
X87904600Y-62437881D01*
X87865464Y-62482724D01*
X87840860Y-62499952D01*
X87679953Y-62660859D01*
X87549432Y-62847264D01*
X87453261Y-63053502D01*
X87394364Y-63273310D01*
X87374531Y-63499999D01*
X71708318Y-63499999D01*
X71656739Y-63307504D01*
X71560568Y-63101266D01*
X71430047Y-62914861D01*
X71430046Y-62914859D01*
X71269140Y-62753953D01*
X71082735Y-62623432D01*
X70876497Y-62527261D01*
X70656689Y-62468364D01*
X70486786Y-62453500D01*
X70486784Y-62453500D01*
X70195783Y-62453500D01*
X70148330Y-62444061D01*
X70108102Y-62417181D01*
X67300920Y-59610000D01*
X78484731Y-59610000D01*
X78503777Y-59864154D01*
X78560492Y-60112637D01*
X78653608Y-60349891D01*
X78748069Y-60513502D01*
X78781041Y-60570612D01*
X78939950Y-60769877D01*
X79126783Y-60943232D01*
X79337366Y-61086805D01*
X79566996Y-61197389D01*
X79810542Y-61272513D01*
X80062565Y-61310500D01*
X80317435Y-61310500D01*
X80569458Y-61272513D01*
X80813004Y-61197389D01*
X81042634Y-61086805D01*
X81253217Y-60943232D01*
X81440050Y-60769877D01*
X81598959Y-60570612D01*
X81726393Y-60349888D01*
X81819508Y-60112637D01*
X81876222Y-59864157D01*
X81895268Y-59610000D01*
X81876222Y-59355843D01*
X81819508Y-59107363D01*
X81726393Y-58870112D01*
X81723205Y-58864591D01*
X81652359Y-58741880D01*
X81598959Y-58649388D01*
X81440050Y-58450123D01*
X81253217Y-58276768D01*
X81042634Y-58133195D01*
X80813004Y-58022611D01*
X80569458Y-57947487D01*
X80317435Y-57909500D01*
X80062565Y-57909500D01*
X79810542Y-57947487D01*
X79566996Y-58022611D01*
X79337366Y-58133195D01*
X79232074Y-58204981D01*
X79126781Y-58276769D01*
X78939950Y-58450123D01*
X78781038Y-58649392D01*
X78653608Y-58870108D01*
X78560492Y-59107362D01*
X78503777Y-59355845D01*
X78484731Y-59610000D01*
X67300920Y-59610000D01*
X66683567Y-58992647D01*
X66681412Y-58990438D01*
X66621059Y-58926947D01*
X66572640Y-58893246D01*
X66565118Y-58887575D01*
X66563456Y-58886220D01*
X66536931Y-58864591D01*
X66519405Y-58850300D01*
X66492440Y-58836215D01*
X66479019Y-58828084D01*
X66454049Y-58810705D01*
X66454048Y-58810704D01*
X66454046Y-58810703D01*
X66399845Y-58787443D01*
X66391336Y-58783402D01*
X66339053Y-58756092D01*
X66333126Y-58754396D01*
X66309798Y-58747721D01*
X66295020Y-58742459D01*
X66267058Y-58730460D01*
X66209272Y-58718583D01*
X66200128Y-58716338D01*
X66143421Y-58700113D01*
X66113075Y-58697802D01*
X66097534Y-58695622D01*
X66067742Y-58689500D01*
X66067741Y-58689500D01*
X66008758Y-58689500D01*
X65999344Y-58689142D01*
X65990198Y-58688445D01*
X65940524Y-58684663D01*
X65940523Y-58684663D01*
X65910349Y-58688506D01*
X65894683Y-58689500D01*
X55908500Y-58689500D01*
X55902221Y-58689341D01*
X55895819Y-58689016D01*
X55829063Y-58685631D01*
X55829061Y-58685631D01*
X55756676Y-58696719D01*
X55750448Y-58697513D01*
X55677561Y-58704926D01*
X55662189Y-58709749D01*
X55643856Y-58714003D01*
X55627930Y-58716443D01*
X55559246Y-58741880D01*
X55553305Y-58743911D01*
X55483408Y-58765842D01*
X55469322Y-58773660D01*
X55452220Y-58781518D01*
X55437113Y-58787113D01*
X55374957Y-58825854D01*
X55369547Y-58829039D01*
X55305499Y-58864589D01*
X55293283Y-58875077D01*
X55278110Y-58886220D01*
X55264429Y-58894748D01*
X55264427Y-58894749D01*
X55264428Y-58894749D01*
X55211337Y-58945214D01*
X55206680Y-58949422D01*
X55151102Y-58997136D01*
X55141244Y-59009871D01*
X55128631Y-59023833D01*
X55116948Y-59034939D01*
X55075112Y-59095046D01*
X55071395Y-59100107D01*
X55026550Y-59158042D01*
X55019452Y-59172513D01*
X55009907Y-59188729D01*
X55000706Y-59201949D01*
X54971819Y-59269261D01*
X54969197Y-59274966D01*
X54936938Y-59340731D01*
X54932901Y-59356322D01*
X54926814Y-59374131D01*
X54920460Y-59388937D01*
X54905716Y-59460687D01*
X54904296Y-59466806D01*
X54885936Y-59537714D01*
X54885120Y-59553808D01*
X54882742Y-59572475D01*
X54879500Y-59588256D01*
X54879500Y-59661499D01*
X54879341Y-59667780D01*
X54875630Y-59740935D01*
X54878070Y-59756856D01*
X54879500Y-59775635D01*
X54879500Y-96869217D01*
X54870061Y-96916670D01*
X54843181Y-96956898D01*
X40321897Y-111478181D01*
X40281669Y-111505061D01*
X40234216Y-111514500D01*
X36202130Y-111514500D01*
X36142515Y-111520909D01*
X36007669Y-111571204D01*
X35892454Y-111657454D01*
X35806204Y-111772668D01*
X35755909Y-111907516D01*
X35749500Y-111967130D01*
X35749500Y-115362869D01*
X29210500Y-115362869D01*
X29210500Y-81267098D01*
X35749500Y-81267098D01*
X35789559Y-81558553D01*
X35789560Y-81558555D01*
X35868933Y-81841841D01*
X35868934Y-81841844D01*
X35868935Y-81841846D01*
X35986139Y-82111680D01*
X36139000Y-82363048D01*
X36324665Y-82591260D01*
X36539674Y-82792066D01*
X36780020Y-82961720D01*
X36780024Y-82961722D01*
X37041236Y-83097072D01*
X37318446Y-83195592D01*
X37606489Y-83255448D01*
X37826538Y-83270500D01*
X41273461Y-83270500D01*
X41273462Y-83270500D01*
X41493511Y-83255448D01*
X41781554Y-83195592D01*
X42058764Y-83097072D01*
X42319976Y-82961722D01*
X42560326Y-82792065D01*
X42775335Y-82591260D01*
X42960999Y-82363049D01*
X43113859Y-82111682D01*
X43231067Y-81841841D01*
X43310440Y-81558555D01*
X43350500Y-81267098D01*
X43350500Y-80972902D01*
X43310440Y-80681445D01*
X43231067Y-80398159D01*
X43154003Y-80220738D01*
X43113860Y-80128319D01*
X42960999Y-79876951D01*
X42775334Y-79648739D01*
X42560325Y-79447933D01*
X42319979Y-79278279D01*
X42058760Y-79142926D01*
X41781553Y-79044407D01*
X41493515Y-78984552D01*
X41317471Y-78972510D01*
X41273462Y-78969500D01*
X37826538Y-78969500D01*
X37789863Y-78972008D01*
X37606484Y-78984552D01*
X37318446Y-79044407D01*
X37041239Y-79142926D01*
X36780020Y-79278279D01*
X36539674Y-79447933D01*
X36324665Y-79648739D01*
X36139000Y-79876951D01*
X35986139Y-80128319D01*
X35868935Y-80398153D01*
X35868933Y-80398156D01*
X35868933Y-80398159D01*
X35844566Y-80485124D01*
X35789559Y-80681446D01*
X35749500Y-80972902D01*
X35749500Y-81267098D01*
X29210500Y-81267098D01*
X29210500Y-71267098D01*
X35749500Y-71267098D01*
X35789559Y-71558553D01*
X35789560Y-71558555D01*
X35868933Y-71841841D01*
X35868934Y-71841844D01*
X35868935Y-71841846D01*
X35986139Y-72111680D01*
X36139000Y-72363048D01*
X36324665Y-72591260D01*
X36539674Y-72792066D01*
X36780020Y-72961720D01*
X36780024Y-72961722D01*
X37041236Y-73097072D01*
X37318446Y-73195592D01*
X37606489Y-73255448D01*
X37826538Y-73270500D01*
X41273461Y-73270500D01*
X41273462Y-73270500D01*
X41493511Y-73255448D01*
X41781554Y-73195592D01*
X42058764Y-73097072D01*
X42319976Y-72961722D01*
X42339271Y-72948102D01*
X42560325Y-72792066D01*
X42598533Y-72756382D01*
X42775335Y-72591260D01*
X42960999Y-72363049D01*
X43113859Y-72111682D01*
X43231067Y-71841841D01*
X43310440Y-71558555D01*
X43350500Y-71267098D01*
X43350500Y-70972902D01*
X43310440Y-70681445D01*
X43231067Y-70398159D01*
X43163860Y-70243432D01*
X43113860Y-70128319D01*
X42960999Y-69876951D01*
X42795185Y-69673139D01*
X42775335Y-69648740D01*
X42701782Y-69580046D01*
X42560325Y-69447933D01*
X42319979Y-69278279D01*
X42058760Y-69142926D01*
X41781553Y-69044407D01*
X41493515Y-68984552D01*
X41317471Y-68972510D01*
X41273462Y-68969500D01*
X37826538Y-68969500D01*
X37789863Y-68972008D01*
X37606484Y-68984552D01*
X37318446Y-69044407D01*
X37041239Y-69142926D01*
X36780020Y-69278279D01*
X36539674Y-69447933D01*
X36324665Y-69648739D01*
X36139000Y-69876951D01*
X35986139Y-70128319D01*
X35868935Y-70398153D01*
X35789559Y-70681446D01*
X35749500Y-70972902D01*
X35749500Y-71267098D01*
X29210500Y-71267098D01*
X29210500Y-62817869D01*
X35749500Y-62817869D01*
X35755909Y-62877484D01*
X35769849Y-62914859D01*
X35806204Y-63012331D01*
X35892454Y-63127546D01*
X36007669Y-63213796D01*
X36142517Y-63264091D01*
X36202127Y-63270500D01*
X42897872Y-63270499D01*
X42957483Y-63264091D01*
X43092331Y-63213796D01*
X43207546Y-63127546D01*
X43293796Y-63012331D01*
X43344091Y-62877483D01*
X43350500Y-62817873D01*
X43350499Y-59422128D01*
X43344091Y-59362517D01*
X43293796Y-59227669D01*
X43207546Y-59112454D01*
X43092331Y-59026204D01*
X42957483Y-58975909D01*
X42897873Y-58969500D01*
X42897869Y-58969500D01*
X36202130Y-58969500D01*
X36142515Y-58975909D01*
X36007669Y-59026204D01*
X35892454Y-59112454D01*
X35806204Y-59227668D01*
X35755909Y-59362515D01*
X35755909Y-59362517D01*
X35753069Y-59388937D01*
X35749500Y-59422130D01*
X35749500Y-62817869D01*
X29210500Y-62817869D01*
X29210500Y-55857869D01*
X78489500Y-55857869D01*
X78494635Y-55905635D01*
X78495909Y-55917483D01*
X78546204Y-56052331D01*
X78632454Y-56167546D01*
X78747669Y-56253796D01*
X78882517Y-56304091D01*
X78942127Y-56310500D01*
X81437872Y-56310499D01*
X81497483Y-56304091D01*
X81632331Y-56253796D01*
X81747546Y-56167546D01*
X81833796Y-56052331D01*
X81884091Y-55917483D01*
X81890500Y-55857873D01*
X81890500Y-54619999D01*
X87359531Y-54619999D01*
X87379364Y-54846689D01*
X87438261Y-55066497D01*
X87534432Y-55272735D01*
X87664953Y-55459140D01*
X87825859Y-55620046D01*
X88012264Y-55750567D01*
X88012265Y-55750567D01*
X88012266Y-55750568D01*
X88218504Y-55846739D01*
X88438308Y-55905635D01*
X88523261Y-55913067D01*
X88608214Y-55920500D01*
X88608216Y-55920500D01*
X89521784Y-55920500D01*
X89521786Y-55920500D01*
X89589747Y-55914554D01*
X89691692Y-55905635D01*
X89911496Y-55846739D01*
X90117734Y-55750568D01*
X90304139Y-55620047D01*
X90465047Y-55459139D01*
X90595568Y-55272734D01*
X90691739Y-55066496D01*
X90750635Y-54846692D01*
X90770468Y-54620000D01*
X90770468Y-54619999D01*
X94979531Y-54619999D01*
X94999364Y-54846689D01*
X95058261Y-55066497D01*
X95154432Y-55272735D01*
X95284953Y-55459140D01*
X95445859Y-55620046D01*
X95632264Y-55750567D01*
X95632265Y-55750567D01*
X95632266Y-55750568D01*
X95838504Y-55846739D01*
X96058308Y-55905635D01*
X96143261Y-55913067D01*
X96228214Y-55920500D01*
X96228216Y-55920500D01*
X97141784Y-55920500D01*
X97141786Y-55920500D01*
X97209747Y-55914554D01*
X97311692Y-55905635D01*
X97531496Y-55846739D01*
X97737734Y-55750568D01*
X97924139Y-55620047D01*
X98085047Y-55459139D01*
X98215568Y-55272734D01*
X98311739Y-55066496D01*
X98370635Y-54846692D01*
X98390468Y-54620000D01*
X98370635Y-54393308D01*
X98311739Y-54173504D01*
X98215568Y-53967266D01*
X98085047Y-53780861D01*
X98085046Y-53780859D01*
X97924140Y-53619953D01*
X97737733Y-53489431D01*
X97679725Y-53462382D01*
X97627549Y-53416625D01*
X97608129Y-53350000D01*
X97627549Y-53283375D01*
X97679725Y-53237618D01*
X97680317Y-53237342D01*
X97737734Y-53210568D01*
X97924139Y-53080047D01*
X98085047Y-52919139D01*
X98215568Y-52732734D01*
X98311739Y-52526496D01*
X98370635Y-52306692D01*
X98390468Y-52080000D01*
X98370635Y-51853308D01*
X98311739Y-51633504D01*
X98215568Y-51427266D01*
X98085270Y-51241180D01*
X98085046Y-51240859D01*
X97924140Y-51079953D01*
X97737733Y-50949431D01*
X97679725Y-50922382D01*
X97627549Y-50876625D01*
X97608129Y-50810000D01*
X97627549Y-50743375D01*
X97679725Y-50697618D01*
X97737734Y-50670568D01*
X97924139Y-50540047D01*
X98085047Y-50379139D01*
X98215568Y-50192734D01*
X98311739Y-49986496D01*
X98370635Y-49766692D01*
X98390468Y-49540000D01*
X98370635Y-49313308D01*
X98311739Y-49093504D01*
X98215568Y-48887266D01*
X98085047Y-48700861D01*
X98085046Y-48700859D01*
X97924140Y-48539953D01*
X97737736Y-48409433D01*
X97679723Y-48382381D01*
X97627548Y-48336623D01*
X97608129Y-48269997D01*
X97627549Y-48203372D01*
X97679721Y-48157619D01*
X97737734Y-48130568D01*
X97924139Y-48000047D01*
X98085047Y-47839139D01*
X98215568Y-47652734D01*
X98311739Y-47446496D01*
X98370635Y-47226692D01*
X98390468Y-47000000D01*
X98370635Y-46773308D01*
X98311739Y-46553504D01*
X98215568Y-46347266D01*
X98085047Y-46160861D01*
X98085046Y-46160859D01*
X97924140Y-45999953D01*
X97737735Y-45869432D01*
X97531497Y-45773261D01*
X97311689Y-45714364D01*
X97141786Y-45699500D01*
X97141784Y-45699500D01*
X96228216Y-45699500D01*
X96228214Y-45699500D01*
X96058310Y-45714364D01*
X95838502Y-45773261D01*
X95632264Y-45869432D01*
X95445859Y-45999953D01*
X95284953Y-46160859D01*
X95154432Y-46347264D01*
X95058261Y-46553502D01*
X94999364Y-46773310D01*
X94979531Y-46999999D01*
X94999364Y-47226689D01*
X95058261Y-47446497D01*
X95154432Y-47652735D01*
X95284953Y-47839140D01*
X95445859Y-48000046D01*
X95506249Y-48042331D01*
X95632266Y-48130568D01*
X95690275Y-48157618D01*
X95742450Y-48203375D01*
X95761869Y-48270000D01*
X95742450Y-48336625D01*
X95690275Y-48382382D01*
X95632263Y-48409433D01*
X95445859Y-48539953D01*
X95284953Y-48700859D01*
X95154432Y-48887264D01*
X95058261Y-49093502D01*
X94999364Y-49313310D01*
X94979531Y-49539999D01*
X94999364Y-49766689D01*
X95058261Y-49986497D01*
X95154432Y-50192735D01*
X95284953Y-50379140D01*
X95445859Y-50540046D01*
X95632265Y-50670567D01*
X95632266Y-50670568D01*
X95690273Y-50697617D01*
X95742449Y-50743373D01*
X95761869Y-50809997D01*
X95742451Y-50876622D01*
X95690276Y-50922380D01*
X95632266Y-50949431D01*
X95445859Y-51079953D01*
X95284953Y-51240859D01*
X95154432Y-51427264D01*
X95058261Y-51633502D01*
X94999364Y-51853310D01*
X94979531Y-52079999D01*
X94999364Y-52306689D01*
X95058261Y-52526497D01*
X95154432Y-52732735D01*
X95284953Y-52919140D01*
X95445859Y-53080046D01*
X95632263Y-53210566D01*
X95632266Y-53210568D01*
X95689683Y-53237342D01*
X95690275Y-53237618D01*
X95742450Y-53283375D01*
X95761869Y-53350000D01*
X95742450Y-53416625D01*
X95690275Y-53462382D01*
X95632263Y-53489433D01*
X95445859Y-53619953D01*
X95284953Y-53780859D01*
X95154432Y-53967264D01*
X95058261Y-54173502D01*
X94999364Y-54393310D01*
X94979531Y-54619999D01*
X90770468Y-54619999D01*
X90750635Y-54393308D01*
X90691739Y-54173504D01*
X90595568Y-53967266D01*
X90465047Y-53780861D01*
X90465046Y-53780859D01*
X90304140Y-53619953D01*
X90117736Y-53489433D01*
X90059725Y-53462382D01*
X90059132Y-53462105D01*
X90006958Y-53416348D01*
X89987539Y-53349723D01*
X90006959Y-53283098D01*
X90059135Y-53237342D01*
X90117479Y-53210135D01*
X90303819Y-53079658D01*
X90464658Y-52918819D01*
X90595134Y-52732480D01*
X90691266Y-52526326D01*
X90743872Y-52330000D01*
X87386128Y-52330000D01*
X87438733Y-52526326D01*
X87534865Y-52732480D01*
X87665341Y-52918819D01*
X87826180Y-53079658D01*
X88012519Y-53210134D01*
X88070865Y-53237342D01*
X88123040Y-53283099D01*
X88142460Y-53349723D01*
X88123041Y-53416348D01*
X88070866Y-53462105D01*
X88012267Y-53489430D01*
X87825859Y-53619953D01*
X87664953Y-53780859D01*
X87534432Y-53967264D01*
X87438261Y-54173502D01*
X87379364Y-54393310D01*
X87359531Y-54619999D01*
X81890500Y-54619999D01*
X81890499Y-53362128D01*
X81884091Y-53302517D01*
X81833796Y-53167669D01*
X81747546Y-53052454D01*
X81632331Y-52966204D01*
X81497483Y-52915909D01*
X81437873Y-52909500D01*
X81437869Y-52909500D01*
X78942130Y-52909500D01*
X78882515Y-52915909D01*
X78747669Y-52966204D01*
X78632454Y-53052454D01*
X78546204Y-53167668D01*
X78495909Y-53302516D01*
X78489500Y-53362130D01*
X78489500Y-55857869D01*
X29210500Y-55857869D01*
X29210500Y-49539999D01*
X87359531Y-49539999D01*
X87379364Y-49766689D01*
X87438261Y-49986497D01*
X87534432Y-50192735D01*
X87664953Y-50379140D01*
X87825859Y-50540046D01*
X88012264Y-50670567D01*
X88012265Y-50670567D01*
X88012266Y-50670568D01*
X88070865Y-50697893D01*
X88123040Y-50743650D01*
X88142460Y-50810274D01*
X88123041Y-50876899D01*
X88070866Y-50922656D01*
X88012522Y-50949863D01*
X87826180Y-51080341D01*
X87665341Y-51241180D01*
X87534865Y-51427519D01*
X87438733Y-51633673D01*
X87386128Y-51829999D01*
X87386128Y-51830000D01*
X90743872Y-51830000D01*
X90743871Y-51829999D01*
X90691266Y-51633673D01*
X90595134Y-51427519D01*
X90464658Y-51241180D01*
X90303819Y-51080341D01*
X90117482Y-50949866D01*
X90059133Y-50922657D01*
X90006958Y-50876899D01*
X89987539Y-50810274D01*
X90006959Y-50743649D01*
X90059134Y-50697893D01*
X90117734Y-50670568D01*
X90304139Y-50540047D01*
X90465047Y-50379139D01*
X90595568Y-50192734D01*
X90691739Y-49986496D01*
X90750635Y-49766692D01*
X90770468Y-49540000D01*
X90750635Y-49313308D01*
X90691739Y-49093504D01*
X90595568Y-48887266D01*
X90465047Y-48700861D01*
X90465046Y-48700859D01*
X90304140Y-48539953D01*
X90279537Y-48522726D01*
X90240399Y-48477884D01*
X90226666Y-48419970D01*
X90241500Y-48362328D01*
X90281485Y-48318239D01*
X90337406Y-48297861D01*
X90372483Y-48294091D01*
X90507331Y-48243796D01*
X90622546Y-48157546D01*
X90708796Y-48042331D01*
X90759091Y-47907483D01*
X90765500Y-47847873D01*
X90765499Y-46152128D01*
X90759091Y-46092517D01*
X90708796Y-45957669D01*
X90622546Y-45842454D01*
X90507331Y-45756204D01*
X90372483Y-45705909D01*
X90312873Y-45699500D01*
X90312869Y-45699500D01*
X87817130Y-45699500D01*
X87757515Y-45705909D01*
X87622669Y-45756204D01*
X87507454Y-45842454D01*
X87421204Y-45957668D01*
X87370909Y-46092516D01*
X87364500Y-46152130D01*
X87364500Y-47847869D01*
X87370909Y-47907483D01*
X87421204Y-48042331D01*
X87507454Y-48157546D01*
X87622669Y-48243796D01*
X87757517Y-48294091D01*
X87792594Y-48297862D01*
X87848513Y-48318239D01*
X87888497Y-48362327D01*
X87903332Y-48419968D01*
X87889600Y-48477881D01*
X87850464Y-48522724D01*
X87825860Y-48539952D01*
X87664953Y-48700859D01*
X87534432Y-48887264D01*
X87438261Y-49093502D01*
X87379364Y-49313310D01*
X87359531Y-49539999D01*
X29210500Y-49539999D01*
X29210500Y-44370000D01*
X78484731Y-44370000D01*
X78503777Y-44624154D01*
X78560492Y-44872637D01*
X78653608Y-45109891D01*
X78781038Y-45330607D01*
X78781041Y-45330612D01*
X78939950Y-45529877D01*
X79126783Y-45703232D01*
X79337366Y-45846805D01*
X79566996Y-45957389D01*
X79810542Y-46032513D01*
X80062565Y-46070500D01*
X80317435Y-46070500D01*
X80569458Y-46032513D01*
X80813004Y-45957389D01*
X81042634Y-45846805D01*
X81253217Y-45703232D01*
X81440050Y-45529877D01*
X81598959Y-45330612D01*
X81726393Y-45109888D01*
X81819508Y-44872637D01*
X81876222Y-44624157D01*
X81895268Y-44370000D01*
X81876222Y-44115843D01*
X81819508Y-43867363D01*
X81726393Y-43630112D01*
X81598959Y-43409388D01*
X81440050Y-43210123D01*
X81253217Y-43036768D01*
X81042634Y-42893195D01*
X80813004Y-42782611D01*
X80569458Y-42707487D01*
X80317435Y-42669500D01*
X80062565Y-42669500D01*
X79810542Y-42707487D01*
X79566996Y-42782611D01*
X79337366Y-42893195D01*
X79232074Y-42964981D01*
X79126781Y-43036769D01*
X78939950Y-43210123D01*
X78781038Y-43409392D01*
X78653608Y-43630108D01*
X78560492Y-43867362D01*
X78503777Y-44115845D01*
X78484731Y-44370000D01*
X29210500Y-44370000D01*
X29210500Y-40617869D01*
X78489500Y-40617869D01*
X78495909Y-40677483D01*
X78546204Y-40812331D01*
X78632454Y-40927546D01*
X78747669Y-41013796D01*
X78882517Y-41064091D01*
X78942127Y-41070500D01*
X81437872Y-41070499D01*
X81497483Y-41064091D01*
X81632331Y-41013796D01*
X81747546Y-40927546D01*
X81833796Y-40812331D01*
X81884091Y-40677483D01*
X81890500Y-40617873D01*
X81890499Y-38122128D01*
X81884091Y-38062517D01*
X81833796Y-37927669D01*
X81747546Y-37812454D01*
X81632331Y-37726204D01*
X81497483Y-37675909D01*
X81437873Y-37669500D01*
X81437869Y-37669500D01*
X78942130Y-37669500D01*
X78882515Y-37675909D01*
X78747669Y-37726204D01*
X78632454Y-37812454D01*
X78546204Y-37927668D01*
X78495909Y-38062515D01*
X78495909Y-38062517D01*
X78490855Y-38109529D01*
X78489500Y-38122130D01*
X78489500Y-40617869D01*
X29210500Y-40617869D01*
X29210500Y-16634500D01*
X29227113Y-16572500D01*
X29272500Y-16527113D01*
X29334500Y-16510500D01*
X123066000Y-16510500D01*
X123128000Y-16527113D01*
G37*
%TD.AperFunction*%
%TD*%
%TA.AperFunction,Conductor*%
%TO.N,+VDC*%
G36*
X208218000Y-20971613D02*
G01*
X208263387Y-21017000D01*
X208280000Y-21079000D01*
X208280000Y-35436000D01*
X208263387Y-35498000D01*
X208218000Y-35543387D01*
X208156000Y-35560000D01*
X137967336Y-35560000D01*
X137916097Y-35548918D01*
X137874016Y-35517655D01*
X137802568Y-35436000D01*
X133767480Y-30824471D01*
X133767474Y-30824466D01*
X133767472Y-30824463D01*
X133688512Y-30751571D01*
X133646436Y-30720312D01*
X133646433Y-30720310D01*
X133646430Y-30720308D01*
X133553850Y-30665756D01*
X133553849Y-30665755D01*
X133553848Y-30665755D01*
X133527810Y-30657141D01*
X133473438Y-30621071D01*
X133350000Y-30480000D01*
X127635000Y-30480000D01*
X127635000Y-69850000D01*
X135766000Y-69850000D01*
X135828000Y-69866613D01*
X135873387Y-69912000D01*
X135890000Y-69974000D01*
X135890000Y-74300500D01*
X135873387Y-74362500D01*
X135828000Y-74407887D01*
X135766000Y-74424500D01*
X127758999Y-74424500D01*
X127628169Y-74441724D01*
X127566161Y-74458339D01*
X127444250Y-74508836D01*
X127339557Y-74589170D01*
X127294170Y-74634557D01*
X127213836Y-74739250D01*
X127163339Y-74861161D01*
X127146724Y-74923169D01*
X127129500Y-75053999D01*
X127129500Y-100841001D01*
X127146724Y-100971830D01*
X127163339Y-101033838D01*
X127213836Y-101155749D01*
X127294170Y-101260442D01*
X127339557Y-101305829D01*
X127444250Y-101386163D01*
X127558452Y-101433467D01*
X127598681Y-101460347D01*
X127625561Y-101500575D01*
X127635000Y-101548028D01*
X127635000Y-110490000D01*
X134496000Y-110490000D01*
X134558000Y-110506613D01*
X134603387Y-110552000D01*
X134620000Y-110614000D01*
X134620000Y-115446000D01*
X134603387Y-115508000D01*
X134558000Y-115553387D01*
X134496000Y-115570000D01*
X120773130Y-115570000D01*
X120711382Y-115553532D01*
X120666035Y-115508503D01*
X120649133Y-115446873D01*
X120363318Y-74861161D01*
X120015879Y-25524871D01*
X120032199Y-25462505D01*
X120077624Y-25416759D01*
X120139876Y-25400000D01*
X137159999Y-25400000D01*
X137160000Y-25400000D01*
X140932883Y-20998302D01*
X140975218Y-20966344D01*
X141027032Y-20955000D01*
X208156000Y-20955000D01*
X208218000Y-20971613D01*
G37*
%TD.AperFunction*%
%TD*%
%TA.AperFunction,Conductor*%
%TO.N,Net-(D4-A1)*%
G36*
X133344971Y-31126082D02*
G01*
X133387052Y-31157345D01*
X137795001Y-36195001D01*
X154387830Y-39956041D01*
X164972912Y-42355326D01*
X165022716Y-42379234D01*
X165057193Y-42422401D01*
X165069500Y-42476258D01*
X165069500Y-44107869D01*
X165075909Y-44167483D01*
X165126204Y-44302331D01*
X165212454Y-44417546D01*
X165327669Y-44503796D01*
X165462517Y-44554091D01*
X165522127Y-44560500D01*
X170117872Y-44560499D01*
X170177483Y-44554091D01*
X170312331Y-44503796D01*
X170427546Y-44417546D01*
X170513796Y-44302331D01*
X170564091Y-44167483D01*
X170570500Y-44107873D01*
X170570499Y-43779360D01*
X170582759Y-43725605D01*
X170617113Y-43682475D01*
X170666770Y-43658504D01*
X170721905Y-43658432D01*
X185388946Y-46982961D01*
X185443819Y-47011130D01*
X194968564Y-55460500D01*
X224748288Y-81877997D01*
X224779092Y-81919904D01*
X224790000Y-81970758D01*
X224790000Y-90681000D01*
X224773387Y-90743000D01*
X224728000Y-90788387D01*
X224666000Y-90805000D01*
X219741426Y-90805000D01*
X219682367Y-90790032D01*
X151469106Y-53841182D01*
X165069500Y-53841182D01*
X165108604Y-54100615D01*
X165185937Y-54351323D01*
X165299772Y-54587704D01*
X165435766Y-54787170D01*
X165447571Y-54804485D01*
X165626015Y-54996801D01*
X165626019Y-54996805D01*
X165831143Y-55160386D01*
X166058357Y-55291568D01*
X166302584Y-55387420D01*
X166558370Y-55445802D01*
X166614408Y-55450001D01*
X166754501Y-55460500D01*
X166754506Y-55460500D01*
X168885494Y-55460500D01*
X168885499Y-55460500D01*
X169008078Y-55451313D01*
X169081630Y-55445802D01*
X169337416Y-55387420D01*
X169581643Y-55291568D01*
X169808857Y-55160386D01*
X170013981Y-54996805D01*
X170113273Y-54889792D01*
X170192428Y-54804485D01*
X170192429Y-54804482D01*
X170192433Y-54804479D01*
X170340228Y-54587704D01*
X170454063Y-54351323D01*
X170531396Y-54100615D01*
X170570500Y-53841182D01*
X170570500Y-53578818D01*
X170531396Y-53319385D01*
X170454063Y-53068677D01*
X170340228Y-52832296D01*
X170192433Y-52615521D01*
X170192432Y-52615520D01*
X170192428Y-52615514D01*
X170013984Y-52423198D01*
X170013983Y-52423197D01*
X170013981Y-52423195D01*
X169808857Y-52259614D01*
X169808856Y-52259613D01*
X169581641Y-52128431D01*
X169337418Y-52032580D01*
X169081627Y-51974197D01*
X168885499Y-51959500D01*
X168885494Y-51959500D01*
X166754506Y-51959500D01*
X166754501Y-51959500D01*
X166558372Y-51974197D01*
X166302581Y-52032580D01*
X166058358Y-52128431D01*
X165831143Y-52259613D01*
X165626015Y-52423198D01*
X165447571Y-52615514D01*
X165347070Y-52762922D01*
X165299772Y-52832296D01*
X165185937Y-53068677D01*
X165108604Y-53319385D01*
X165069500Y-53578818D01*
X165069500Y-53841182D01*
X151469106Y-53841182D01*
X128334941Y-41310176D01*
X128287465Y-41264597D01*
X128270000Y-41201144D01*
X128270000Y-31239000D01*
X128286613Y-31177000D01*
X128332000Y-31131613D01*
X128394000Y-31115000D01*
X133293732Y-31115000D01*
X133344971Y-31126082D01*
G37*
%TD.AperFunction*%
%TD*%
%TA.AperFunction,Conductor*%
%TO.N,Net-(D6-A1)*%
G36*
X135902751Y-74932710D02*
G01*
X216535000Y-92075000D01*
X224666365Y-92700489D01*
X224726908Y-92721808D01*
X224768680Y-92770543D01*
X224780489Y-92833634D01*
X224407731Y-97679500D01*
X224164539Y-100841000D01*
X224163807Y-100850510D01*
X224144247Y-100908413D01*
X224099404Y-100949938D01*
X224040172Y-100965000D01*
X170057126Y-100965000D01*
X169998366Y-100950194D01*
X169953639Y-100909311D01*
X169933625Y-100852116D01*
X169943104Y-100792265D01*
X169979813Y-100744053D01*
X170013981Y-100716805D01*
X170113273Y-100609792D01*
X170192428Y-100524485D01*
X170192429Y-100524482D01*
X170192433Y-100524479D01*
X170340228Y-100307704D01*
X170454063Y-100071323D01*
X170531396Y-99820615D01*
X170570500Y-99561182D01*
X170570500Y-99298818D01*
X170531396Y-99039385D01*
X170454063Y-98788677D01*
X170340228Y-98552296D01*
X170192433Y-98335521D01*
X170192432Y-98335520D01*
X170192428Y-98335514D01*
X170013984Y-98143198D01*
X170013983Y-98143197D01*
X170013981Y-98143195D01*
X169808857Y-97979614D01*
X169808856Y-97979613D01*
X169581641Y-97848431D01*
X169337418Y-97752580D01*
X169081627Y-97694197D01*
X168885499Y-97679500D01*
X168885494Y-97679500D01*
X166754506Y-97679500D01*
X166754501Y-97679500D01*
X166558372Y-97694197D01*
X166302581Y-97752580D01*
X166058358Y-97848431D01*
X165831143Y-97979613D01*
X165626015Y-98143198D01*
X165447571Y-98335514D01*
X165347070Y-98482922D01*
X165299772Y-98552296D01*
X165185937Y-98788677D01*
X165108604Y-99039385D01*
X165069500Y-99298818D01*
X165069500Y-99561182D01*
X165108604Y-99820615D01*
X165185937Y-100071323D01*
X165299772Y-100307704D01*
X165435766Y-100507170D01*
X165447571Y-100524485D01*
X165626015Y-100716801D01*
X165626019Y-100716805D01*
X165660187Y-100744053D01*
X165696896Y-100792265D01*
X165706375Y-100852116D01*
X165686361Y-100909311D01*
X165641634Y-100950194D01*
X165582874Y-100965000D01*
X127759000Y-100965000D01*
X127697000Y-100948387D01*
X127651613Y-100903000D01*
X127635000Y-100841000D01*
X127635000Y-89827869D01*
X165069500Y-89827869D01*
X165075909Y-89887483D01*
X165126204Y-90022331D01*
X165212454Y-90137546D01*
X165327669Y-90223796D01*
X165462517Y-90274091D01*
X165522127Y-90280500D01*
X170117872Y-90280499D01*
X170177483Y-90274091D01*
X170312331Y-90223796D01*
X170427546Y-90137546D01*
X170513796Y-90022331D01*
X170564091Y-89887483D01*
X170570500Y-89827873D01*
X170570499Y-87232128D01*
X170564091Y-87172517D01*
X170513796Y-87037669D01*
X170427546Y-86922454D01*
X170312331Y-86836204D01*
X170177483Y-86785909D01*
X170117873Y-86779500D01*
X170117869Y-86779500D01*
X165522130Y-86779500D01*
X165462515Y-86785909D01*
X165327669Y-86836204D01*
X165212454Y-86922454D01*
X165126204Y-87037668D01*
X165075909Y-87172516D01*
X165069500Y-87232130D01*
X165069500Y-89827869D01*
X127635000Y-89827869D01*
X127635000Y-75054000D01*
X127651613Y-74992000D01*
X127697000Y-74946613D01*
X127759000Y-74930000D01*
X135876966Y-74930000D01*
X135902751Y-74932710D01*
G37*
%TD.AperFunction*%
%TD*%
%TA.AperFunction,Conductor*%
%TO.N,Net-(D8-A1)*%
G36*
X225998000Y-102886613D02*
G01*
X226043387Y-102932000D01*
X226060000Y-102994000D01*
X226060000Y-111066438D01*
X226048125Y-111119391D01*
X226014774Y-111162202D01*
X186724326Y-143481764D01*
X186687393Y-143502728D01*
X186645552Y-143510000D01*
X123949000Y-143510000D01*
X123887000Y-143493387D01*
X123841613Y-143448000D01*
X123825000Y-143386000D01*
X123825000Y-141471182D01*
X165069500Y-141471182D01*
X165108604Y-141730615D01*
X165185937Y-141981323D01*
X165299772Y-142217704D01*
X165435766Y-142417170D01*
X165447571Y-142434485D01*
X165626015Y-142626801D01*
X165626019Y-142626805D01*
X165831143Y-142790386D01*
X166058357Y-142921568D01*
X166302584Y-143017420D01*
X166558370Y-143075802D01*
X166614408Y-143080001D01*
X166754501Y-143090500D01*
X166754506Y-143090500D01*
X168885494Y-143090500D01*
X168885499Y-143090500D01*
X169008078Y-143081313D01*
X169081630Y-143075802D01*
X169337416Y-143017420D01*
X169581643Y-142921568D01*
X169808857Y-142790386D01*
X170013981Y-142626805D01*
X170113273Y-142519792D01*
X170192428Y-142434485D01*
X170192429Y-142434482D01*
X170192433Y-142434479D01*
X170340228Y-142217704D01*
X170454063Y-141981323D01*
X170531396Y-141730615D01*
X170570500Y-141471182D01*
X170570500Y-141208818D01*
X170531396Y-140949385D01*
X170454063Y-140698677D01*
X170340228Y-140462296D01*
X170192433Y-140245521D01*
X170192432Y-140245520D01*
X170192428Y-140245514D01*
X170013984Y-140053198D01*
X170013983Y-140053197D01*
X170013981Y-140053195D01*
X169808857Y-139889614D01*
X169808856Y-139889613D01*
X169581641Y-139758431D01*
X169337418Y-139662580D01*
X169081627Y-139604197D01*
X168885499Y-139589500D01*
X168885494Y-139589500D01*
X166754506Y-139589500D01*
X166754501Y-139589500D01*
X166558372Y-139604197D01*
X166302581Y-139662580D01*
X166058358Y-139758431D01*
X165831143Y-139889613D01*
X165626015Y-140053198D01*
X165447571Y-140245514D01*
X165347070Y-140392922D01*
X165299772Y-140462296D01*
X165185937Y-140698677D01*
X165108604Y-140949385D01*
X165069500Y-141208818D01*
X165069500Y-141471182D01*
X123825000Y-141471182D01*
X123825000Y-131737869D01*
X165069500Y-131737869D01*
X165075909Y-131797483D01*
X165126204Y-131932331D01*
X165212454Y-132047546D01*
X165327669Y-132133796D01*
X165462517Y-132184091D01*
X165522127Y-132190500D01*
X170117872Y-132190499D01*
X170177483Y-132184091D01*
X170312331Y-132133796D01*
X170427546Y-132047546D01*
X170513796Y-131932331D01*
X170564091Y-131797483D01*
X170570500Y-131737873D01*
X170570499Y-129142128D01*
X170564091Y-129082517D01*
X170513796Y-128947669D01*
X170427546Y-128832454D01*
X170312331Y-128746204D01*
X170177483Y-128695909D01*
X170117873Y-128689500D01*
X170117869Y-128689500D01*
X165522130Y-128689500D01*
X165462515Y-128695909D01*
X165327669Y-128746204D01*
X165212454Y-128832454D01*
X165126204Y-128947668D01*
X165075909Y-129082516D01*
X165069500Y-129142130D01*
X165069500Y-131737869D01*
X123825000Y-131737869D01*
X123825000Y-116329000D01*
X123841613Y-116267000D01*
X123887000Y-116221613D01*
X123949000Y-116205000D01*
X168910000Y-116205000D01*
X215248200Y-102874833D01*
X215282481Y-102870000D01*
X225936000Y-102870000D01*
X225998000Y-102886613D01*
G37*
%TD.AperFunction*%
%TD*%
M02*
