%TF.GenerationSoftware,KiCad,Pcbnew,7.0.1*%
%TF.CreationDate,2023-04-13T18:21:32+09:00*%
%TF.ProjectId,motor_driver,6d6f746f-725f-4647-9269-7665722e6b69,rev?*%
%TF.SameCoordinates,Original*%
%TF.FileFunction,Legend,Top*%
%TF.FilePolarity,Positive*%
%FSLAX46Y46*%
G04 Gerber Fmt 4.6, Leading zero omitted, Abs format (unit mm)*
G04 Created by KiCad (PCBNEW 7.0.1) date 2023-04-13 18:21:32*
%MOMM*%
%LPD*%
G01*
G04 APERTURE LIST*
%ADD10C,0.150000*%
%ADD11C,0.120000*%
G04 APERTURE END LIST*
D10*
%TO.C,U8*%
X92128095Y-106352619D02*
X92128095Y-107162142D01*
X92128095Y-107162142D02*
X92175714Y-107257380D01*
X92175714Y-107257380D02*
X92223333Y-107305000D01*
X92223333Y-107305000D02*
X92318571Y-107352619D01*
X92318571Y-107352619D02*
X92509047Y-107352619D01*
X92509047Y-107352619D02*
X92604285Y-107305000D01*
X92604285Y-107305000D02*
X92651904Y-107257380D01*
X92651904Y-107257380D02*
X92699523Y-107162142D01*
X92699523Y-107162142D02*
X92699523Y-106352619D01*
X93318571Y-106781190D02*
X93223333Y-106733571D01*
X93223333Y-106733571D02*
X93175714Y-106685952D01*
X93175714Y-106685952D02*
X93128095Y-106590714D01*
X93128095Y-106590714D02*
X93128095Y-106543095D01*
X93128095Y-106543095D02*
X93175714Y-106447857D01*
X93175714Y-106447857D02*
X93223333Y-106400238D01*
X93223333Y-106400238D02*
X93318571Y-106352619D01*
X93318571Y-106352619D02*
X93509047Y-106352619D01*
X93509047Y-106352619D02*
X93604285Y-106400238D01*
X93604285Y-106400238D02*
X93651904Y-106447857D01*
X93651904Y-106447857D02*
X93699523Y-106543095D01*
X93699523Y-106543095D02*
X93699523Y-106590714D01*
X93699523Y-106590714D02*
X93651904Y-106685952D01*
X93651904Y-106685952D02*
X93604285Y-106733571D01*
X93604285Y-106733571D02*
X93509047Y-106781190D01*
X93509047Y-106781190D02*
X93318571Y-106781190D01*
X93318571Y-106781190D02*
X93223333Y-106828809D01*
X93223333Y-106828809D02*
X93175714Y-106876428D01*
X93175714Y-106876428D02*
X93128095Y-106971666D01*
X93128095Y-106971666D02*
X93128095Y-107162142D01*
X93128095Y-107162142D02*
X93175714Y-107257380D01*
X93175714Y-107257380D02*
X93223333Y-107305000D01*
X93223333Y-107305000D02*
X93318571Y-107352619D01*
X93318571Y-107352619D02*
X93509047Y-107352619D01*
X93509047Y-107352619D02*
X93604285Y-107305000D01*
X93604285Y-107305000D02*
X93651904Y-107257380D01*
X93651904Y-107257380D02*
X93699523Y-107162142D01*
X93699523Y-107162142D02*
X93699523Y-106971666D01*
X93699523Y-106971666D02*
X93651904Y-106876428D01*
X93651904Y-106876428D02*
X93604285Y-106828809D01*
X93604285Y-106828809D02*
X93509047Y-106781190D01*
%TO.C,U9*%
X92128095Y-120322619D02*
X92128095Y-121132142D01*
X92128095Y-121132142D02*
X92175714Y-121227380D01*
X92175714Y-121227380D02*
X92223333Y-121275000D01*
X92223333Y-121275000D02*
X92318571Y-121322619D01*
X92318571Y-121322619D02*
X92509047Y-121322619D01*
X92509047Y-121322619D02*
X92604285Y-121275000D01*
X92604285Y-121275000D02*
X92651904Y-121227380D01*
X92651904Y-121227380D02*
X92699523Y-121132142D01*
X92699523Y-121132142D02*
X92699523Y-120322619D01*
X93223333Y-121322619D02*
X93413809Y-121322619D01*
X93413809Y-121322619D02*
X93509047Y-121275000D01*
X93509047Y-121275000D02*
X93556666Y-121227380D01*
X93556666Y-121227380D02*
X93651904Y-121084523D01*
X93651904Y-121084523D02*
X93699523Y-120894047D01*
X93699523Y-120894047D02*
X93699523Y-120513095D01*
X93699523Y-120513095D02*
X93651904Y-120417857D01*
X93651904Y-120417857D02*
X93604285Y-120370238D01*
X93604285Y-120370238D02*
X93509047Y-120322619D01*
X93509047Y-120322619D02*
X93318571Y-120322619D01*
X93318571Y-120322619D02*
X93223333Y-120370238D01*
X93223333Y-120370238D02*
X93175714Y-120417857D01*
X93175714Y-120417857D02*
X93128095Y-120513095D01*
X93128095Y-120513095D02*
X93128095Y-120751190D01*
X93128095Y-120751190D02*
X93175714Y-120846428D01*
X93175714Y-120846428D02*
X93223333Y-120894047D01*
X93223333Y-120894047D02*
X93318571Y-120941666D01*
X93318571Y-120941666D02*
X93509047Y-120941666D01*
X93509047Y-120941666D02*
X93604285Y-120894047D01*
X93604285Y-120894047D02*
X93651904Y-120846428D01*
X93651904Y-120846428D02*
X93699523Y-120751190D01*
%TO.C,C8*%
X88057380Y-89877666D02*
X88105000Y-89925285D01*
X88105000Y-89925285D02*
X88152619Y-90068142D01*
X88152619Y-90068142D02*
X88152619Y-90163380D01*
X88152619Y-90163380D02*
X88105000Y-90306237D01*
X88105000Y-90306237D02*
X88009761Y-90401475D01*
X88009761Y-90401475D02*
X87914523Y-90449094D01*
X87914523Y-90449094D02*
X87724047Y-90496713D01*
X87724047Y-90496713D02*
X87581190Y-90496713D01*
X87581190Y-90496713D02*
X87390714Y-90449094D01*
X87390714Y-90449094D02*
X87295476Y-90401475D01*
X87295476Y-90401475D02*
X87200238Y-90306237D01*
X87200238Y-90306237D02*
X87152619Y-90163380D01*
X87152619Y-90163380D02*
X87152619Y-90068142D01*
X87152619Y-90068142D02*
X87200238Y-89925285D01*
X87200238Y-89925285D02*
X87247857Y-89877666D01*
X87581190Y-89306237D02*
X87533571Y-89401475D01*
X87533571Y-89401475D02*
X87485952Y-89449094D01*
X87485952Y-89449094D02*
X87390714Y-89496713D01*
X87390714Y-89496713D02*
X87343095Y-89496713D01*
X87343095Y-89496713D02*
X87247857Y-89449094D01*
X87247857Y-89449094D02*
X87200238Y-89401475D01*
X87200238Y-89401475D02*
X87152619Y-89306237D01*
X87152619Y-89306237D02*
X87152619Y-89115761D01*
X87152619Y-89115761D02*
X87200238Y-89020523D01*
X87200238Y-89020523D02*
X87247857Y-88972904D01*
X87247857Y-88972904D02*
X87343095Y-88925285D01*
X87343095Y-88925285D02*
X87390714Y-88925285D01*
X87390714Y-88925285D02*
X87485952Y-88972904D01*
X87485952Y-88972904D02*
X87533571Y-89020523D01*
X87533571Y-89020523D02*
X87581190Y-89115761D01*
X87581190Y-89115761D02*
X87581190Y-89306237D01*
X87581190Y-89306237D02*
X87628809Y-89401475D01*
X87628809Y-89401475D02*
X87676428Y-89449094D01*
X87676428Y-89449094D02*
X87771666Y-89496713D01*
X87771666Y-89496713D02*
X87962142Y-89496713D01*
X87962142Y-89496713D02*
X88057380Y-89449094D01*
X88057380Y-89449094D02*
X88105000Y-89401475D01*
X88105000Y-89401475D02*
X88152619Y-89306237D01*
X88152619Y-89306237D02*
X88152619Y-89115761D01*
X88152619Y-89115761D02*
X88105000Y-89020523D01*
X88105000Y-89020523D02*
X88057380Y-88972904D01*
X88057380Y-88972904D02*
X87962142Y-88925285D01*
X87962142Y-88925285D02*
X87771666Y-88925285D01*
X87771666Y-88925285D02*
X87676428Y-88972904D01*
X87676428Y-88972904D02*
X87628809Y-89020523D01*
X87628809Y-89020523D02*
X87581190Y-89115761D01*
%TO.C,Q2*%
X171827857Y-48355238D02*
X171780238Y-48450476D01*
X171780238Y-48450476D02*
X171685000Y-48545714D01*
X171685000Y-48545714D02*
X171542142Y-48688571D01*
X171542142Y-48688571D02*
X171494523Y-48783809D01*
X171494523Y-48783809D02*
X171494523Y-48879047D01*
X171732619Y-48831428D02*
X171685000Y-48926666D01*
X171685000Y-48926666D02*
X171589761Y-49021904D01*
X171589761Y-49021904D02*
X171399285Y-49069523D01*
X171399285Y-49069523D02*
X171065952Y-49069523D01*
X171065952Y-49069523D02*
X170875476Y-49021904D01*
X170875476Y-49021904D02*
X170780238Y-48926666D01*
X170780238Y-48926666D02*
X170732619Y-48831428D01*
X170732619Y-48831428D02*
X170732619Y-48640952D01*
X170732619Y-48640952D02*
X170780238Y-48545714D01*
X170780238Y-48545714D02*
X170875476Y-48450476D01*
X170875476Y-48450476D02*
X171065952Y-48402857D01*
X171065952Y-48402857D02*
X171399285Y-48402857D01*
X171399285Y-48402857D02*
X171589761Y-48450476D01*
X171589761Y-48450476D02*
X171685000Y-48545714D01*
X171685000Y-48545714D02*
X171732619Y-48640952D01*
X171732619Y-48640952D02*
X171732619Y-48831428D01*
X170827857Y-48021904D02*
X170780238Y-47974285D01*
X170780238Y-47974285D02*
X170732619Y-47879047D01*
X170732619Y-47879047D02*
X170732619Y-47640952D01*
X170732619Y-47640952D02*
X170780238Y-47545714D01*
X170780238Y-47545714D02*
X170827857Y-47498095D01*
X170827857Y-47498095D02*
X170923095Y-47450476D01*
X170923095Y-47450476D02*
X171018333Y-47450476D01*
X171018333Y-47450476D02*
X171161190Y-47498095D01*
X171161190Y-47498095D02*
X171732619Y-48069523D01*
X171732619Y-48069523D02*
X171732619Y-47450476D01*
%TO.C,Q6*%
X171827857Y-135985238D02*
X171780238Y-136080476D01*
X171780238Y-136080476D02*
X171685000Y-136175714D01*
X171685000Y-136175714D02*
X171542142Y-136318571D01*
X171542142Y-136318571D02*
X171494523Y-136413809D01*
X171494523Y-136413809D02*
X171494523Y-136509047D01*
X171732619Y-136461428D02*
X171685000Y-136556666D01*
X171685000Y-136556666D02*
X171589761Y-136651904D01*
X171589761Y-136651904D02*
X171399285Y-136699523D01*
X171399285Y-136699523D02*
X171065952Y-136699523D01*
X171065952Y-136699523D02*
X170875476Y-136651904D01*
X170875476Y-136651904D02*
X170780238Y-136556666D01*
X170780238Y-136556666D02*
X170732619Y-136461428D01*
X170732619Y-136461428D02*
X170732619Y-136270952D01*
X170732619Y-136270952D02*
X170780238Y-136175714D01*
X170780238Y-136175714D02*
X170875476Y-136080476D01*
X170875476Y-136080476D02*
X171065952Y-136032857D01*
X171065952Y-136032857D02*
X171399285Y-136032857D01*
X171399285Y-136032857D02*
X171589761Y-136080476D01*
X171589761Y-136080476D02*
X171685000Y-136175714D01*
X171685000Y-136175714D02*
X171732619Y-136270952D01*
X171732619Y-136270952D02*
X171732619Y-136461428D01*
X170732619Y-135175714D02*
X170732619Y-135366190D01*
X170732619Y-135366190D02*
X170780238Y-135461428D01*
X170780238Y-135461428D02*
X170827857Y-135509047D01*
X170827857Y-135509047D02*
X170970714Y-135604285D01*
X170970714Y-135604285D02*
X171161190Y-135651904D01*
X171161190Y-135651904D02*
X171542142Y-135651904D01*
X171542142Y-135651904D02*
X171637380Y-135604285D01*
X171637380Y-135604285D02*
X171685000Y-135556666D01*
X171685000Y-135556666D02*
X171732619Y-135461428D01*
X171732619Y-135461428D02*
X171732619Y-135270952D01*
X171732619Y-135270952D02*
X171685000Y-135175714D01*
X171685000Y-135175714D02*
X171637380Y-135128095D01*
X171637380Y-135128095D02*
X171542142Y-135080476D01*
X171542142Y-135080476D02*
X171304047Y-135080476D01*
X171304047Y-135080476D02*
X171208809Y-135128095D01*
X171208809Y-135128095D02*
X171161190Y-135175714D01*
X171161190Y-135175714D02*
X171113571Y-135270952D01*
X171113571Y-135270952D02*
X171113571Y-135461428D01*
X171113571Y-135461428D02*
X171161190Y-135556666D01*
X171161190Y-135556666D02*
X171208809Y-135604285D01*
X171208809Y-135604285D02*
X171304047Y-135651904D01*
%TO.C,Q5*%
X135812857Y-114395238D02*
X135765238Y-114490476D01*
X135765238Y-114490476D02*
X135670000Y-114585714D01*
X135670000Y-114585714D02*
X135527142Y-114728571D01*
X135527142Y-114728571D02*
X135479523Y-114823809D01*
X135479523Y-114823809D02*
X135479523Y-114919047D01*
X135717619Y-114871428D02*
X135670000Y-114966666D01*
X135670000Y-114966666D02*
X135574761Y-115061904D01*
X135574761Y-115061904D02*
X135384285Y-115109523D01*
X135384285Y-115109523D02*
X135050952Y-115109523D01*
X135050952Y-115109523D02*
X134860476Y-115061904D01*
X134860476Y-115061904D02*
X134765238Y-114966666D01*
X134765238Y-114966666D02*
X134717619Y-114871428D01*
X134717619Y-114871428D02*
X134717619Y-114680952D01*
X134717619Y-114680952D02*
X134765238Y-114585714D01*
X134765238Y-114585714D02*
X134860476Y-114490476D01*
X134860476Y-114490476D02*
X135050952Y-114442857D01*
X135050952Y-114442857D02*
X135384285Y-114442857D01*
X135384285Y-114442857D02*
X135574761Y-114490476D01*
X135574761Y-114490476D02*
X135670000Y-114585714D01*
X135670000Y-114585714D02*
X135717619Y-114680952D01*
X135717619Y-114680952D02*
X135717619Y-114871428D01*
X134717619Y-113538095D02*
X134717619Y-114014285D01*
X134717619Y-114014285D02*
X135193809Y-114061904D01*
X135193809Y-114061904D02*
X135146190Y-114014285D01*
X135146190Y-114014285D02*
X135098571Y-113919047D01*
X135098571Y-113919047D02*
X135098571Y-113680952D01*
X135098571Y-113680952D02*
X135146190Y-113585714D01*
X135146190Y-113585714D02*
X135193809Y-113538095D01*
X135193809Y-113538095D02*
X135289047Y-113490476D01*
X135289047Y-113490476D02*
X135527142Y-113490476D01*
X135527142Y-113490476D02*
X135622380Y-113538095D01*
X135622380Y-113538095D02*
X135670000Y-113585714D01*
X135670000Y-113585714D02*
X135717619Y-113680952D01*
X135717619Y-113680952D02*
X135717619Y-113919047D01*
X135717619Y-113919047D02*
X135670000Y-114014285D01*
X135670000Y-114014285D02*
X135622380Y-114061904D01*
%TO.C,C7*%
X88057380Y-74501666D02*
X88105000Y-74549285D01*
X88105000Y-74549285D02*
X88152619Y-74692142D01*
X88152619Y-74692142D02*
X88152619Y-74787380D01*
X88152619Y-74787380D02*
X88105000Y-74930237D01*
X88105000Y-74930237D02*
X88009761Y-75025475D01*
X88009761Y-75025475D02*
X87914523Y-75073094D01*
X87914523Y-75073094D02*
X87724047Y-75120713D01*
X87724047Y-75120713D02*
X87581190Y-75120713D01*
X87581190Y-75120713D02*
X87390714Y-75073094D01*
X87390714Y-75073094D02*
X87295476Y-75025475D01*
X87295476Y-75025475D02*
X87200238Y-74930237D01*
X87200238Y-74930237D02*
X87152619Y-74787380D01*
X87152619Y-74787380D02*
X87152619Y-74692142D01*
X87152619Y-74692142D02*
X87200238Y-74549285D01*
X87200238Y-74549285D02*
X87247857Y-74501666D01*
X87152619Y-74168332D02*
X87152619Y-73501666D01*
X87152619Y-73501666D02*
X88152619Y-73930237D01*
%TO.C,J2*%
X49172619Y-71533333D02*
X49886904Y-71533333D01*
X49886904Y-71533333D02*
X50029761Y-71580952D01*
X50029761Y-71580952D02*
X50125000Y-71676190D01*
X50125000Y-71676190D02*
X50172619Y-71819047D01*
X50172619Y-71819047D02*
X50172619Y-71914285D01*
X49267857Y-71104761D02*
X49220238Y-71057142D01*
X49220238Y-71057142D02*
X49172619Y-70961904D01*
X49172619Y-70961904D02*
X49172619Y-70723809D01*
X49172619Y-70723809D02*
X49220238Y-70628571D01*
X49220238Y-70628571D02*
X49267857Y-70580952D01*
X49267857Y-70580952D02*
X49363095Y-70533333D01*
X49363095Y-70533333D02*
X49458333Y-70533333D01*
X49458333Y-70533333D02*
X49601190Y-70580952D01*
X49601190Y-70580952D02*
X50172619Y-71152380D01*
X50172619Y-71152380D02*
X50172619Y-70533333D01*
%TO.C,C3*%
X88057380Y-42036666D02*
X88105000Y-42084285D01*
X88105000Y-42084285D02*
X88152619Y-42227142D01*
X88152619Y-42227142D02*
X88152619Y-42322380D01*
X88152619Y-42322380D02*
X88105000Y-42465237D01*
X88105000Y-42465237D02*
X88009761Y-42560475D01*
X88009761Y-42560475D02*
X87914523Y-42608094D01*
X87914523Y-42608094D02*
X87724047Y-42655713D01*
X87724047Y-42655713D02*
X87581190Y-42655713D01*
X87581190Y-42655713D02*
X87390714Y-42608094D01*
X87390714Y-42608094D02*
X87295476Y-42560475D01*
X87295476Y-42560475D02*
X87200238Y-42465237D01*
X87200238Y-42465237D02*
X87152619Y-42322380D01*
X87152619Y-42322380D02*
X87152619Y-42227142D01*
X87152619Y-42227142D02*
X87200238Y-42084285D01*
X87200238Y-42084285D02*
X87247857Y-42036666D01*
X87152619Y-41703332D02*
X87152619Y-41084285D01*
X87152619Y-41084285D02*
X87533571Y-41417618D01*
X87533571Y-41417618D02*
X87533571Y-41274761D01*
X87533571Y-41274761D02*
X87581190Y-41179523D01*
X87581190Y-41179523D02*
X87628809Y-41131904D01*
X87628809Y-41131904D02*
X87724047Y-41084285D01*
X87724047Y-41084285D02*
X87962142Y-41084285D01*
X87962142Y-41084285D02*
X88057380Y-41131904D01*
X88057380Y-41131904D02*
X88105000Y-41179523D01*
X88105000Y-41179523D02*
X88152619Y-41274761D01*
X88152619Y-41274761D02*
X88152619Y-41560475D01*
X88152619Y-41560475D02*
X88105000Y-41655713D01*
X88105000Y-41655713D02*
X88057380Y-41703332D01*
%TO.C,Q3*%
X134997857Y-72485238D02*
X134950238Y-72580476D01*
X134950238Y-72580476D02*
X134855000Y-72675714D01*
X134855000Y-72675714D02*
X134712142Y-72818571D01*
X134712142Y-72818571D02*
X134664523Y-72913809D01*
X134664523Y-72913809D02*
X134664523Y-73009047D01*
X134902619Y-72961428D02*
X134855000Y-73056666D01*
X134855000Y-73056666D02*
X134759761Y-73151904D01*
X134759761Y-73151904D02*
X134569285Y-73199523D01*
X134569285Y-73199523D02*
X134235952Y-73199523D01*
X134235952Y-73199523D02*
X134045476Y-73151904D01*
X134045476Y-73151904D02*
X133950238Y-73056666D01*
X133950238Y-73056666D02*
X133902619Y-72961428D01*
X133902619Y-72961428D02*
X133902619Y-72770952D01*
X133902619Y-72770952D02*
X133950238Y-72675714D01*
X133950238Y-72675714D02*
X134045476Y-72580476D01*
X134045476Y-72580476D02*
X134235952Y-72532857D01*
X134235952Y-72532857D02*
X134569285Y-72532857D01*
X134569285Y-72532857D02*
X134759761Y-72580476D01*
X134759761Y-72580476D02*
X134855000Y-72675714D01*
X134855000Y-72675714D02*
X134902619Y-72770952D01*
X134902619Y-72770952D02*
X134902619Y-72961428D01*
X133902619Y-72199523D02*
X133902619Y-71580476D01*
X133902619Y-71580476D02*
X134283571Y-71913809D01*
X134283571Y-71913809D02*
X134283571Y-71770952D01*
X134283571Y-71770952D02*
X134331190Y-71675714D01*
X134331190Y-71675714D02*
X134378809Y-71628095D01*
X134378809Y-71628095D02*
X134474047Y-71580476D01*
X134474047Y-71580476D02*
X134712142Y-71580476D01*
X134712142Y-71580476D02*
X134807380Y-71628095D01*
X134807380Y-71628095D02*
X134855000Y-71675714D01*
X134855000Y-71675714D02*
X134902619Y-71770952D01*
X134902619Y-71770952D02*
X134902619Y-72056666D01*
X134902619Y-72056666D02*
X134855000Y-72151904D01*
X134855000Y-72151904D02*
X134807380Y-72199523D01*
%TO.C,U6*%
X92128095Y-75872619D02*
X92128095Y-76682142D01*
X92128095Y-76682142D02*
X92175714Y-76777380D01*
X92175714Y-76777380D02*
X92223333Y-76825000D01*
X92223333Y-76825000D02*
X92318571Y-76872619D01*
X92318571Y-76872619D02*
X92509047Y-76872619D01*
X92509047Y-76872619D02*
X92604285Y-76825000D01*
X92604285Y-76825000D02*
X92651904Y-76777380D01*
X92651904Y-76777380D02*
X92699523Y-76682142D01*
X92699523Y-76682142D02*
X92699523Y-75872619D01*
X93604285Y-75872619D02*
X93413809Y-75872619D01*
X93413809Y-75872619D02*
X93318571Y-75920238D01*
X93318571Y-75920238D02*
X93270952Y-75967857D01*
X93270952Y-75967857D02*
X93175714Y-76110714D01*
X93175714Y-76110714D02*
X93128095Y-76301190D01*
X93128095Y-76301190D02*
X93128095Y-76682142D01*
X93128095Y-76682142D02*
X93175714Y-76777380D01*
X93175714Y-76777380D02*
X93223333Y-76825000D01*
X93223333Y-76825000D02*
X93318571Y-76872619D01*
X93318571Y-76872619D02*
X93509047Y-76872619D01*
X93509047Y-76872619D02*
X93604285Y-76825000D01*
X93604285Y-76825000D02*
X93651904Y-76777380D01*
X93651904Y-76777380D02*
X93699523Y-76682142D01*
X93699523Y-76682142D02*
X93699523Y-76444047D01*
X93699523Y-76444047D02*
X93651904Y-76348809D01*
X93651904Y-76348809D02*
X93604285Y-76301190D01*
X93604285Y-76301190D02*
X93509047Y-76253571D01*
X93509047Y-76253571D02*
X93318571Y-76253571D01*
X93318571Y-76253571D02*
X93223333Y-76301190D01*
X93223333Y-76301190D02*
X93175714Y-76348809D01*
X93175714Y-76348809D02*
X93128095Y-76444047D01*
%TO.C,U7*%
X92128095Y-89842619D02*
X92128095Y-90652142D01*
X92128095Y-90652142D02*
X92175714Y-90747380D01*
X92175714Y-90747380D02*
X92223333Y-90795000D01*
X92223333Y-90795000D02*
X92318571Y-90842619D01*
X92318571Y-90842619D02*
X92509047Y-90842619D01*
X92509047Y-90842619D02*
X92604285Y-90795000D01*
X92604285Y-90795000D02*
X92651904Y-90747380D01*
X92651904Y-90747380D02*
X92699523Y-90652142D01*
X92699523Y-90652142D02*
X92699523Y-89842619D01*
X93080476Y-89842619D02*
X93747142Y-89842619D01*
X93747142Y-89842619D02*
X93318571Y-90842619D01*
%TO.C,Q4*%
X171827857Y-94075238D02*
X171780238Y-94170476D01*
X171780238Y-94170476D02*
X171685000Y-94265714D01*
X171685000Y-94265714D02*
X171542142Y-94408571D01*
X171542142Y-94408571D02*
X171494523Y-94503809D01*
X171494523Y-94503809D02*
X171494523Y-94599047D01*
X171732619Y-94551428D02*
X171685000Y-94646666D01*
X171685000Y-94646666D02*
X171589761Y-94741904D01*
X171589761Y-94741904D02*
X171399285Y-94789523D01*
X171399285Y-94789523D02*
X171065952Y-94789523D01*
X171065952Y-94789523D02*
X170875476Y-94741904D01*
X170875476Y-94741904D02*
X170780238Y-94646666D01*
X170780238Y-94646666D02*
X170732619Y-94551428D01*
X170732619Y-94551428D02*
X170732619Y-94360952D01*
X170732619Y-94360952D02*
X170780238Y-94265714D01*
X170780238Y-94265714D02*
X170875476Y-94170476D01*
X170875476Y-94170476D02*
X171065952Y-94122857D01*
X171065952Y-94122857D02*
X171399285Y-94122857D01*
X171399285Y-94122857D02*
X171589761Y-94170476D01*
X171589761Y-94170476D02*
X171685000Y-94265714D01*
X171685000Y-94265714D02*
X171732619Y-94360952D01*
X171732619Y-94360952D02*
X171732619Y-94551428D01*
X171065952Y-93265714D02*
X171732619Y-93265714D01*
X170685000Y-93503809D02*
X171399285Y-93741904D01*
X171399285Y-93741904D02*
X171399285Y-93122857D01*
%TO.C,J1*%
X209296666Y-15972619D02*
X209296666Y-16686904D01*
X209296666Y-16686904D02*
X209249047Y-16829761D01*
X209249047Y-16829761D02*
X209153809Y-16925000D01*
X209153809Y-16925000D02*
X209010952Y-16972619D01*
X209010952Y-16972619D02*
X208915714Y-16972619D01*
X210296666Y-16972619D02*
X209725238Y-16972619D01*
X210010952Y-16972619D02*
X210010952Y-15972619D01*
X210010952Y-15972619D02*
X209915714Y-16115476D01*
X209915714Y-16115476D02*
X209820476Y-16210714D01*
X209820476Y-16210714D02*
X209725238Y-16258333D01*
%TO.C,U5*%
X92128095Y-58092619D02*
X92128095Y-58902142D01*
X92128095Y-58902142D02*
X92175714Y-58997380D01*
X92175714Y-58997380D02*
X92223333Y-59045000D01*
X92223333Y-59045000D02*
X92318571Y-59092619D01*
X92318571Y-59092619D02*
X92509047Y-59092619D01*
X92509047Y-59092619D02*
X92604285Y-59045000D01*
X92604285Y-59045000D02*
X92651904Y-58997380D01*
X92651904Y-58997380D02*
X92699523Y-58902142D01*
X92699523Y-58902142D02*
X92699523Y-58092619D01*
X93651904Y-58092619D02*
X93175714Y-58092619D01*
X93175714Y-58092619D02*
X93128095Y-58568809D01*
X93128095Y-58568809D02*
X93175714Y-58521190D01*
X93175714Y-58521190D02*
X93270952Y-58473571D01*
X93270952Y-58473571D02*
X93509047Y-58473571D01*
X93509047Y-58473571D02*
X93604285Y-58521190D01*
X93604285Y-58521190D02*
X93651904Y-58568809D01*
X93651904Y-58568809D02*
X93699523Y-58664047D01*
X93699523Y-58664047D02*
X93699523Y-58902142D01*
X93699523Y-58902142D02*
X93651904Y-58997380D01*
X93651904Y-58997380D02*
X93604285Y-59045000D01*
X93604285Y-59045000D02*
X93509047Y-59092619D01*
X93509047Y-59092619D02*
X93270952Y-59092619D01*
X93270952Y-59092619D02*
X93175714Y-59045000D01*
X93175714Y-59045000D02*
X93128095Y-58997380D01*
%TO.C,U4*%
X92113095Y-44132619D02*
X92113095Y-44942142D01*
X92113095Y-44942142D02*
X92160714Y-45037380D01*
X92160714Y-45037380D02*
X92208333Y-45085000D01*
X92208333Y-45085000D02*
X92303571Y-45132619D01*
X92303571Y-45132619D02*
X92494047Y-45132619D01*
X92494047Y-45132619D02*
X92589285Y-45085000D01*
X92589285Y-45085000D02*
X92636904Y-45037380D01*
X92636904Y-45037380D02*
X92684523Y-44942142D01*
X92684523Y-44942142D02*
X92684523Y-44132619D01*
X93589285Y-44465952D02*
X93589285Y-45132619D01*
X93351190Y-44085000D02*
X93113095Y-44799285D01*
X93113095Y-44799285D02*
X93732142Y-44799285D01*
%TO.C,J3*%
X49172619Y-119078333D02*
X49886904Y-119078333D01*
X49886904Y-119078333D02*
X50029761Y-119125952D01*
X50029761Y-119125952D02*
X50125000Y-119221190D01*
X50125000Y-119221190D02*
X50172619Y-119364047D01*
X50172619Y-119364047D02*
X50172619Y-119459285D01*
X49172619Y-118697380D02*
X49172619Y-118078333D01*
X49172619Y-118078333D02*
X49553571Y-118411666D01*
X49553571Y-118411666D02*
X49553571Y-118268809D01*
X49553571Y-118268809D02*
X49601190Y-118173571D01*
X49601190Y-118173571D02*
X49648809Y-118125952D01*
X49648809Y-118125952D02*
X49744047Y-118078333D01*
X49744047Y-118078333D02*
X49982142Y-118078333D01*
X49982142Y-118078333D02*
X50077380Y-118125952D01*
X50077380Y-118125952D02*
X50125000Y-118173571D01*
X50125000Y-118173571D02*
X50172619Y-118268809D01*
X50172619Y-118268809D02*
X50172619Y-118554523D01*
X50172619Y-118554523D02*
X50125000Y-118649761D01*
X50125000Y-118649761D02*
X50077380Y-118697380D01*
%TO.C,C11*%
X88057380Y-105377857D02*
X88105000Y-105425476D01*
X88105000Y-105425476D02*
X88152619Y-105568333D01*
X88152619Y-105568333D02*
X88152619Y-105663571D01*
X88152619Y-105663571D02*
X88105000Y-105806428D01*
X88105000Y-105806428D02*
X88009761Y-105901666D01*
X88009761Y-105901666D02*
X87914523Y-105949285D01*
X87914523Y-105949285D02*
X87724047Y-105996904D01*
X87724047Y-105996904D02*
X87581190Y-105996904D01*
X87581190Y-105996904D02*
X87390714Y-105949285D01*
X87390714Y-105949285D02*
X87295476Y-105901666D01*
X87295476Y-105901666D02*
X87200238Y-105806428D01*
X87200238Y-105806428D02*
X87152619Y-105663571D01*
X87152619Y-105663571D02*
X87152619Y-105568333D01*
X87152619Y-105568333D02*
X87200238Y-105425476D01*
X87200238Y-105425476D02*
X87247857Y-105377857D01*
X88152619Y-104425476D02*
X88152619Y-104996904D01*
X88152619Y-104711190D02*
X87152619Y-104711190D01*
X87152619Y-104711190D02*
X87295476Y-104806428D01*
X87295476Y-104806428D02*
X87390714Y-104901666D01*
X87390714Y-104901666D02*
X87438333Y-104996904D01*
X88152619Y-103473095D02*
X88152619Y-104044523D01*
X88152619Y-103758809D02*
X87152619Y-103758809D01*
X87152619Y-103758809D02*
X87295476Y-103854047D01*
X87295476Y-103854047D02*
X87390714Y-103949285D01*
X87390714Y-103949285D02*
X87438333Y-104044523D01*
%TO.C,C4*%
X88057380Y-119586666D02*
X88105000Y-119634285D01*
X88105000Y-119634285D02*
X88152619Y-119777142D01*
X88152619Y-119777142D02*
X88152619Y-119872380D01*
X88152619Y-119872380D02*
X88105000Y-120015237D01*
X88105000Y-120015237D02*
X88009761Y-120110475D01*
X88009761Y-120110475D02*
X87914523Y-120158094D01*
X87914523Y-120158094D02*
X87724047Y-120205713D01*
X87724047Y-120205713D02*
X87581190Y-120205713D01*
X87581190Y-120205713D02*
X87390714Y-120158094D01*
X87390714Y-120158094D02*
X87295476Y-120110475D01*
X87295476Y-120110475D02*
X87200238Y-120015237D01*
X87200238Y-120015237D02*
X87152619Y-119872380D01*
X87152619Y-119872380D02*
X87152619Y-119777142D01*
X87152619Y-119777142D02*
X87200238Y-119634285D01*
X87200238Y-119634285D02*
X87247857Y-119586666D01*
X87485952Y-118729523D02*
X88152619Y-118729523D01*
X87105000Y-118967618D02*
X87819285Y-119205713D01*
X87819285Y-119205713D02*
X87819285Y-118586666D01*
%TO.C,C12*%
X88057380Y-57752857D02*
X88105000Y-57800476D01*
X88105000Y-57800476D02*
X88152619Y-57943333D01*
X88152619Y-57943333D02*
X88152619Y-58038571D01*
X88152619Y-58038571D02*
X88105000Y-58181428D01*
X88105000Y-58181428D02*
X88009761Y-58276666D01*
X88009761Y-58276666D02*
X87914523Y-58324285D01*
X87914523Y-58324285D02*
X87724047Y-58371904D01*
X87724047Y-58371904D02*
X87581190Y-58371904D01*
X87581190Y-58371904D02*
X87390714Y-58324285D01*
X87390714Y-58324285D02*
X87295476Y-58276666D01*
X87295476Y-58276666D02*
X87200238Y-58181428D01*
X87200238Y-58181428D02*
X87152619Y-58038571D01*
X87152619Y-58038571D02*
X87152619Y-57943333D01*
X87152619Y-57943333D02*
X87200238Y-57800476D01*
X87200238Y-57800476D02*
X87247857Y-57752857D01*
X88152619Y-56800476D02*
X88152619Y-57371904D01*
X88152619Y-57086190D02*
X87152619Y-57086190D01*
X87152619Y-57086190D02*
X87295476Y-57181428D01*
X87295476Y-57181428D02*
X87390714Y-57276666D01*
X87390714Y-57276666D02*
X87438333Y-57371904D01*
X87247857Y-56419523D02*
X87200238Y-56371904D01*
X87200238Y-56371904D02*
X87152619Y-56276666D01*
X87152619Y-56276666D02*
X87152619Y-56038571D01*
X87152619Y-56038571D02*
X87200238Y-55943333D01*
X87200238Y-55943333D02*
X87247857Y-55895714D01*
X87247857Y-55895714D02*
X87343095Y-55848095D01*
X87343095Y-55848095D02*
X87438333Y-55848095D01*
X87438333Y-55848095D02*
X87581190Y-55895714D01*
X87581190Y-55895714D02*
X88152619Y-56467142D01*
X88152619Y-56467142D02*
X88152619Y-55848095D01*
%TO.C,J8*%
X229332619Y-96933333D02*
X230046904Y-96933333D01*
X230046904Y-96933333D02*
X230189761Y-96980952D01*
X230189761Y-96980952D02*
X230285000Y-97076190D01*
X230285000Y-97076190D02*
X230332619Y-97219047D01*
X230332619Y-97219047D02*
X230332619Y-97314285D01*
X229761190Y-96314285D02*
X229713571Y-96409523D01*
X229713571Y-96409523D02*
X229665952Y-96457142D01*
X229665952Y-96457142D02*
X229570714Y-96504761D01*
X229570714Y-96504761D02*
X229523095Y-96504761D01*
X229523095Y-96504761D02*
X229427857Y-96457142D01*
X229427857Y-96457142D02*
X229380238Y-96409523D01*
X229380238Y-96409523D02*
X229332619Y-96314285D01*
X229332619Y-96314285D02*
X229332619Y-96123809D01*
X229332619Y-96123809D02*
X229380238Y-96028571D01*
X229380238Y-96028571D02*
X229427857Y-95980952D01*
X229427857Y-95980952D02*
X229523095Y-95933333D01*
X229523095Y-95933333D02*
X229570714Y-95933333D01*
X229570714Y-95933333D02*
X229665952Y-95980952D01*
X229665952Y-95980952D02*
X229713571Y-96028571D01*
X229713571Y-96028571D02*
X229761190Y-96123809D01*
X229761190Y-96123809D02*
X229761190Y-96314285D01*
X229761190Y-96314285D02*
X229808809Y-96409523D01*
X229808809Y-96409523D02*
X229856428Y-96457142D01*
X229856428Y-96457142D02*
X229951666Y-96504761D01*
X229951666Y-96504761D02*
X230142142Y-96504761D01*
X230142142Y-96504761D02*
X230237380Y-96457142D01*
X230237380Y-96457142D02*
X230285000Y-96409523D01*
X230285000Y-96409523D02*
X230332619Y-96314285D01*
X230332619Y-96314285D02*
X230332619Y-96123809D01*
X230332619Y-96123809D02*
X230285000Y-96028571D01*
X230285000Y-96028571D02*
X230237380Y-95980952D01*
X230237380Y-95980952D02*
X230142142Y-95933333D01*
X230142142Y-95933333D02*
X229951666Y-95933333D01*
X229951666Y-95933333D02*
X229856428Y-95980952D01*
X229856428Y-95980952D02*
X229808809Y-96028571D01*
X229808809Y-96028571D02*
X229761190Y-96123809D01*
%TO.C,Q1*%
X134997857Y-28035238D02*
X134950238Y-28130476D01*
X134950238Y-28130476D02*
X134855000Y-28225714D01*
X134855000Y-28225714D02*
X134712142Y-28368571D01*
X134712142Y-28368571D02*
X134664523Y-28463809D01*
X134664523Y-28463809D02*
X134664523Y-28559047D01*
X134902619Y-28511428D02*
X134855000Y-28606666D01*
X134855000Y-28606666D02*
X134759761Y-28701904D01*
X134759761Y-28701904D02*
X134569285Y-28749523D01*
X134569285Y-28749523D02*
X134235952Y-28749523D01*
X134235952Y-28749523D02*
X134045476Y-28701904D01*
X134045476Y-28701904D02*
X133950238Y-28606666D01*
X133950238Y-28606666D02*
X133902619Y-28511428D01*
X133902619Y-28511428D02*
X133902619Y-28320952D01*
X133902619Y-28320952D02*
X133950238Y-28225714D01*
X133950238Y-28225714D02*
X134045476Y-28130476D01*
X134045476Y-28130476D02*
X134235952Y-28082857D01*
X134235952Y-28082857D02*
X134569285Y-28082857D01*
X134569285Y-28082857D02*
X134759761Y-28130476D01*
X134759761Y-28130476D02*
X134855000Y-28225714D01*
X134855000Y-28225714D02*
X134902619Y-28320952D01*
X134902619Y-28320952D02*
X134902619Y-28511428D01*
X134902619Y-27130476D02*
X134902619Y-27701904D01*
X134902619Y-27416190D02*
X133902619Y-27416190D01*
X133902619Y-27416190D02*
X134045476Y-27511428D01*
X134045476Y-27511428D02*
X134140714Y-27606666D01*
X134140714Y-27606666D02*
X134188333Y-27701904D01*
%TO.C,U1*%
X65458095Y-60886619D02*
X65458095Y-61696142D01*
X65458095Y-61696142D02*
X65505714Y-61791380D01*
X65505714Y-61791380D02*
X65553333Y-61839000D01*
X65553333Y-61839000D02*
X65648571Y-61886619D01*
X65648571Y-61886619D02*
X65839047Y-61886619D01*
X65839047Y-61886619D02*
X65934285Y-61839000D01*
X65934285Y-61839000D02*
X65981904Y-61791380D01*
X65981904Y-61791380D02*
X66029523Y-61696142D01*
X66029523Y-61696142D02*
X66029523Y-60886619D01*
X67029523Y-61886619D02*
X66458095Y-61886619D01*
X66743809Y-61886619D02*
X66743809Y-60886619D01*
X66743809Y-60886619D02*
X66648571Y-61029476D01*
X66648571Y-61029476D02*
X66553333Y-61124714D01*
X66553333Y-61124714D02*
X66458095Y-61172333D01*
D11*
%TO.C,U8*%
X90640000Y-107890000D02*
X90640000Y-118170000D01*
X90640000Y-118170000D02*
X95140000Y-118170000D01*
X91890000Y-107890000D02*
X90640000Y-107890000D01*
X95140000Y-107890000D02*
X93890000Y-107890000D01*
X95140000Y-118170000D02*
X95140000Y-107890000D01*
X91890000Y-107890000D02*
G75*
G03*
X93890000Y-107890000I1000000J0D01*
G01*
%TO.C,U9*%
X90640000Y-121860000D02*
X90640000Y-132140000D01*
X90640000Y-132140000D02*
X95140000Y-132140000D01*
X91890000Y-121860000D02*
X90640000Y-121860000D01*
X95140000Y-121860000D02*
X93890000Y-121860000D01*
X95140000Y-132140000D02*
X95140000Y-121860000D01*
X91890000Y-121860000D02*
G75*
G03*
X93890000Y-121860000I1000000J0D01*
G01*
%TO.C,C8*%
X83765000Y-82893918D02*
X83765000Y-84143918D01*
X84390000Y-83518918D02*
X83140000Y-83518918D01*
X86520000Y-89711000D02*
X73860000Y-89711000D01*
X86520000Y-89751000D02*
X73860000Y-89751000D01*
X86520000Y-89791000D02*
X73860000Y-89791000D01*
X86519000Y-89831000D02*
X73861000Y-89831000D01*
X86518000Y-89871000D02*
X73862000Y-89871000D01*
X86517000Y-89911000D02*
X73863000Y-89911000D01*
X86516000Y-89951000D02*
X73864000Y-89951000D01*
X86514000Y-89991000D02*
X73866000Y-89991000D01*
X86512000Y-90031000D02*
X73868000Y-90031000D01*
X86510000Y-90071000D02*
X73870000Y-90071000D01*
X86508000Y-90111000D02*
X73872000Y-90111000D01*
X86505000Y-90151000D02*
X73875000Y-90151000D01*
X86502000Y-90191000D02*
X73878000Y-90191000D01*
X86499000Y-90231000D02*
X73881000Y-90231000D01*
X86496000Y-90271000D02*
X73884000Y-90271000D01*
X86492000Y-90311000D02*
X73888000Y-90311000D01*
X86488000Y-90351000D02*
X73892000Y-90351000D01*
X86484000Y-90391000D02*
X73896000Y-90391000D01*
X86480000Y-90432000D02*
X73900000Y-90432000D01*
X86475000Y-90472000D02*
X73905000Y-90472000D01*
X86470000Y-90512000D02*
X73910000Y-90512000D01*
X86465000Y-90552000D02*
X73915000Y-90552000D01*
X86459000Y-90592000D02*
X73921000Y-90592000D01*
X86454000Y-90632000D02*
X73926000Y-90632000D01*
X86448000Y-90672000D02*
X73932000Y-90672000D01*
X86442000Y-90712000D02*
X73938000Y-90712000D01*
X86435000Y-90752000D02*
X73945000Y-90752000D01*
X86428000Y-90792000D02*
X81630000Y-90792000D01*
X78750000Y-90792000D02*
X73952000Y-90792000D01*
X86421000Y-90832000D02*
X81630000Y-90832000D01*
X78750000Y-90832000D02*
X73959000Y-90832000D01*
X86414000Y-90872000D02*
X81630000Y-90872000D01*
X78750000Y-90872000D02*
X73966000Y-90872000D01*
X86406000Y-90912000D02*
X81630000Y-90912000D01*
X78750000Y-90912000D02*
X73974000Y-90912000D01*
X86399000Y-90952000D02*
X81630000Y-90952000D01*
X78750000Y-90952000D02*
X73981000Y-90952000D01*
X86391000Y-90992000D02*
X81630000Y-90992000D01*
X78750000Y-90992000D02*
X73989000Y-90992000D01*
X86382000Y-91032000D02*
X81630000Y-91032000D01*
X78750000Y-91032000D02*
X73998000Y-91032000D01*
X86374000Y-91072000D02*
X81630000Y-91072000D01*
X78750000Y-91072000D02*
X74006000Y-91072000D01*
X86365000Y-91112000D02*
X81630000Y-91112000D01*
X78750000Y-91112000D02*
X74015000Y-91112000D01*
X86356000Y-91152000D02*
X81630000Y-91152000D01*
X78750000Y-91152000D02*
X74024000Y-91152000D01*
X86346000Y-91192000D02*
X81630000Y-91192000D01*
X78750000Y-91192000D02*
X74034000Y-91192000D01*
X86336000Y-91232000D02*
X81630000Y-91232000D01*
X78750000Y-91232000D02*
X74044000Y-91232000D01*
X86327000Y-91272000D02*
X81630000Y-91272000D01*
X78750000Y-91272000D02*
X74053000Y-91272000D01*
X86316000Y-91312000D02*
X81630000Y-91312000D01*
X78750000Y-91312000D02*
X74064000Y-91312000D01*
X86306000Y-91352000D02*
X81630000Y-91352000D01*
X78750000Y-91352000D02*
X74074000Y-91352000D01*
X86295000Y-91392000D02*
X81630000Y-91392000D01*
X78750000Y-91392000D02*
X74085000Y-91392000D01*
X86284000Y-91432000D02*
X81630000Y-91432000D01*
X78750000Y-91432000D02*
X74096000Y-91432000D01*
X86273000Y-91472000D02*
X81630000Y-91472000D01*
X78750000Y-91472000D02*
X74107000Y-91472000D01*
X86261000Y-91512000D02*
X81630000Y-91512000D01*
X78750000Y-91512000D02*
X74119000Y-91512000D01*
X86249000Y-91552000D02*
X81630000Y-91552000D01*
X78750000Y-91552000D02*
X74131000Y-91552000D01*
X86237000Y-91592000D02*
X81630000Y-91592000D01*
X78750000Y-91592000D02*
X74143000Y-91592000D01*
X86224000Y-91632000D02*
X81630000Y-91632000D01*
X78750000Y-91632000D02*
X74156000Y-91632000D01*
X86211000Y-91672000D02*
X81630000Y-91672000D01*
X78750000Y-91672000D02*
X74169000Y-91672000D01*
X86198000Y-91712000D02*
X81630000Y-91712000D01*
X78750000Y-91712000D02*
X74182000Y-91712000D01*
X86185000Y-91752000D02*
X81630000Y-91752000D01*
X78750000Y-91752000D02*
X74195000Y-91752000D01*
X86171000Y-91792000D02*
X81630000Y-91792000D01*
X78750000Y-91792000D02*
X74209000Y-91792000D01*
X86157000Y-91832000D02*
X81630000Y-91832000D01*
X78750000Y-91832000D02*
X74223000Y-91832000D01*
X86143000Y-91872000D02*
X81630000Y-91872000D01*
X78750000Y-91872000D02*
X74237000Y-91872000D01*
X86129000Y-91912000D02*
X81630000Y-91912000D01*
X78750000Y-91912000D02*
X74251000Y-91912000D01*
X86114000Y-91952000D02*
X81630000Y-91952000D01*
X78750000Y-91952000D02*
X74266000Y-91952000D01*
X86098000Y-91992000D02*
X81630000Y-91992000D01*
X78750000Y-91992000D02*
X74282000Y-91992000D01*
X86083000Y-92032000D02*
X81630000Y-92032000D01*
X78750000Y-92032000D02*
X74297000Y-92032000D01*
X86067000Y-92072000D02*
X81630000Y-92072000D01*
X78750000Y-92072000D02*
X74313000Y-92072000D01*
X86051000Y-92112000D02*
X81630000Y-92112000D01*
X78750000Y-92112000D02*
X74329000Y-92112000D01*
X86035000Y-92152000D02*
X81630000Y-92152000D01*
X78750000Y-92152000D02*
X74345000Y-92152000D01*
X86018000Y-92192000D02*
X81630000Y-92192000D01*
X78750000Y-92192000D02*
X74362000Y-92192000D01*
X86001000Y-92232000D02*
X81630000Y-92232000D01*
X78750000Y-92232000D02*
X74379000Y-92232000D01*
X85983000Y-92272000D02*
X81630000Y-92272000D01*
X78750000Y-92272000D02*
X74397000Y-92272000D01*
X85966000Y-92312000D02*
X81630000Y-92312000D01*
X78750000Y-92312000D02*
X74414000Y-92312000D01*
X85948000Y-92352000D02*
X81630000Y-92352000D01*
X78750000Y-92352000D02*
X74432000Y-92352000D01*
X85929000Y-92392000D02*
X81630000Y-92392000D01*
X78750000Y-92392000D02*
X74451000Y-92392000D01*
X85911000Y-92432000D02*
X81630000Y-92432000D01*
X78750000Y-92432000D02*
X74469000Y-92432000D01*
X85892000Y-92472000D02*
X81630000Y-92472000D01*
X78750000Y-92472000D02*
X74488000Y-92472000D01*
X85872000Y-92512000D02*
X81630000Y-92512000D01*
X78750000Y-92512000D02*
X74508000Y-92512000D01*
X85852000Y-92552000D02*
X81630000Y-92552000D01*
X78750000Y-92552000D02*
X74528000Y-92552000D01*
X85832000Y-92592000D02*
X81630000Y-92592000D01*
X78750000Y-92592000D02*
X74548000Y-92592000D01*
X85812000Y-92632000D02*
X81630000Y-92632000D01*
X78750000Y-92632000D02*
X74568000Y-92632000D01*
X85791000Y-92672000D02*
X81630000Y-92672000D01*
X78750000Y-92672000D02*
X74589000Y-92672000D01*
X85770000Y-92712000D02*
X81630000Y-92712000D01*
X78750000Y-92712000D02*
X74610000Y-92712000D01*
X85748000Y-92752000D02*
X81630000Y-92752000D01*
X78750000Y-92752000D02*
X74632000Y-92752000D01*
X85726000Y-92792000D02*
X81630000Y-92792000D01*
X78750000Y-92792000D02*
X74654000Y-92792000D01*
X85704000Y-92832000D02*
X81630000Y-92832000D01*
X78750000Y-92832000D02*
X74676000Y-92832000D01*
X85681000Y-92872000D02*
X81630000Y-92872000D01*
X78750000Y-92872000D02*
X74699000Y-92872000D01*
X85658000Y-92912000D02*
X81630000Y-92912000D01*
X78750000Y-92912000D02*
X74722000Y-92912000D01*
X85635000Y-92952000D02*
X81630000Y-92952000D01*
X78750000Y-92952000D02*
X74745000Y-92952000D01*
X85611000Y-92992000D02*
X81630000Y-92992000D01*
X78750000Y-92992000D02*
X74769000Y-92992000D01*
X85587000Y-93032000D02*
X81630000Y-93032000D01*
X78750000Y-93032000D02*
X74793000Y-93032000D01*
X85562000Y-93072000D02*
X81630000Y-93072000D01*
X78750000Y-93072000D02*
X74818000Y-93072000D01*
X85537000Y-93112000D02*
X81630000Y-93112000D01*
X78750000Y-93112000D02*
X74843000Y-93112000D01*
X85512000Y-93152000D02*
X81630000Y-93152000D01*
X78750000Y-93152000D02*
X74868000Y-93152000D01*
X85486000Y-93192000D02*
X81630000Y-93192000D01*
X78750000Y-93192000D02*
X74894000Y-93192000D01*
X85460000Y-93232000D02*
X81630000Y-93232000D01*
X78750000Y-93232000D02*
X74920000Y-93232000D01*
X85433000Y-93272000D02*
X81630000Y-93272000D01*
X78750000Y-93272000D02*
X74947000Y-93272000D01*
X85406000Y-93312000D02*
X81630000Y-93312000D01*
X78750000Y-93312000D02*
X74974000Y-93312000D01*
X85378000Y-93352000D02*
X81630000Y-93352000D01*
X78750000Y-93352000D02*
X75002000Y-93352000D01*
X85350000Y-93392000D02*
X81630000Y-93392000D01*
X78750000Y-93392000D02*
X75030000Y-93392000D01*
X85321000Y-93432000D02*
X81630000Y-93432000D01*
X78750000Y-93432000D02*
X75059000Y-93432000D01*
X85292000Y-93472000D02*
X81630000Y-93472000D01*
X78750000Y-93472000D02*
X75088000Y-93472000D01*
X85263000Y-93512000D02*
X81630000Y-93512000D01*
X78750000Y-93512000D02*
X75117000Y-93512000D01*
X85233000Y-93552000D02*
X81630000Y-93552000D01*
X78750000Y-93552000D02*
X75147000Y-93552000D01*
X85202000Y-93592000D02*
X81630000Y-93592000D01*
X78750000Y-93592000D02*
X75178000Y-93592000D01*
X85172000Y-93632000D02*
X81630000Y-93632000D01*
X78750000Y-93632000D02*
X75208000Y-93632000D01*
X85140000Y-93672000D02*
X75240000Y-93672000D01*
X85108000Y-93712000D02*
X75272000Y-93712000D01*
X85075000Y-93752000D02*
X75305000Y-93752000D01*
X85042000Y-93792000D02*
X75338000Y-93792000D01*
X85009000Y-93832000D02*
X75371000Y-93832000D01*
X84975000Y-93872000D02*
X75405000Y-93872000D01*
X84940000Y-93912000D02*
X75440000Y-93912000D01*
X84904000Y-93952000D02*
X75476000Y-93952000D01*
X84868000Y-93992000D02*
X75512000Y-93992000D01*
X84832000Y-94032000D02*
X75548000Y-94032000D01*
X84795000Y-94072000D02*
X75585000Y-94072000D01*
X84757000Y-94112000D02*
X75623000Y-94112000D01*
X84718000Y-94152000D02*
X75662000Y-94152000D01*
X84679000Y-94192000D02*
X75701000Y-94192000D01*
X84639000Y-94232000D02*
X75741000Y-94232000D01*
X84598000Y-94272000D02*
X75782000Y-94272000D01*
X84557000Y-94312000D02*
X75823000Y-94312000D01*
X84515000Y-94352000D02*
X75865000Y-94352000D01*
X84472000Y-94392000D02*
X75908000Y-94392000D01*
X84428000Y-94432000D02*
X75952000Y-94432000D01*
X84384000Y-94472000D02*
X75996000Y-94472000D01*
X84338000Y-94512000D02*
X76042000Y-94512000D01*
X84292000Y-94552000D02*
X76088000Y-94552000D01*
X84245000Y-94592000D02*
X76135000Y-94592000D01*
X84197000Y-94632000D02*
X76183000Y-94632000D01*
X84147000Y-94672000D02*
X76233000Y-94672000D01*
X84097000Y-94712000D02*
X76283000Y-94712000D01*
X84046000Y-94752000D02*
X76334000Y-94752000D01*
X83994000Y-94792000D02*
X76386000Y-94792000D01*
X83940000Y-94832000D02*
X76440000Y-94832000D01*
X83886000Y-94872000D02*
X76494000Y-94872000D01*
X83830000Y-94912000D02*
X76550000Y-94912000D01*
X83773000Y-94952000D02*
X76607000Y-94952000D01*
X83714000Y-94992000D02*
X76666000Y-94992000D01*
X83654000Y-95032000D02*
X76726000Y-95032000D01*
X83592000Y-95072000D02*
X76788000Y-95072000D01*
X83529000Y-95112000D02*
X76851000Y-95112000D01*
X83465000Y-95152000D02*
X76915000Y-95152000D01*
X83398000Y-95192000D02*
X76982000Y-95192000D01*
X83330000Y-95232000D02*
X77050000Y-95232000D01*
X83259000Y-95272000D02*
X77121000Y-95272000D01*
X83186000Y-95312000D02*
X77194000Y-95312000D01*
X83111000Y-95352000D02*
X77269000Y-95352000D01*
X83034000Y-95392000D02*
X77346000Y-95392000D01*
X82954000Y-95432000D02*
X77426000Y-95432000D01*
X82871000Y-95472000D02*
X77509000Y-95472000D01*
X82784000Y-95512000D02*
X77596000Y-95512000D01*
X82694000Y-95552000D02*
X77686000Y-95552000D01*
X82600000Y-95592000D02*
X77780000Y-95592000D01*
X82502000Y-95632000D02*
X77878000Y-95632000D01*
X82399000Y-95672000D02*
X77981000Y-95672000D01*
X82290000Y-95712000D02*
X78090000Y-95712000D01*
X82174000Y-95752000D02*
X78206000Y-95752000D01*
X82051000Y-95792000D02*
X78329000Y-95792000D01*
X81918000Y-95832000D02*
X78462000Y-95832000D01*
X81773000Y-95872000D02*
X78607000Y-95872000D01*
X81612000Y-95912000D02*
X78768000Y-95912000D01*
X81431000Y-95952000D02*
X78949000Y-95952000D01*
X81218000Y-95992000D02*
X79162000Y-95992000D01*
X80947000Y-96032000D02*
X79433000Y-96032000D01*
X80507000Y-96072000D02*
X79873000Y-96072000D01*
X86560000Y-89711000D02*
G75*
G03*
X86560000Y-89711000I-6370000J0D01*
G01*
%TO.C,Q2*%
X170271000Y-40190000D02*
X165000000Y-40190000D01*
X170271000Y-40190000D02*
X170271000Y-56330000D01*
X165000000Y-40190000D02*
X165000000Y-56330000D01*
X170271000Y-46456000D02*
X165000000Y-46456000D01*
X170271000Y-50065000D02*
X165000000Y-50065000D01*
X170271000Y-56330000D02*
X165000000Y-56330000D01*
%TO.C,Q6*%
X170271000Y-127820000D02*
X165000000Y-127820000D01*
X170271000Y-127820000D02*
X170271000Y-143960000D01*
X165000000Y-127820000D02*
X165000000Y-143960000D01*
X170271000Y-134086000D02*
X165000000Y-134086000D01*
X170271000Y-137695000D02*
X165000000Y-137695000D01*
X170271000Y-143960000D02*
X165000000Y-143960000D01*
%TO.C,Q5*%
X133441000Y-104960000D02*
X128170000Y-104960000D01*
X133441000Y-104960000D02*
X133441000Y-121100000D01*
X128170000Y-104960000D02*
X128170000Y-121100000D01*
X133441000Y-111226000D02*
X128170000Y-111226000D01*
X133441000Y-114835000D02*
X128170000Y-114835000D01*
X133441000Y-121100000D02*
X128170000Y-121100000D01*
%TO.C,C7*%
X83765000Y-67517918D02*
X83765000Y-68767918D01*
X84390000Y-68142918D02*
X83140000Y-68142918D01*
X86520000Y-74335000D02*
X73860000Y-74335000D01*
X86520000Y-74375000D02*
X73860000Y-74375000D01*
X86520000Y-74415000D02*
X73860000Y-74415000D01*
X86519000Y-74455000D02*
X73861000Y-74455000D01*
X86518000Y-74495000D02*
X73862000Y-74495000D01*
X86517000Y-74535000D02*
X73863000Y-74535000D01*
X86516000Y-74575000D02*
X73864000Y-74575000D01*
X86514000Y-74615000D02*
X73866000Y-74615000D01*
X86512000Y-74655000D02*
X73868000Y-74655000D01*
X86510000Y-74695000D02*
X73870000Y-74695000D01*
X86508000Y-74735000D02*
X73872000Y-74735000D01*
X86505000Y-74775000D02*
X73875000Y-74775000D01*
X86502000Y-74815000D02*
X73878000Y-74815000D01*
X86499000Y-74855000D02*
X73881000Y-74855000D01*
X86496000Y-74895000D02*
X73884000Y-74895000D01*
X86492000Y-74935000D02*
X73888000Y-74935000D01*
X86488000Y-74975000D02*
X73892000Y-74975000D01*
X86484000Y-75015000D02*
X73896000Y-75015000D01*
X86480000Y-75056000D02*
X73900000Y-75056000D01*
X86475000Y-75096000D02*
X73905000Y-75096000D01*
X86470000Y-75136000D02*
X73910000Y-75136000D01*
X86465000Y-75176000D02*
X73915000Y-75176000D01*
X86459000Y-75216000D02*
X73921000Y-75216000D01*
X86454000Y-75256000D02*
X73926000Y-75256000D01*
X86448000Y-75296000D02*
X73932000Y-75296000D01*
X86442000Y-75336000D02*
X73938000Y-75336000D01*
X86435000Y-75376000D02*
X73945000Y-75376000D01*
X86428000Y-75416000D02*
X81630000Y-75416000D01*
X78750000Y-75416000D02*
X73952000Y-75416000D01*
X86421000Y-75456000D02*
X81630000Y-75456000D01*
X78750000Y-75456000D02*
X73959000Y-75456000D01*
X86414000Y-75496000D02*
X81630000Y-75496000D01*
X78750000Y-75496000D02*
X73966000Y-75496000D01*
X86406000Y-75536000D02*
X81630000Y-75536000D01*
X78750000Y-75536000D02*
X73974000Y-75536000D01*
X86399000Y-75576000D02*
X81630000Y-75576000D01*
X78750000Y-75576000D02*
X73981000Y-75576000D01*
X86391000Y-75616000D02*
X81630000Y-75616000D01*
X78750000Y-75616000D02*
X73989000Y-75616000D01*
X86382000Y-75656000D02*
X81630000Y-75656000D01*
X78750000Y-75656000D02*
X73998000Y-75656000D01*
X86374000Y-75696000D02*
X81630000Y-75696000D01*
X78750000Y-75696000D02*
X74006000Y-75696000D01*
X86365000Y-75736000D02*
X81630000Y-75736000D01*
X78750000Y-75736000D02*
X74015000Y-75736000D01*
X86356000Y-75776000D02*
X81630000Y-75776000D01*
X78750000Y-75776000D02*
X74024000Y-75776000D01*
X86346000Y-75816000D02*
X81630000Y-75816000D01*
X78750000Y-75816000D02*
X74034000Y-75816000D01*
X86336000Y-75856000D02*
X81630000Y-75856000D01*
X78750000Y-75856000D02*
X74044000Y-75856000D01*
X86327000Y-75896000D02*
X81630000Y-75896000D01*
X78750000Y-75896000D02*
X74053000Y-75896000D01*
X86316000Y-75936000D02*
X81630000Y-75936000D01*
X78750000Y-75936000D02*
X74064000Y-75936000D01*
X86306000Y-75976000D02*
X81630000Y-75976000D01*
X78750000Y-75976000D02*
X74074000Y-75976000D01*
X86295000Y-76016000D02*
X81630000Y-76016000D01*
X78750000Y-76016000D02*
X74085000Y-76016000D01*
X86284000Y-76056000D02*
X81630000Y-76056000D01*
X78750000Y-76056000D02*
X74096000Y-76056000D01*
X86273000Y-76096000D02*
X81630000Y-76096000D01*
X78750000Y-76096000D02*
X74107000Y-76096000D01*
X86261000Y-76136000D02*
X81630000Y-76136000D01*
X78750000Y-76136000D02*
X74119000Y-76136000D01*
X86249000Y-76176000D02*
X81630000Y-76176000D01*
X78750000Y-76176000D02*
X74131000Y-76176000D01*
X86237000Y-76216000D02*
X81630000Y-76216000D01*
X78750000Y-76216000D02*
X74143000Y-76216000D01*
X86224000Y-76256000D02*
X81630000Y-76256000D01*
X78750000Y-76256000D02*
X74156000Y-76256000D01*
X86211000Y-76296000D02*
X81630000Y-76296000D01*
X78750000Y-76296000D02*
X74169000Y-76296000D01*
X86198000Y-76336000D02*
X81630000Y-76336000D01*
X78750000Y-76336000D02*
X74182000Y-76336000D01*
X86185000Y-76376000D02*
X81630000Y-76376000D01*
X78750000Y-76376000D02*
X74195000Y-76376000D01*
X86171000Y-76416000D02*
X81630000Y-76416000D01*
X78750000Y-76416000D02*
X74209000Y-76416000D01*
X86157000Y-76456000D02*
X81630000Y-76456000D01*
X78750000Y-76456000D02*
X74223000Y-76456000D01*
X86143000Y-76496000D02*
X81630000Y-76496000D01*
X78750000Y-76496000D02*
X74237000Y-76496000D01*
X86129000Y-76536000D02*
X81630000Y-76536000D01*
X78750000Y-76536000D02*
X74251000Y-76536000D01*
X86114000Y-76576000D02*
X81630000Y-76576000D01*
X78750000Y-76576000D02*
X74266000Y-76576000D01*
X86098000Y-76616000D02*
X81630000Y-76616000D01*
X78750000Y-76616000D02*
X74282000Y-76616000D01*
X86083000Y-76656000D02*
X81630000Y-76656000D01*
X78750000Y-76656000D02*
X74297000Y-76656000D01*
X86067000Y-76696000D02*
X81630000Y-76696000D01*
X78750000Y-76696000D02*
X74313000Y-76696000D01*
X86051000Y-76736000D02*
X81630000Y-76736000D01*
X78750000Y-76736000D02*
X74329000Y-76736000D01*
X86035000Y-76776000D02*
X81630000Y-76776000D01*
X78750000Y-76776000D02*
X74345000Y-76776000D01*
X86018000Y-76816000D02*
X81630000Y-76816000D01*
X78750000Y-76816000D02*
X74362000Y-76816000D01*
X86001000Y-76856000D02*
X81630000Y-76856000D01*
X78750000Y-76856000D02*
X74379000Y-76856000D01*
X85983000Y-76896000D02*
X81630000Y-76896000D01*
X78750000Y-76896000D02*
X74397000Y-76896000D01*
X85966000Y-76936000D02*
X81630000Y-76936000D01*
X78750000Y-76936000D02*
X74414000Y-76936000D01*
X85948000Y-76976000D02*
X81630000Y-76976000D01*
X78750000Y-76976000D02*
X74432000Y-76976000D01*
X85929000Y-77016000D02*
X81630000Y-77016000D01*
X78750000Y-77016000D02*
X74451000Y-77016000D01*
X85911000Y-77056000D02*
X81630000Y-77056000D01*
X78750000Y-77056000D02*
X74469000Y-77056000D01*
X85892000Y-77096000D02*
X81630000Y-77096000D01*
X78750000Y-77096000D02*
X74488000Y-77096000D01*
X85872000Y-77136000D02*
X81630000Y-77136000D01*
X78750000Y-77136000D02*
X74508000Y-77136000D01*
X85852000Y-77176000D02*
X81630000Y-77176000D01*
X78750000Y-77176000D02*
X74528000Y-77176000D01*
X85832000Y-77216000D02*
X81630000Y-77216000D01*
X78750000Y-77216000D02*
X74548000Y-77216000D01*
X85812000Y-77256000D02*
X81630000Y-77256000D01*
X78750000Y-77256000D02*
X74568000Y-77256000D01*
X85791000Y-77296000D02*
X81630000Y-77296000D01*
X78750000Y-77296000D02*
X74589000Y-77296000D01*
X85770000Y-77336000D02*
X81630000Y-77336000D01*
X78750000Y-77336000D02*
X74610000Y-77336000D01*
X85748000Y-77376000D02*
X81630000Y-77376000D01*
X78750000Y-77376000D02*
X74632000Y-77376000D01*
X85726000Y-77416000D02*
X81630000Y-77416000D01*
X78750000Y-77416000D02*
X74654000Y-77416000D01*
X85704000Y-77456000D02*
X81630000Y-77456000D01*
X78750000Y-77456000D02*
X74676000Y-77456000D01*
X85681000Y-77496000D02*
X81630000Y-77496000D01*
X78750000Y-77496000D02*
X74699000Y-77496000D01*
X85658000Y-77536000D02*
X81630000Y-77536000D01*
X78750000Y-77536000D02*
X74722000Y-77536000D01*
X85635000Y-77576000D02*
X81630000Y-77576000D01*
X78750000Y-77576000D02*
X74745000Y-77576000D01*
X85611000Y-77616000D02*
X81630000Y-77616000D01*
X78750000Y-77616000D02*
X74769000Y-77616000D01*
X85587000Y-77656000D02*
X81630000Y-77656000D01*
X78750000Y-77656000D02*
X74793000Y-77656000D01*
X85562000Y-77696000D02*
X81630000Y-77696000D01*
X78750000Y-77696000D02*
X74818000Y-77696000D01*
X85537000Y-77736000D02*
X81630000Y-77736000D01*
X78750000Y-77736000D02*
X74843000Y-77736000D01*
X85512000Y-77776000D02*
X81630000Y-77776000D01*
X78750000Y-77776000D02*
X74868000Y-77776000D01*
X85486000Y-77816000D02*
X81630000Y-77816000D01*
X78750000Y-77816000D02*
X74894000Y-77816000D01*
X85460000Y-77856000D02*
X81630000Y-77856000D01*
X78750000Y-77856000D02*
X74920000Y-77856000D01*
X85433000Y-77896000D02*
X81630000Y-77896000D01*
X78750000Y-77896000D02*
X74947000Y-77896000D01*
X85406000Y-77936000D02*
X81630000Y-77936000D01*
X78750000Y-77936000D02*
X74974000Y-77936000D01*
X85378000Y-77976000D02*
X81630000Y-77976000D01*
X78750000Y-77976000D02*
X75002000Y-77976000D01*
X85350000Y-78016000D02*
X81630000Y-78016000D01*
X78750000Y-78016000D02*
X75030000Y-78016000D01*
X85321000Y-78056000D02*
X81630000Y-78056000D01*
X78750000Y-78056000D02*
X75059000Y-78056000D01*
X85292000Y-78096000D02*
X81630000Y-78096000D01*
X78750000Y-78096000D02*
X75088000Y-78096000D01*
X85263000Y-78136000D02*
X81630000Y-78136000D01*
X78750000Y-78136000D02*
X75117000Y-78136000D01*
X85233000Y-78176000D02*
X81630000Y-78176000D01*
X78750000Y-78176000D02*
X75147000Y-78176000D01*
X85202000Y-78216000D02*
X81630000Y-78216000D01*
X78750000Y-78216000D02*
X75178000Y-78216000D01*
X85172000Y-78256000D02*
X81630000Y-78256000D01*
X78750000Y-78256000D02*
X75208000Y-78256000D01*
X85140000Y-78296000D02*
X75240000Y-78296000D01*
X85108000Y-78336000D02*
X75272000Y-78336000D01*
X85075000Y-78376000D02*
X75305000Y-78376000D01*
X85042000Y-78416000D02*
X75338000Y-78416000D01*
X85009000Y-78456000D02*
X75371000Y-78456000D01*
X84975000Y-78496000D02*
X75405000Y-78496000D01*
X84940000Y-78536000D02*
X75440000Y-78536000D01*
X84904000Y-78576000D02*
X75476000Y-78576000D01*
X84868000Y-78616000D02*
X75512000Y-78616000D01*
X84832000Y-78656000D02*
X75548000Y-78656000D01*
X84795000Y-78696000D02*
X75585000Y-78696000D01*
X84757000Y-78736000D02*
X75623000Y-78736000D01*
X84718000Y-78776000D02*
X75662000Y-78776000D01*
X84679000Y-78816000D02*
X75701000Y-78816000D01*
X84639000Y-78856000D02*
X75741000Y-78856000D01*
X84598000Y-78896000D02*
X75782000Y-78896000D01*
X84557000Y-78936000D02*
X75823000Y-78936000D01*
X84515000Y-78976000D02*
X75865000Y-78976000D01*
X84472000Y-79016000D02*
X75908000Y-79016000D01*
X84428000Y-79056000D02*
X75952000Y-79056000D01*
X84384000Y-79096000D02*
X75996000Y-79096000D01*
X84338000Y-79136000D02*
X76042000Y-79136000D01*
X84292000Y-79176000D02*
X76088000Y-79176000D01*
X84245000Y-79216000D02*
X76135000Y-79216000D01*
X84197000Y-79256000D02*
X76183000Y-79256000D01*
X84147000Y-79296000D02*
X76233000Y-79296000D01*
X84097000Y-79336000D02*
X76283000Y-79336000D01*
X84046000Y-79376000D02*
X76334000Y-79376000D01*
X83994000Y-79416000D02*
X76386000Y-79416000D01*
X83940000Y-79456000D02*
X76440000Y-79456000D01*
X83886000Y-79496000D02*
X76494000Y-79496000D01*
X83830000Y-79536000D02*
X76550000Y-79536000D01*
X83773000Y-79576000D02*
X76607000Y-79576000D01*
X83714000Y-79616000D02*
X76666000Y-79616000D01*
X83654000Y-79656000D02*
X76726000Y-79656000D01*
X83592000Y-79696000D02*
X76788000Y-79696000D01*
X83529000Y-79736000D02*
X76851000Y-79736000D01*
X83465000Y-79776000D02*
X76915000Y-79776000D01*
X83398000Y-79816000D02*
X76982000Y-79816000D01*
X83330000Y-79856000D02*
X77050000Y-79856000D01*
X83259000Y-79896000D02*
X77121000Y-79896000D01*
X83186000Y-79936000D02*
X77194000Y-79936000D01*
X83111000Y-79976000D02*
X77269000Y-79976000D01*
X83034000Y-80016000D02*
X77346000Y-80016000D01*
X82954000Y-80056000D02*
X77426000Y-80056000D01*
X82871000Y-80096000D02*
X77509000Y-80096000D01*
X82784000Y-80136000D02*
X77596000Y-80136000D01*
X82694000Y-80176000D02*
X77686000Y-80176000D01*
X82600000Y-80216000D02*
X77780000Y-80216000D01*
X82502000Y-80256000D02*
X77878000Y-80256000D01*
X82399000Y-80296000D02*
X77981000Y-80296000D01*
X82290000Y-80336000D02*
X78090000Y-80336000D01*
X82174000Y-80376000D02*
X78206000Y-80376000D01*
X82051000Y-80416000D02*
X78329000Y-80416000D01*
X81918000Y-80456000D02*
X78462000Y-80456000D01*
X81773000Y-80496000D02*
X78607000Y-80496000D01*
X81612000Y-80536000D02*
X78768000Y-80536000D01*
X81431000Y-80576000D02*
X78949000Y-80576000D01*
X81218000Y-80616000D02*
X79162000Y-80616000D01*
X80947000Y-80656000D02*
X79433000Y-80656000D01*
X80507000Y-80696000D02*
X79873000Y-80696000D01*
X86560000Y-74335000D02*
G75*
G03*
X86560000Y-74335000I-6370000J0D01*
G01*
%TO.C,J2*%
X47650000Y-54770000D02*
X47650000Y-57270000D01*
X45150000Y-54770000D02*
X47650000Y-54770000D01*
X47400000Y-55020000D02*
X47400000Y-87220000D01*
X31700000Y-55020000D02*
X47400000Y-55020000D01*
X31700000Y-55020000D02*
X31700000Y-87220000D01*
X47400000Y-87220000D02*
X31700000Y-87220000D01*
%TO.C,C3*%
X83765000Y-35052918D02*
X83765000Y-36302918D01*
X84390000Y-35677918D02*
X83140000Y-35677918D01*
X86520000Y-41870000D02*
X73860000Y-41870000D01*
X86520000Y-41910000D02*
X73860000Y-41910000D01*
X86520000Y-41950000D02*
X73860000Y-41950000D01*
X86519000Y-41990000D02*
X73861000Y-41990000D01*
X86518000Y-42030000D02*
X73862000Y-42030000D01*
X86517000Y-42070000D02*
X73863000Y-42070000D01*
X86516000Y-42110000D02*
X73864000Y-42110000D01*
X86514000Y-42150000D02*
X73866000Y-42150000D01*
X86512000Y-42190000D02*
X73868000Y-42190000D01*
X86510000Y-42230000D02*
X73870000Y-42230000D01*
X86508000Y-42270000D02*
X73872000Y-42270000D01*
X86505000Y-42310000D02*
X73875000Y-42310000D01*
X86502000Y-42350000D02*
X73878000Y-42350000D01*
X86499000Y-42390000D02*
X73881000Y-42390000D01*
X86496000Y-42430000D02*
X73884000Y-42430000D01*
X86492000Y-42470000D02*
X73888000Y-42470000D01*
X86488000Y-42510000D02*
X73892000Y-42510000D01*
X86484000Y-42550000D02*
X73896000Y-42550000D01*
X86480000Y-42591000D02*
X73900000Y-42591000D01*
X86475000Y-42631000D02*
X73905000Y-42631000D01*
X86470000Y-42671000D02*
X73910000Y-42671000D01*
X86465000Y-42711000D02*
X73915000Y-42711000D01*
X86459000Y-42751000D02*
X73921000Y-42751000D01*
X86454000Y-42791000D02*
X73926000Y-42791000D01*
X86448000Y-42831000D02*
X73932000Y-42831000D01*
X86442000Y-42871000D02*
X73938000Y-42871000D01*
X86435000Y-42911000D02*
X73945000Y-42911000D01*
X86428000Y-42951000D02*
X81630000Y-42951000D01*
X78750000Y-42951000D02*
X73952000Y-42951000D01*
X86421000Y-42991000D02*
X81630000Y-42991000D01*
X78750000Y-42991000D02*
X73959000Y-42991000D01*
X86414000Y-43031000D02*
X81630000Y-43031000D01*
X78750000Y-43031000D02*
X73966000Y-43031000D01*
X86406000Y-43071000D02*
X81630000Y-43071000D01*
X78750000Y-43071000D02*
X73974000Y-43071000D01*
X86399000Y-43111000D02*
X81630000Y-43111000D01*
X78750000Y-43111000D02*
X73981000Y-43111000D01*
X86391000Y-43151000D02*
X81630000Y-43151000D01*
X78750000Y-43151000D02*
X73989000Y-43151000D01*
X86382000Y-43191000D02*
X81630000Y-43191000D01*
X78750000Y-43191000D02*
X73998000Y-43191000D01*
X86374000Y-43231000D02*
X81630000Y-43231000D01*
X78750000Y-43231000D02*
X74006000Y-43231000D01*
X86365000Y-43271000D02*
X81630000Y-43271000D01*
X78750000Y-43271000D02*
X74015000Y-43271000D01*
X86356000Y-43311000D02*
X81630000Y-43311000D01*
X78750000Y-43311000D02*
X74024000Y-43311000D01*
X86346000Y-43351000D02*
X81630000Y-43351000D01*
X78750000Y-43351000D02*
X74034000Y-43351000D01*
X86336000Y-43391000D02*
X81630000Y-43391000D01*
X78750000Y-43391000D02*
X74044000Y-43391000D01*
X86327000Y-43431000D02*
X81630000Y-43431000D01*
X78750000Y-43431000D02*
X74053000Y-43431000D01*
X86316000Y-43471000D02*
X81630000Y-43471000D01*
X78750000Y-43471000D02*
X74064000Y-43471000D01*
X86306000Y-43511000D02*
X81630000Y-43511000D01*
X78750000Y-43511000D02*
X74074000Y-43511000D01*
X86295000Y-43551000D02*
X81630000Y-43551000D01*
X78750000Y-43551000D02*
X74085000Y-43551000D01*
X86284000Y-43591000D02*
X81630000Y-43591000D01*
X78750000Y-43591000D02*
X74096000Y-43591000D01*
X86273000Y-43631000D02*
X81630000Y-43631000D01*
X78750000Y-43631000D02*
X74107000Y-43631000D01*
X86261000Y-43671000D02*
X81630000Y-43671000D01*
X78750000Y-43671000D02*
X74119000Y-43671000D01*
X86249000Y-43711000D02*
X81630000Y-43711000D01*
X78750000Y-43711000D02*
X74131000Y-43711000D01*
X86237000Y-43751000D02*
X81630000Y-43751000D01*
X78750000Y-43751000D02*
X74143000Y-43751000D01*
X86224000Y-43791000D02*
X81630000Y-43791000D01*
X78750000Y-43791000D02*
X74156000Y-43791000D01*
X86211000Y-43831000D02*
X81630000Y-43831000D01*
X78750000Y-43831000D02*
X74169000Y-43831000D01*
X86198000Y-43871000D02*
X81630000Y-43871000D01*
X78750000Y-43871000D02*
X74182000Y-43871000D01*
X86185000Y-43911000D02*
X81630000Y-43911000D01*
X78750000Y-43911000D02*
X74195000Y-43911000D01*
X86171000Y-43951000D02*
X81630000Y-43951000D01*
X78750000Y-43951000D02*
X74209000Y-43951000D01*
X86157000Y-43991000D02*
X81630000Y-43991000D01*
X78750000Y-43991000D02*
X74223000Y-43991000D01*
X86143000Y-44031000D02*
X81630000Y-44031000D01*
X78750000Y-44031000D02*
X74237000Y-44031000D01*
X86129000Y-44071000D02*
X81630000Y-44071000D01*
X78750000Y-44071000D02*
X74251000Y-44071000D01*
X86114000Y-44111000D02*
X81630000Y-44111000D01*
X78750000Y-44111000D02*
X74266000Y-44111000D01*
X86098000Y-44151000D02*
X81630000Y-44151000D01*
X78750000Y-44151000D02*
X74282000Y-44151000D01*
X86083000Y-44191000D02*
X81630000Y-44191000D01*
X78750000Y-44191000D02*
X74297000Y-44191000D01*
X86067000Y-44231000D02*
X81630000Y-44231000D01*
X78750000Y-44231000D02*
X74313000Y-44231000D01*
X86051000Y-44271000D02*
X81630000Y-44271000D01*
X78750000Y-44271000D02*
X74329000Y-44271000D01*
X86035000Y-44311000D02*
X81630000Y-44311000D01*
X78750000Y-44311000D02*
X74345000Y-44311000D01*
X86018000Y-44351000D02*
X81630000Y-44351000D01*
X78750000Y-44351000D02*
X74362000Y-44351000D01*
X86001000Y-44391000D02*
X81630000Y-44391000D01*
X78750000Y-44391000D02*
X74379000Y-44391000D01*
X85983000Y-44431000D02*
X81630000Y-44431000D01*
X78750000Y-44431000D02*
X74397000Y-44431000D01*
X85966000Y-44471000D02*
X81630000Y-44471000D01*
X78750000Y-44471000D02*
X74414000Y-44471000D01*
X85948000Y-44511000D02*
X81630000Y-44511000D01*
X78750000Y-44511000D02*
X74432000Y-44511000D01*
X85929000Y-44551000D02*
X81630000Y-44551000D01*
X78750000Y-44551000D02*
X74451000Y-44551000D01*
X85911000Y-44591000D02*
X81630000Y-44591000D01*
X78750000Y-44591000D02*
X74469000Y-44591000D01*
X85892000Y-44631000D02*
X81630000Y-44631000D01*
X78750000Y-44631000D02*
X74488000Y-44631000D01*
X85872000Y-44671000D02*
X81630000Y-44671000D01*
X78750000Y-44671000D02*
X74508000Y-44671000D01*
X85852000Y-44711000D02*
X81630000Y-44711000D01*
X78750000Y-44711000D02*
X74528000Y-44711000D01*
X85832000Y-44751000D02*
X81630000Y-44751000D01*
X78750000Y-44751000D02*
X74548000Y-44751000D01*
X85812000Y-44791000D02*
X81630000Y-44791000D01*
X78750000Y-44791000D02*
X74568000Y-44791000D01*
X85791000Y-44831000D02*
X81630000Y-44831000D01*
X78750000Y-44831000D02*
X74589000Y-44831000D01*
X85770000Y-44871000D02*
X81630000Y-44871000D01*
X78750000Y-44871000D02*
X74610000Y-44871000D01*
X85748000Y-44911000D02*
X81630000Y-44911000D01*
X78750000Y-44911000D02*
X74632000Y-44911000D01*
X85726000Y-44951000D02*
X81630000Y-44951000D01*
X78750000Y-44951000D02*
X74654000Y-44951000D01*
X85704000Y-44991000D02*
X81630000Y-44991000D01*
X78750000Y-44991000D02*
X74676000Y-44991000D01*
X85681000Y-45031000D02*
X81630000Y-45031000D01*
X78750000Y-45031000D02*
X74699000Y-45031000D01*
X85658000Y-45071000D02*
X81630000Y-45071000D01*
X78750000Y-45071000D02*
X74722000Y-45071000D01*
X85635000Y-45111000D02*
X81630000Y-45111000D01*
X78750000Y-45111000D02*
X74745000Y-45111000D01*
X85611000Y-45151000D02*
X81630000Y-45151000D01*
X78750000Y-45151000D02*
X74769000Y-45151000D01*
X85587000Y-45191000D02*
X81630000Y-45191000D01*
X78750000Y-45191000D02*
X74793000Y-45191000D01*
X85562000Y-45231000D02*
X81630000Y-45231000D01*
X78750000Y-45231000D02*
X74818000Y-45231000D01*
X85537000Y-45271000D02*
X81630000Y-45271000D01*
X78750000Y-45271000D02*
X74843000Y-45271000D01*
X85512000Y-45311000D02*
X81630000Y-45311000D01*
X78750000Y-45311000D02*
X74868000Y-45311000D01*
X85486000Y-45351000D02*
X81630000Y-45351000D01*
X78750000Y-45351000D02*
X74894000Y-45351000D01*
X85460000Y-45391000D02*
X81630000Y-45391000D01*
X78750000Y-45391000D02*
X74920000Y-45391000D01*
X85433000Y-45431000D02*
X81630000Y-45431000D01*
X78750000Y-45431000D02*
X74947000Y-45431000D01*
X85406000Y-45471000D02*
X81630000Y-45471000D01*
X78750000Y-45471000D02*
X74974000Y-45471000D01*
X85378000Y-45511000D02*
X81630000Y-45511000D01*
X78750000Y-45511000D02*
X75002000Y-45511000D01*
X85350000Y-45551000D02*
X81630000Y-45551000D01*
X78750000Y-45551000D02*
X75030000Y-45551000D01*
X85321000Y-45591000D02*
X81630000Y-45591000D01*
X78750000Y-45591000D02*
X75059000Y-45591000D01*
X85292000Y-45631000D02*
X81630000Y-45631000D01*
X78750000Y-45631000D02*
X75088000Y-45631000D01*
X85263000Y-45671000D02*
X81630000Y-45671000D01*
X78750000Y-45671000D02*
X75117000Y-45671000D01*
X85233000Y-45711000D02*
X81630000Y-45711000D01*
X78750000Y-45711000D02*
X75147000Y-45711000D01*
X85202000Y-45751000D02*
X81630000Y-45751000D01*
X78750000Y-45751000D02*
X75178000Y-45751000D01*
X85172000Y-45791000D02*
X81630000Y-45791000D01*
X78750000Y-45791000D02*
X75208000Y-45791000D01*
X85140000Y-45831000D02*
X75240000Y-45831000D01*
X85108000Y-45871000D02*
X75272000Y-45871000D01*
X85075000Y-45911000D02*
X75305000Y-45911000D01*
X85042000Y-45951000D02*
X75338000Y-45951000D01*
X85009000Y-45991000D02*
X75371000Y-45991000D01*
X84975000Y-46031000D02*
X75405000Y-46031000D01*
X84940000Y-46071000D02*
X75440000Y-46071000D01*
X84904000Y-46111000D02*
X75476000Y-46111000D01*
X84868000Y-46151000D02*
X75512000Y-46151000D01*
X84832000Y-46191000D02*
X75548000Y-46191000D01*
X84795000Y-46231000D02*
X75585000Y-46231000D01*
X84757000Y-46271000D02*
X75623000Y-46271000D01*
X84718000Y-46311000D02*
X75662000Y-46311000D01*
X84679000Y-46351000D02*
X75701000Y-46351000D01*
X84639000Y-46391000D02*
X75741000Y-46391000D01*
X84598000Y-46431000D02*
X75782000Y-46431000D01*
X84557000Y-46471000D02*
X75823000Y-46471000D01*
X84515000Y-46511000D02*
X75865000Y-46511000D01*
X84472000Y-46551000D02*
X75908000Y-46551000D01*
X84428000Y-46591000D02*
X75952000Y-46591000D01*
X84384000Y-46631000D02*
X75996000Y-46631000D01*
X84338000Y-46671000D02*
X76042000Y-46671000D01*
X84292000Y-46711000D02*
X76088000Y-46711000D01*
X84245000Y-46751000D02*
X76135000Y-46751000D01*
X84197000Y-46791000D02*
X76183000Y-46791000D01*
X84147000Y-46831000D02*
X76233000Y-46831000D01*
X84097000Y-46871000D02*
X76283000Y-46871000D01*
X84046000Y-46911000D02*
X76334000Y-46911000D01*
X83994000Y-46951000D02*
X76386000Y-46951000D01*
X83940000Y-46991000D02*
X76440000Y-46991000D01*
X83886000Y-47031000D02*
X76494000Y-47031000D01*
X83830000Y-47071000D02*
X76550000Y-47071000D01*
X83773000Y-47111000D02*
X76607000Y-47111000D01*
X83714000Y-47151000D02*
X76666000Y-47151000D01*
X83654000Y-47191000D02*
X76726000Y-47191000D01*
X83592000Y-47231000D02*
X76788000Y-47231000D01*
X83529000Y-47271000D02*
X76851000Y-47271000D01*
X83465000Y-47311000D02*
X76915000Y-47311000D01*
X83398000Y-47351000D02*
X76982000Y-47351000D01*
X83330000Y-47391000D02*
X77050000Y-47391000D01*
X83259000Y-47431000D02*
X77121000Y-47431000D01*
X83186000Y-47471000D02*
X77194000Y-47471000D01*
X83111000Y-47511000D02*
X77269000Y-47511000D01*
X83034000Y-47551000D02*
X77346000Y-47551000D01*
X82954000Y-47591000D02*
X77426000Y-47591000D01*
X82871000Y-47631000D02*
X77509000Y-47631000D01*
X82784000Y-47671000D02*
X77596000Y-47671000D01*
X82694000Y-47711000D02*
X77686000Y-47711000D01*
X82600000Y-47751000D02*
X77780000Y-47751000D01*
X82502000Y-47791000D02*
X77878000Y-47791000D01*
X82399000Y-47831000D02*
X77981000Y-47831000D01*
X82290000Y-47871000D02*
X78090000Y-47871000D01*
X82174000Y-47911000D02*
X78206000Y-47911000D01*
X82051000Y-47951000D02*
X78329000Y-47951000D01*
X81918000Y-47991000D02*
X78462000Y-47991000D01*
X81773000Y-48031000D02*
X78607000Y-48031000D01*
X81612000Y-48071000D02*
X78768000Y-48071000D01*
X81431000Y-48111000D02*
X78949000Y-48111000D01*
X81218000Y-48151000D02*
X79162000Y-48151000D01*
X80947000Y-48191000D02*
X79433000Y-48191000D01*
X80507000Y-48231000D02*
X79873000Y-48231000D01*
X86560000Y-41870000D02*
G75*
G03*
X86560000Y-41870000I-6370000J0D01*
G01*
%TO.C,Q3*%
X133441000Y-64320000D02*
X128170000Y-64320000D01*
X133441000Y-64320000D02*
X133441000Y-80460000D01*
X128170000Y-64320000D02*
X128170000Y-80460000D01*
X133441000Y-70586000D02*
X128170000Y-70586000D01*
X133441000Y-74195000D02*
X128170000Y-74195000D01*
X133441000Y-80460000D02*
X128170000Y-80460000D01*
%TO.C,U6*%
X90640000Y-77410000D02*
X90640000Y-87690000D01*
X90640000Y-87690000D02*
X95140000Y-87690000D01*
X91890000Y-77410000D02*
X90640000Y-77410000D01*
X95140000Y-77410000D02*
X93890000Y-77410000D01*
X95140000Y-87690000D02*
X95140000Y-77410000D01*
X91890000Y-77410000D02*
G75*
G03*
X93890000Y-77410000I1000000J0D01*
G01*
%TO.C,U7*%
X90640000Y-91380000D02*
X90640000Y-101660000D01*
X90640000Y-101660000D02*
X95140000Y-101660000D01*
X91890000Y-91380000D02*
X90640000Y-91380000D01*
X95140000Y-91380000D02*
X93890000Y-91380000D01*
X95140000Y-101660000D02*
X95140000Y-91380000D01*
X91890000Y-91380000D02*
G75*
G03*
X93890000Y-91380000I1000000J0D01*
G01*
%TO.C,Q4*%
X170271000Y-85910000D02*
X165000000Y-85910000D01*
X170271000Y-85910000D02*
X170271000Y-102050000D01*
X165000000Y-85910000D02*
X165000000Y-102050000D01*
X170271000Y-92176000D02*
X165000000Y-92176000D01*
X170271000Y-95785000D02*
X165000000Y-95785000D01*
X170271000Y-102050000D02*
X165000000Y-102050000D01*
%TO.C,J1*%
X198200000Y-18570000D02*
X200700000Y-18570000D01*
X198200000Y-21070000D02*
X198200000Y-18570000D01*
X198450000Y-18820000D02*
X220650000Y-18820000D01*
X198450000Y-34520000D02*
X198450000Y-18820000D01*
X198450000Y-34520000D02*
X220650000Y-34520000D01*
X220650000Y-18820000D02*
X220650000Y-34520000D01*
%TO.C,U5*%
X90640000Y-59630000D02*
X90640000Y-69910000D01*
X90640000Y-69910000D02*
X95140000Y-69910000D01*
X91890000Y-59630000D02*
X90640000Y-59630000D01*
X95140000Y-59630000D02*
X93890000Y-59630000D01*
X95140000Y-69910000D02*
X95140000Y-59630000D01*
X91890000Y-59630000D02*
G75*
G03*
X93890000Y-59630000I1000000J0D01*
G01*
%TO.C,U4*%
X90625000Y-45670000D02*
X90625000Y-55950000D01*
X90625000Y-55950000D02*
X95125000Y-55950000D01*
X91875000Y-45670000D02*
X90625000Y-45670000D01*
X95125000Y-45670000D02*
X93875000Y-45670000D01*
X95125000Y-55950000D02*
X95125000Y-45670000D01*
X91875000Y-45670000D02*
G75*
G03*
X93875000Y-45670000I1000000J0D01*
G01*
%TO.C,J3*%
X47650000Y-107315000D02*
X47650000Y-109815000D01*
X45150000Y-107315000D02*
X47650000Y-107315000D01*
X47400000Y-107565000D02*
X47400000Y-129765000D01*
X31700000Y-107565000D02*
X47400000Y-107565000D01*
X31700000Y-107565000D02*
X31700000Y-129765000D01*
X47400000Y-129765000D02*
X31700000Y-129765000D01*
%TO.C,C11*%
X83765000Y-97917918D02*
X83765000Y-99167918D01*
X84390000Y-98542918D02*
X83140000Y-98542918D01*
X86520000Y-104735000D02*
X73860000Y-104735000D01*
X86520000Y-104775000D02*
X73860000Y-104775000D01*
X86520000Y-104815000D02*
X73860000Y-104815000D01*
X86519000Y-104855000D02*
X73861000Y-104855000D01*
X86518000Y-104895000D02*
X73862000Y-104895000D01*
X86517000Y-104935000D02*
X73863000Y-104935000D01*
X86516000Y-104975000D02*
X73864000Y-104975000D01*
X86514000Y-105015000D02*
X73866000Y-105015000D01*
X86512000Y-105055000D02*
X73868000Y-105055000D01*
X86510000Y-105095000D02*
X73870000Y-105095000D01*
X86508000Y-105135000D02*
X73872000Y-105135000D01*
X86505000Y-105175000D02*
X73875000Y-105175000D01*
X86502000Y-105215000D02*
X73878000Y-105215000D01*
X86499000Y-105255000D02*
X73881000Y-105255000D01*
X86496000Y-105295000D02*
X73884000Y-105295000D01*
X86492000Y-105335000D02*
X73888000Y-105335000D01*
X86488000Y-105375000D02*
X73892000Y-105375000D01*
X86484000Y-105415000D02*
X73896000Y-105415000D01*
X86480000Y-105456000D02*
X73900000Y-105456000D01*
X86475000Y-105496000D02*
X73905000Y-105496000D01*
X86470000Y-105536000D02*
X73910000Y-105536000D01*
X86465000Y-105576000D02*
X73915000Y-105576000D01*
X86459000Y-105616000D02*
X73921000Y-105616000D01*
X86454000Y-105656000D02*
X73926000Y-105656000D01*
X86448000Y-105696000D02*
X73932000Y-105696000D01*
X86442000Y-105736000D02*
X73938000Y-105736000D01*
X86435000Y-105776000D02*
X73945000Y-105776000D01*
X86428000Y-105816000D02*
X81630000Y-105816000D01*
X78750000Y-105816000D02*
X73952000Y-105816000D01*
X86421000Y-105856000D02*
X81630000Y-105856000D01*
X78750000Y-105856000D02*
X73959000Y-105856000D01*
X86414000Y-105896000D02*
X81630000Y-105896000D01*
X78750000Y-105896000D02*
X73966000Y-105896000D01*
X86406000Y-105936000D02*
X81630000Y-105936000D01*
X78750000Y-105936000D02*
X73974000Y-105936000D01*
X86399000Y-105976000D02*
X81630000Y-105976000D01*
X78750000Y-105976000D02*
X73981000Y-105976000D01*
X86391000Y-106016000D02*
X81630000Y-106016000D01*
X78750000Y-106016000D02*
X73989000Y-106016000D01*
X86382000Y-106056000D02*
X81630000Y-106056000D01*
X78750000Y-106056000D02*
X73998000Y-106056000D01*
X86374000Y-106096000D02*
X81630000Y-106096000D01*
X78750000Y-106096000D02*
X74006000Y-106096000D01*
X86365000Y-106136000D02*
X81630000Y-106136000D01*
X78750000Y-106136000D02*
X74015000Y-106136000D01*
X86356000Y-106176000D02*
X81630000Y-106176000D01*
X78750000Y-106176000D02*
X74024000Y-106176000D01*
X86346000Y-106216000D02*
X81630000Y-106216000D01*
X78750000Y-106216000D02*
X74034000Y-106216000D01*
X86336000Y-106256000D02*
X81630000Y-106256000D01*
X78750000Y-106256000D02*
X74044000Y-106256000D01*
X86327000Y-106296000D02*
X81630000Y-106296000D01*
X78750000Y-106296000D02*
X74053000Y-106296000D01*
X86316000Y-106336000D02*
X81630000Y-106336000D01*
X78750000Y-106336000D02*
X74064000Y-106336000D01*
X86306000Y-106376000D02*
X81630000Y-106376000D01*
X78750000Y-106376000D02*
X74074000Y-106376000D01*
X86295000Y-106416000D02*
X81630000Y-106416000D01*
X78750000Y-106416000D02*
X74085000Y-106416000D01*
X86284000Y-106456000D02*
X81630000Y-106456000D01*
X78750000Y-106456000D02*
X74096000Y-106456000D01*
X86273000Y-106496000D02*
X81630000Y-106496000D01*
X78750000Y-106496000D02*
X74107000Y-106496000D01*
X86261000Y-106536000D02*
X81630000Y-106536000D01*
X78750000Y-106536000D02*
X74119000Y-106536000D01*
X86249000Y-106576000D02*
X81630000Y-106576000D01*
X78750000Y-106576000D02*
X74131000Y-106576000D01*
X86237000Y-106616000D02*
X81630000Y-106616000D01*
X78750000Y-106616000D02*
X74143000Y-106616000D01*
X86224000Y-106656000D02*
X81630000Y-106656000D01*
X78750000Y-106656000D02*
X74156000Y-106656000D01*
X86211000Y-106696000D02*
X81630000Y-106696000D01*
X78750000Y-106696000D02*
X74169000Y-106696000D01*
X86198000Y-106736000D02*
X81630000Y-106736000D01*
X78750000Y-106736000D02*
X74182000Y-106736000D01*
X86185000Y-106776000D02*
X81630000Y-106776000D01*
X78750000Y-106776000D02*
X74195000Y-106776000D01*
X86171000Y-106816000D02*
X81630000Y-106816000D01*
X78750000Y-106816000D02*
X74209000Y-106816000D01*
X86157000Y-106856000D02*
X81630000Y-106856000D01*
X78750000Y-106856000D02*
X74223000Y-106856000D01*
X86143000Y-106896000D02*
X81630000Y-106896000D01*
X78750000Y-106896000D02*
X74237000Y-106896000D01*
X86129000Y-106936000D02*
X81630000Y-106936000D01*
X78750000Y-106936000D02*
X74251000Y-106936000D01*
X86114000Y-106976000D02*
X81630000Y-106976000D01*
X78750000Y-106976000D02*
X74266000Y-106976000D01*
X86098000Y-107016000D02*
X81630000Y-107016000D01*
X78750000Y-107016000D02*
X74282000Y-107016000D01*
X86083000Y-107056000D02*
X81630000Y-107056000D01*
X78750000Y-107056000D02*
X74297000Y-107056000D01*
X86067000Y-107096000D02*
X81630000Y-107096000D01*
X78750000Y-107096000D02*
X74313000Y-107096000D01*
X86051000Y-107136000D02*
X81630000Y-107136000D01*
X78750000Y-107136000D02*
X74329000Y-107136000D01*
X86035000Y-107176000D02*
X81630000Y-107176000D01*
X78750000Y-107176000D02*
X74345000Y-107176000D01*
X86018000Y-107216000D02*
X81630000Y-107216000D01*
X78750000Y-107216000D02*
X74362000Y-107216000D01*
X86001000Y-107256000D02*
X81630000Y-107256000D01*
X78750000Y-107256000D02*
X74379000Y-107256000D01*
X85983000Y-107296000D02*
X81630000Y-107296000D01*
X78750000Y-107296000D02*
X74397000Y-107296000D01*
X85966000Y-107336000D02*
X81630000Y-107336000D01*
X78750000Y-107336000D02*
X74414000Y-107336000D01*
X85948000Y-107376000D02*
X81630000Y-107376000D01*
X78750000Y-107376000D02*
X74432000Y-107376000D01*
X85929000Y-107416000D02*
X81630000Y-107416000D01*
X78750000Y-107416000D02*
X74451000Y-107416000D01*
X85911000Y-107456000D02*
X81630000Y-107456000D01*
X78750000Y-107456000D02*
X74469000Y-107456000D01*
X85892000Y-107496000D02*
X81630000Y-107496000D01*
X78750000Y-107496000D02*
X74488000Y-107496000D01*
X85872000Y-107536000D02*
X81630000Y-107536000D01*
X78750000Y-107536000D02*
X74508000Y-107536000D01*
X85852000Y-107576000D02*
X81630000Y-107576000D01*
X78750000Y-107576000D02*
X74528000Y-107576000D01*
X85832000Y-107616000D02*
X81630000Y-107616000D01*
X78750000Y-107616000D02*
X74548000Y-107616000D01*
X85812000Y-107656000D02*
X81630000Y-107656000D01*
X78750000Y-107656000D02*
X74568000Y-107656000D01*
X85791000Y-107696000D02*
X81630000Y-107696000D01*
X78750000Y-107696000D02*
X74589000Y-107696000D01*
X85770000Y-107736000D02*
X81630000Y-107736000D01*
X78750000Y-107736000D02*
X74610000Y-107736000D01*
X85748000Y-107776000D02*
X81630000Y-107776000D01*
X78750000Y-107776000D02*
X74632000Y-107776000D01*
X85726000Y-107816000D02*
X81630000Y-107816000D01*
X78750000Y-107816000D02*
X74654000Y-107816000D01*
X85704000Y-107856000D02*
X81630000Y-107856000D01*
X78750000Y-107856000D02*
X74676000Y-107856000D01*
X85681000Y-107896000D02*
X81630000Y-107896000D01*
X78750000Y-107896000D02*
X74699000Y-107896000D01*
X85658000Y-107936000D02*
X81630000Y-107936000D01*
X78750000Y-107936000D02*
X74722000Y-107936000D01*
X85635000Y-107976000D02*
X81630000Y-107976000D01*
X78750000Y-107976000D02*
X74745000Y-107976000D01*
X85611000Y-108016000D02*
X81630000Y-108016000D01*
X78750000Y-108016000D02*
X74769000Y-108016000D01*
X85587000Y-108056000D02*
X81630000Y-108056000D01*
X78750000Y-108056000D02*
X74793000Y-108056000D01*
X85562000Y-108096000D02*
X81630000Y-108096000D01*
X78750000Y-108096000D02*
X74818000Y-108096000D01*
X85537000Y-108136000D02*
X81630000Y-108136000D01*
X78750000Y-108136000D02*
X74843000Y-108136000D01*
X85512000Y-108176000D02*
X81630000Y-108176000D01*
X78750000Y-108176000D02*
X74868000Y-108176000D01*
X85486000Y-108216000D02*
X81630000Y-108216000D01*
X78750000Y-108216000D02*
X74894000Y-108216000D01*
X85460000Y-108256000D02*
X81630000Y-108256000D01*
X78750000Y-108256000D02*
X74920000Y-108256000D01*
X85433000Y-108296000D02*
X81630000Y-108296000D01*
X78750000Y-108296000D02*
X74947000Y-108296000D01*
X85406000Y-108336000D02*
X81630000Y-108336000D01*
X78750000Y-108336000D02*
X74974000Y-108336000D01*
X85378000Y-108376000D02*
X81630000Y-108376000D01*
X78750000Y-108376000D02*
X75002000Y-108376000D01*
X85350000Y-108416000D02*
X81630000Y-108416000D01*
X78750000Y-108416000D02*
X75030000Y-108416000D01*
X85321000Y-108456000D02*
X81630000Y-108456000D01*
X78750000Y-108456000D02*
X75059000Y-108456000D01*
X85292000Y-108496000D02*
X81630000Y-108496000D01*
X78750000Y-108496000D02*
X75088000Y-108496000D01*
X85263000Y-108536000D02*
X81630000Y-108536000D01*
X78750000Y-108536000D02*
X75117000Y-108536000D01*
X85233000Y-108576000D02*
X81630000Y-108576000D01*
X78750000Y-108576000D02*
X75147000Y-108576000D01*
X85202000Y-108616000D02*
X81630000Y-108616000D01*
X78750000Y-108616000D02*
X75178000Y-108616000D01*
X85172000Y-108656000D02*
X81630000Y-108656000D01*
X78750000Y-108656000D02*
X75208000Y-108656000D01*
X85140000Y-108696000D02*
X75240000Y-108696000D01*
X85108000Y-108736000D02*
X75272000Y-108736000D01*
X85075000Y-108776000D02*
X75305000Y-108776000D01*
X85042000Y-108816000D02*
X75338000Y-108816000D01*
X85009000Y-108856000D02*
X75371000Y-108856000D01*
X84975000Y-108896000D02*
X75405000Y-108896000D01*
X84940000Y-108936000D02*
X75440000Y-108936000D01*
X84904000Y-108976000D02*
X75476000Y-108976000D01*
X84868000Y-109016000D02*
X75512000Y-109016000D01*
X84832000Y-109056000D02*
X75548000Y-109056000D01*
X84795000Y-109096000D02*
X75585000Y-109096000D01*
X84757000Y-109136000D02*
X75623000Y-109136000D01*
X84718000Y-109176000D02*
X75662000Y-109176000D01*
X84679000Y-109216000D02*
X75701000Y-109216000D01*
X84639000Y-109256000D02*
X75741000Y-109256000D01*
X84598000Y-109296000D02*
X75782000Y-109296000D01*
X84557000Y-109336000D02*
X75823000Y-109336000D01*
X84515000Y-109376000D02*
X75865000Y-109376000D01*
X84472000Y-109416000D02*
X75908000Y-109416000D01*
X84428000Y-109456000D02*
X75952000Y-109456000D01*
X84384000Y-109496000D02*
X75996000Y-109496000D01*
X84338000Y-109536000D02*
X76042000Y-109536000D01*
X84292000Y-109576000D02*
X76088000Y-109576000D01*
X84245000Y-109616000D02*
X76135000Y-109616000D01*
X84197000Y-109656000D02*
X76183000Y-109656000D01*
X84147000Y-109696000D02*
X76233000Y-109696000D01*
X84097000Y-109736000D02*
X76283000Y-109736000D01*
X84046000Y-109776000D02*
X76334000Y-109776000D01*
X83994000Y-109816000D02*
X76386000Y-109816000D01*
X83940000Y-109856000D02*
X76440000Y-109856000D01*
X83886000Y-109896000D02*
X76494000Y-109896000D01*
X83830000Y-109936000D02*
X76550000Y-109936000D01*
X83773000Y-109976000D02*
X76607000Y-109976000D01*
X83714000Y-110016000D02*
X76666000Y-110016000D01*
X83654000Y-110056000D02*
X76726000Y-110056000D01*
X83592000Y-110096000D02*
X76788000Y-110096000D01*
X83529000Y-110136000D02*
X76851000Y-110136000D01*
X83465000Y-110176000D02*
X76915000Y-110176000D01*
X83398000Y-110216000D02*
X76982000Y-110216000D01*
X83330000Y-110256000D02*
X77050000Y-110256000D01*
X83259000Y-110296000D02*
X77121000Y-110296000D01*
X83186000Y-110336000D02*
X77194000Y-110336000D01*
X83111000Y-110376000D02*
X77269000Y-110376000D01*
X83034000Y-110416000D02*
X77346000Y-110416000D01*
X82954000Y-110456000D02*
X77426000Y-110456000D01*
X82871000Y-110496000D02*
X77509000Y-110496000D01*
X82784000Y-110536000D02*
X77596000Y-110536000D01*
X82694000Y-110576000D02*
X77686000Y-110576000D01*
X82600000Y-110616000D02*
X77780000Y-110616000D01*
X82502000Y-110656000D02*
X77878000Y-110656000D01*
X82399000Y-110696000D02*
X77981000Y-110696000D01*
X82290000Y-110736000D02*
X78090000Y-110736000D01*
X82174000Y-110776000D02*
X78206000Y-110776000D01*
X82051000Y-110816000D02*
X78329000Y-110816000D01*
X81918000Y-110856000D02*
X78462000Y-110856000D01*
X81773000Y-110896000D02*
X78607000Y-110896000D01*
X81612000Y-110936000D02*
X78768000Y-110936000D01*
X81431000Y-110976000D02*
X78949000Y-110976000D01*
X81218000Y-111016000D02*
X79162000Y-111016000D01*
X80947000Y-111056000D02*
X79433000Y-111056000D01*
X80507000Y-111096000D02*
X79873000Y-111096000D01*
X86560000Y-104735000D02*
G75*
G03*
X86560000Y-104735000I-6370000J0D01*
G01*
%TO.C,C4*%
X83765000Y-112602918D02*
X83765000Y-113852918D01*
X84390000Y-113227918D02*
X83140000Y-113227918D01*
X86520000Y-119420000D02*
X73860000Y-119420000D01*
X86520000Y-119460000D02*
X73860000Y-119460000D01*
X86520000Y-119500000D02*
X73860000Y-119500000D01*
X86519000Y-119540000D02*
X73861000Y-119540000D01*
X86518000Y-119580000D02*
X73862000Y-119580000D01*
X86517000Y-119620000D02*
X73863000Y-119620000D01*
X86516000Y-119660000D02*
X73864000Y-119660000D01*
X86514000Y-119700000D02*
X73866000Y-119700000D01*
X86512000Y-119740000D02*
X73868000Y-119740000D01*
X86510000Y-119780000D02*
X73870000Y-119780000D01*
X86508000Y-119820000D02*
X73872000Y-119820000D01*
X86505000Y-119860000D02*
X73875000Y-119860000D01*
X86502000Y-119900000D02*
X73878000Y-119900000D01*
X86499000Y-119940000D02*
X73881000Y-119940000D01*
X86496000Y-119980000D02*
X73884000Y-119980000D01*
X86492000Y-120020000D02*
X73888000Y-120020000D01*
X86488000Y-120060000D02*
X73892000Y-120060000D01*
X86484000Y-120100000D02*
X73896000Y-120100000D01*
X86480000Y-120141000D02*
X73900000Y-120141000D01*
X86475000Y-120181000D02*
X73905000Y-120181000D01*
X86470000Y-120221000D02*
X73910000Y-120221000D01*
X86465000Y-120261000D02*
X73915000Y-120261000D01*
X86459000Y-120301000D02*
X73921000Y-120301000D01*
X86454000Y-120341000D02*
X73926000Y-120341000D01*
X86448000Y-120381000D02*
X73932000Y-120381000D01*
X86442000Y-120421000D02*
X73938000Y-120421000D01*
X86435000Y-120461000D02*
X73945000Y-120461000D01*
X86428000Y-120501000D02*
X81630000Y-120501000D01*
X78750000Y-120501000D02*
X73952000Y-120501000D01*
X86421000Y-120541000D02*
X81630000Y-120541000D01*
X78750000Y-120541000D02*
X73959000Y-120541000D01*
X86414000Y-120581000D02*
X81630000Y-120581000D01*
X78750000Y-120581000D02*
X73966000Y-120581000D01*
X86406000Y-120621000D02*
X81630000Y-120621000D01*
X78750000Y-120621000D02*
X73974000Y-120621000D01*
X86399000Y-120661000D02*
X81630000Y-120661000D01*
X78750000Y-120661000D02*
X73981000Y-120661000D01*
X86391000Y-120701000D02*
X81630000Y-120701000D01*
X78750000Y-120701000D02*
X73989000Y-120701000D01*
X86382000Y-120741000D02*
X81630000Y-120741000D01*
X78750000Y-120741000D02*
X73998000Y-120741000D01*
X86374000Y-120781000D02*
X81630000Y-120781000D01*
X78750000Y-120781000D02*
X74006000Y-120781000D01*
X86365000Y-120821000D02*
X81630000Y-120821000D01*
X78750000Y-120821000D02*
X74015000Y-120821000D01*
X86356000Y-120861000D02*
X81630000Y-120861000D01*
X78750000Y-120861000D02*
X74024000Y-120861000D01*
X86346000Y-120901000D02*
X81630000Y-120901000D01*
X78750000Y-120901000D02*
X74034000Y-120901000D01*
X86336000Y-120941000D02*
X81630000Y-120941000D01*
X78750000Y-120941000D02*
X74044000Y-120941000D01*
X86327000Y-120981000D02*
X81630000Y-120981000D01*
X78750000Y-120981000D02*
X74053000Y-120981000D01*
X86316000Y-121021000D02*
X81630000Y-121021000D01*
X78750000Y-121021000D02*
X74064000Y-121021000D01*
X86306000Y-121061000D02*
X81630000Y-121061000D01*
X78750000Y-121061000D02*
X74074000Y-121061000D01*
X86295000Y-121101000D02*
X81630000Y-121101000D01*
X78750000Y-121101000D02*
X74085000Y-121101000D01*
X86284000Y-121141000D02*
X81630000Y-121141000D01*
X78750000Y-121141000D02*
X74096000Y-121141000D01*
X86273000Y-121181000D02*
X81630000Y-121181000D01*
X78750000Y-121181000D02*
X74107000Y-121181000D01*
X86261000Y-121221000D02*
X81630000Y-121221000D01*
X78750000Y-121221000D02*
X74119000Y-121221000D01*
X86249000Y-121261000D02*
X81630000Y-121261000D01*
X78750000Y-121261000D02*
X74131000Y-121261000D01*
X86237000Y-121301000D02*
X81630000Y-121301000D01*
X78750000Y-121301000D02*
X74143000Y-121301000D01*
X86224000Y-121341000D02*
X81630000Y-121341000D01*
X78750000Y-121341000D02*
X74156000Y-121341000D01*
X86211000Y-121381000D02*
X81630000Y-121381000D01*
X78750000Y-121381000D02*
X74169000Y-121381000D01*
X86198000Y-121421000D02*
X81630000Y-121421000D01*
X78750000Y-121421000D02*
X74182000Y-121421000D01*
X86185000Y-121461000D02*
X81630000Y-121461000D01*
X78750000Y-121461000D02*
X74195000Y-121461000D01*
X86171000Y-121501000D02*
X81630000Y-121501000D01*
X78750000Y-121501000D02*
X74209000Y-121501000D01*
X86157000Y-121541000D02*
X81630000Y-121541000D01*
X78750000Y-121541000D02*
X74223000Y-121541000D01*
X86143000Y-121581000D02*
X81630000Y-121581000D01*
X78750000Y-121581000D02*
X74237000Y-121581000D01*
X86129000Y-121621000D02*
X81630000Y-121621000D01*
X78750000Y-121621000D02*
X74251000Y-121621000D01*
X86114000Y-121661000D02*
X81630000Y-121661000D01*
X78750000Y-121661000D02*
X74266000Y-121661000D01*
X86098000Y-121701000D02*
X81630000Y-121701000D01*
X78750000Y-121701000D02*
X74282000Y-121701000D01*
X86083000Y-121741000D02*
X81630000Y-121741000D01*
X78750000Y-121741000D02*
X74297000Y-121741000D01*
X86067000Y-121781000D02*
X81630000Y-121781000D01*
X78750000Y-121781000D02*
X74313000Y-121781000D01*
X86051000Y-121821000D02*
X81630000Y-121821000D01*
X78750000Y-121821000D02*
X74329000Y-121821000D01*
X86035000Y-121861000D02*
X81630000Y-121861000D01*
X78750000Y-121861000D02*
X74345000Y-121861000D01*
X86018000Y-121901000D02*
X81630000Y-121901000D01*
X78750000Y-121901000D02*
X74362000Y-121901000D01*
X86001000Y-121941000D02*
X81630000Y-121941000D01*
X78750000Y-121941000D02*
X74379000Y-121941000D01*
X85983000Y-121981000D02*
X81630000Y-121981000D01*
X78750000Y-121981000D02*
X74397000Y-121981000D01*
X85966000Y-122021000D02*
X81630000Y-122021000D01*
X78750000Y-122021000D02*
X74414000Y-122021000D01*
X85948000Y-122061000D02*
X81630000Y-122061000D01*
X78750000Y-122061000D02*
X74432000Y-122061000D01*
X85929000Y-122101000D02*
X81630000Y-122101000D01*
X78750000Y-122101000D02*
X74451000Y-122101000D01*
X85911000Y-122141000D02*
X81630000Y-122141000D01*
X78750000Y-122141000D02*
X74469000Y-122141000D01*
X85892000Y-122181000D02*
X81630000Y-122181000D01*
X78750000Y-122181000D02*
X74488000Y-122181000D01*
X85872000Y-122221000D02*
X81630000Y-122221000D01*
X78750000Y-122221000D02*
X74508000Y-122221000D01*
X85852000Y-122261000D02*
X81630000Y-122261000D01*
X78750000Y-122261000D02*
X74528000Y-122261000D01*
X85832000Y-122301000D02*
X81630000Y-122301000D01*
X78750000Y-122301000D02*
X74548000Y-122301000D01*
X85812000Y-122341000D02*
X81630000Y-122341000D01*
X78750000Y-122341000D02*
X74568000Y-122341000D01*
X85791000Y-122381000D02*
X81630000Y-122381000D01*
X78750000Y-122381000D02*
X74589000Y-122381000D01*
X85770000Y-122421000D02*
X81630000Y-122421000D01*
X78750000Y-122421000D02*
X74610000Y-122421000D01*
X85748000Y-122461000D02*
X81630000Y-122461000D01*
X78750000Y-122461000D02*
X74632000Y-122461000D01*
X85726000Y-122501000D02*
X81630000Y-122501000D01*
X78750000Y-122501000D02*
X74654000Y-122501000D01*
X85704000Y-122541000D02*
X81630000Y-122541000D01*
X78750000Y-122541000D02*
X74676000Y-122541000D01*
X85681000Y-122581000D02*
X81630000Y-122581000D01*
X78750000Y-122581000D02*
X74699000Y-122581000D01*
X85658000Y-122621000D02*
X81630000Y-122621000D01*
X78750000Y-122621000D02*
X74722000Y-122621000D01*
X85635000Y-122661000D02*
X81630000Y-122661000D01*
X78750000Y-122661000D02*
X74745000Y-122661000D01*
X85611000Y-122701000D02*
X81630000Y-122701000D01*
X78750000Y-122701000D02*
X74769000Y-122701000D01*
X85587000Y-122741000D02*
X81630000Y-122741000D01*
X78750000Y-122741000D02*
X74793000Y-122741000D01*
X85562000Y-122781000D02*
X81630000Y-122781000D01*
X78750000Y-122781000D02*
X74818000Y-122781000D01*
X85537000Y-122821000D02*
X81630000Y-122821000D01*
X78750000Y-122821000D02*
X74843000Y-122821000D01*
X85512000Y-122861000D02*
X81630000Y-122861000D01*
X78750000Y-122861000D02*
X74868000Y-122861000D01*
X85486000Y-122901000D02*
X81630000Y-122901000D01*
X78750000Y-122901000D02*
X74894000Y-122901000D01*
X85460000Y-122941000D02*
X81630000Y-122941000D01*
X78750000Y-122941000D02*
X74920000Y-122941000D01*
X85433000Y-122981000D02*
X81630000Y-122981000D01*
X78750000Y-122981000D02*
X74947000Y-122981000D01*
X85406000Y-123021000D02*
X81630000Y-123021000D01*
X78750000Y-123021000D02*
X74974000Y-123021000D01*
X85378000Y-123061000D02*
X81630000Y-123061000D01*
X78750000Y-123061000D02*
X75002000Y-123061000D01*
X85350000Y-123101000D02*
X81630000Y-123101000D01*
X78750000Y-123101000D02*
X75030000Y-123101000D01*
X85321000Y-123141000D02*
X81630000Y-123141000D01*
X78750000Y-123141000D02*
X75059000Y-123141000D01*
X85292000Y-123181000D02*
X81630000Y-123181000D01*
X78750000Y-123181000D02*
X75088000Y-123181000D01*
X85263000Y-123221000D02*
X81630000Y-123221000D01*
X78750000Y-123221000D02*
X75117000Y-123221000D01*
X85233000Y-123261000D02*
X81630000Y-123261000D01*
X78750000Y-123261000D02*
X75147000Y-123261000D01*
X85202000Y-123301000D02*
X81630000Y-123301000D01*
X78750000Y-123301000D02*
X75178000Y-123301000D01*
X85172000Y-123341000D02*
X81630000Y-123341000D01*
X78750000Y-123341000D02*
X75208000Y-123341000D01*
X85140000Y-123381000D02*
X75240000Y-123381000D01*
X85108000Y-123421000D02*
X75272000Y-123421000D01*
X85075000Y-123461000D02*
X75305000Y-123461000D01*
X85042000Y-123501000D02*
X75338000Y-123501000D01*
X85009000Y-123541000D02*
X75371000Y-123541000D01*
X84975000Y-123581000D02*
X75405000Y-123581000D01*
X84940000Y-123621000D02*
X75440000Y-123621000D01*
X84904000Y-123661000D02*
X75476000Y-123661000D01*
X84868000Y-123701000D02*
X75512000Y-123701000D01*
X84832000Y-123741000D02*
X75548000Y-123741000D01*
X84795000Y-123781000D02*
X75585000Y-123781000D01*
X84757000Y-123821000D02*
X75623000Y-123821000D01*
X84718000Y-123861000D02*
X75662000Y-123861000D01*
X84679000Y-123901000D02*
X75701000Y-123901000D01*
X84639000Y-123941000D02*
X75741000Y-123941000D01*
X84598000Y-123981000D02*
X75782000Y-123981000D01*
X84557000Y-124021000D02*
X75823000Y-124021000D01*
X84515000Y-124061000D02*
X75865000Y-124061000D01*
X84472000Y-124101000D02*
X75908000Y-124101000D01*
X84428000Y-124141000D02*
X75952000Y-124141000D01*
X84384000Y-124181000D02*
X75996000Y-124181000D01*
X84338000Y-124221000D02*
X76042000Y-124221000D01*
X84292000Y-124261000D02*
X76088000Y-124261000D01*
X84245000Y-124301000D02*
X76135000Y-124301000D01*
X84197000Y-124341000D02*
X76183000Y-124341000D01*
X84147000Y-124381000D02*
X76233000Y-124381000D01*
X84097000Y-124421000D02*
X76283000Y-124421000D01*
X84046000Y-124461000D02*
X76334000Y-124461000D01*
X83994000Y-124501000D02*
X76386000Y-124501000D01*
X83940000Y-124541000D02*
X76440000Y-124541000D01*
X83886000Y-124581000D02*
X76494000Y-124581000D01*
X83830000Y-124621000D02*
X76550000Y-124621000D01*
X83773000Y-124661000D02*
X76607000Y-124661000D01*
X83714000Y-124701000D02*
X76666000Y-124701000D01*
X83654000Y-124741000D02*
X76726000Y-124741000D01*
X83592000Y-124781000D02*
X76788000Y-124781000D01*
X83529000Y-124821000D02*
X76851000Y-124821000D01*
X83465000Y-124861000D02*
X76915000Y-124861000D01*
X83398000Y-124901000D02*
X76982000Y-124901000D01*
X83330000Y-124941000D02*
X77050000Y-124941000D01*
X83259000Y-124981000D02*
X77121000Y-124981000D01*
X83186000Y-125021000D02*
X77194000Y-125021000D01*
X83111000Y-125061000D02*
X77269000Y-125061000D01*
X83034000Y-125101000D02*
X77346000Y-125101000D01*
X82954000Y-125141000D02*
X77426000Y-125141000D01*
X82871000Y-125181000D02*
X77509000Y-125181000D01*
X82784000Y-125221000D02*
X77596000Y-125221000D01*
X82694000Y-125261000D02*
X77686000Y-125261000D01*
X82600000Y-125301000D02*
X77780000Y-125301000D01*
X82502000Y-125341000D02*
X77878000Y-125341000D01*
X82399000Y-125381000D02*
X77981000Y-125381000D01*
X82290000Y-125421000D02*
X78090000Y-125421000D01*
X82174000Y-125461000D02*
X78206000Y-125461000D01*
X82051000Y-125501000D02*
X78329000Y-125501000D01*
X81918000Y-125541000D02*
X78462000Y-125541000D01*
X81773000Y-125581000D02*
X78607000Y-125581000D01*
X81612000Y-125621000D02*
X78768000Y-125621000D01*
X81431000Y-125661000D02*
X78949000Y-125661000D01*
X81218000Y-125701000D02*
X79162000Y-125701000D01*
X80947000Y-125741000D02*
X79433000Y-125741000D01*
X80507000Y-125781000D02*
X79873000Y-125781000D01*
X86560000Y-119420000D02*
G75*
G03*
X86560000Y-119420000I-6370000J0D01*
G01*
%TO.C,C12*%
X83765000Y-50292918D02*
X83765000Y-51542918D01*
X84390000Y-50917918D02*
X83140000Y-50917918D01*
X86520000Y-57110000D02*
X73860000Y-57110000D01*
X86520000Y-57150000D02*
X73860000Y-57150000D01*
X86520000Y-57190000D02*
X73860000Y-57190000D01*
X86519000Y-57230000D02*
X73861000Y-57230000D01*
X86518000Y-57270000D02*
X73862000Y-57270000D01*
X86517000Y-57310000D02*
X73863000Y-57310000D01*
X86516000Y-57350000D02*
X73864000Y-57350000D01*
X86514000Y-57390000D02*
X73866000Y-57390000D01*
X86512000Y-57430000D02*
X73868000Y-57430000D01*
X86510000Y-57470000D02*
X73870000Y-57470000D01*
X86508000Y-57510000D02*
X73872000Y-57510000D01*
X86505000Y-57550000D02*
X73875000Y-57550000D01*
X86502000Y-57590000D02*
X73878000Y-57590000D01*
X86499000Y-57630000D02*
X73881000Y-57630000D01*
X86496000Y-57670000D02*
X73884000Y-57670000D01*
X86492000Y-57710000D02*
X73888000Y-57710000D01*
X86488000Y-57750000D02*
X73892000Y-57750000D01*
X86484000Y-57790000D02*
X73896000Y-57790000D01*
X86480000Y-57831000D02*
X73900000Y-57831000D01*
X86475000Y-57871000D02*
X73905000Y-57871000D01*
X86470000Y-57911000D02*
X73910000Y-57911000D01*
X86465000Y-57951000D02*
X73915000Y-57951000D01*
X86459000Y-57991000D02*
X73921000Y-57991000D01*
X86454000Y-58031000D02*
X73926000Y-58031000D01*
X86448000Y-58071000D02*
X73932000Y-58071000D01*
X86442000Y-58111000D02*
X73938000Y-58111000D01*
X86435000Y-58151000D02*
X73945000Y-58151000D01*
X86428000Y-58191000D02*
X81630000Y-58191000D01*
X78750000Y-58191000D02*
X73952000Y-58191000D01*
X86421000Y-58231000D02*
X81630000Y-58231000D01*
X78750000Y-58231000D02*
X73959000Y-58231000D01*
X86414000Y-58271000D02*
X81630000Y-58271000D01*
X78750000Y-58271000D02*
X73966000Y-58271000D01*
X86406000Y-58311000D02*
X81630000Y-58311000D01*
X78750000Y-58311000D02*
X73974000Y-58311000D01*
X86399000Y-58351000D02*
X81630000Y-58351000D01*
X78750000Y-58351000D02*
X73981000Y-58351000D01*
X86391000Y-58391000D02*
X81630000Y-58391000D01*
X78750000Y-58391000D02*
X73989000Y-58391000D01*
X86382000Y-58431000D02*
X81630000Y-58431000D01*
X78750000Y-58431000D02*
X73998000Y-58431000D01*
X86374000Y-58471000D02*
X81630000Y-58471000D01*
X78750000Y-58471000D02*
X74006000Y-58471000D01*
X86365000Y-58511000D02*
X81630000Y-58511000D01*
X78750000Y-58511000D02*
X74015000Y-58511000D01*
X86356000Y-58551000D02*
X81630000Y-58551000D01*
X78750000Y-58551000D02*
X74024000Y-58551000D01*
X86346000Y-58591000D02*
X81630000Y-58591000D01*
X78750000Y-58591000D02*
X74034000Y-58591000D01*
X86336000Y-58631000D02*
X81630000Y-58631000D01*
X78750000Y-58631000D02*
X74044000Y-58631000D01*
X86327000Y-58671000D02*
X81630000Y-58671000D01*
X78750000Y-58671000D02*
X74053000Y-58671000D01*
X86316000Y-58711000D02*
X81630000Y-58711000D01*
X78750000Y-58711000D02*
X74064000Y-58711000D01*
X86306000Y-58751000D02*
X81630000Y-58751000D01*
X78750000Y-58751000D02*
X74074000Y-58751000D01*
X86295000Y-58791000D02*
X81630000Y-58791000D01*
X78750000Y-58791000D02*
X74085000Y-58791000D01*
X86284000Y-58831000D02*
X81630000Y-58831000D01*
X78750000Y-58831000D02*
X74096000Y-58831000D01*
X86273000Y-58871000D02*
X81630000Y-58871000D01*
X78750000Y-58871000D02*
X74107000Y-58871000D01*
X86261000Y-58911000D02*
X81630000Y-58911000D01*
X78750000Y-58911000D02*
X74119000Y-58911000D01*
X86249000Y-58951000D02*
X81630000Y-58951000D01*
X78750000Y-58951000D02*
X74131000Y-58951000D01*
X86237000Y-58991000D02*
X81630000Y-58991000D01*
X78750000Y-58991000D02*
X74143000Y-58991000D01*
X86224000Y-59031000D02*
X81630000Y-59031000D01*
X78750000Y-59031000D02*
X74156000Y-59031000D01*
X86211000Y-59071000D02*
X81630000Y-59071000D01*
X78750000Y-59071000D02*
X74169000Y-59071000D01*
X86198000Y-59111000D02*
X81630000Y-59111000D01*
X78750000Y-59111000D02*
X74182000Y-59111000D01*
X86185000Y-59151000D02*
X81630000Y-59151000D01*
X78750000Y-59151000D02*
X74195000Y-59151000D01*
X86171000Y-59191000D02*
X81630000Y-59191000D01*
X78750000Y-59191000D02*
X74209000Y-59191000D01*
X86157000Y-59231000D02*
X81630000Y-59231000D01*
X78750000Y-59231000D02*
X74223000Y-59231000D01*
X86143000Y-59271000D02*
X81630000Y-59271000D01*
X78750000Y-59271000D02*
X74237000Y-59271000D01*
X86129000Y-59311000D02*
X81630000Y-59311000D01*
X78750000Y-59311000D02*
X74251000Y-59311000D01*
X86114000Y-59351000D02*
X81630000Y-59351000D01*
X78750000Y-59351000D02*
X74266000Y-59351000D01*
X86098000Y-59391000D02*
X81630000Y-59391000D01*
X78750000Y-59391000D02*
X74282000Y-59391000D01*
X86083000Y-59431000D02*
X81630000Y-59431000D01*
X78750000Y-59431000D02*
X74297000Y-59431000D01*
X86067000Y-59471000D02*
X81630000Y-59471000D01*
X78750000Y-59471000D02*
X74313000Y-59471000D01*
X86051000Y-59511000D02*
X81630000Y-59511000D01*
X78750000Y-59511000D02*
X74329000Y-59511000D01*
X86035000Y-59551000D02*
X81630000Y-59551000D01*
X78750000Y-59551000D02*
X74345000Y-59551000D01*
X86018000Y-59591000D02*
X81630000Y-59591000D01*
X78750000Y-59591000D02*
X74362000Y-59591000D01*
X86001000Y-59631000D02*
X81630000Y-59631000D01*
X78750000Y-59631000D02*
X74379000Y-59631000D01*
X85983000Y-59671000D02*
X81630000Y-59671000D01*
X78750000Y-59671000D02*
X74397000Y-59671000D01*
X85966000Y-59711000D02*
X81630000Y-59711000D01*
X78750000Y-59711000D02*
X74414000Y-59711000D01*
X85948000Y-59751000D02*
X81630000Y-59751000D01*
X78750000Y-59751000D02*
X74432000Y-59751000D01*
X85929000Y-59791000D02*
X81630000Y-59791000D01*
X78750000Y-59791000D02*
X74451000Y-59791000D01*
X85911000Y-59831000D02*
X81630000Y-59831000D01*
X78750000Y-59831000D02*
X74469000Y-59831000D01*
X85892000Y-59871000D02*
X81630000Y-59871000D01*
X78750000Y-59871000D02*
X74488000Y-59871000D01*
X85872000Y-59911000D02*
X81630000Y-59911000D01*
X78750000Y-59911000D02*
X74508000Y-59911000D01*
X85852000Y-59951000D02*
X81630000Y-59951000D01*
X78750000Y-59951000D02*
X74528000Y-59951000D01*
X85832000Y-59991000D02*
X81630000Y-59991000D01*
X78750000Y-59991000D02*
X74548000Y-59991000D01*
X85812000Y-60031000D02*
X81630000Y-60031000D01*
X78750000Y-60031000D02*
X74568000Y-60031000D01*
X85791000Y-60071000D02*
X81630000Y-60071000D01*
X78750000Y-60071000D02*
X74589000Y-60071000D01*
X85770000Y-60111000D02*
X81630000Y-60111000D01*
X78750000Y-60111000D02*
X74610000Y-60111000D01*
X85748000Y-60151000D02*
X81630000Y-60151000D01*
X78750000Y-60151000D02*
X74632000Y-60151000D01*
X85726000Y-60191000D02*
X81630000Y-60191000D01*
X78750000Y-60191000D02*
X74654000Y-60191000D01*
X85704000Y-60231000D02*
X81630000Y-60231000D01*
X78750000Y-60231000D02*
X74676000Y-60231000D01*
X85681000Y-60271000D02*
X81630000Y-60271000D01*
X78750000Y-60271000D02*
X74699000Y-60271000D01*
X85658000Y-60311000D02*
X81630000Y-60311000D01*
X78750000Y-60311000D02*
X74722000Y-60311000D01*
X85635000Y-60351000D02*
X81630000Y-60351000D01*
X78750000Y-60351000D02*
X74745000Y-60351000D01*
X85611000Y-60391000D02*
X81630000Y-60391000D01*
X78750000Y-60391000D02*
X74769000Y-60391000D01*
X85587000Y-60431000D02*
X81630000Y-60431000D01*
X78750000Y-60431000D02*
X74793000Y-60431000D01*
X85562000Y-60471000D02*
X81630000Y-60471000D01*
X78750000Y-60471000D02*
X74818000Y-60471000D01*
X85537000Y-60511000D02*
X81630000Y-60511000D01*
X78750000Y-60511000D02*
X74843000Y-60511000D01*
X85512000Y-60551000D02*
X81630000Y-60551000D01*
X78750000Y-60551000D02*
X74868000Y-60551000D01*
X85486000Y-60591000D02*
X81630000Y-60591000D01*
X78750000Y-60591000D02*
X74894000Y-60591000D01*
X85460000Y-60631000D02*
X81630000Y-60631000D01*
X78750000Y-60631000D02*
X74920000Y-60631000D01*
X85433000Y-60671000D02*
X81630000Y-60671000D01*
X78750000Y-60671000D02*
X74947000Y-60671000D01*
X85406000Y-60711000D02*
X81630000Y-60711000D01*
X78750000Y-60711000D02*
X74974000Y-60711000D01*
X85378000Y-60751000D02*
X81630000Y-60751000D01*
X78750000Y-60751000D02*
X75002000Y-60751000D01*
X85350000Y-60791000D02*
X81630000Y-60791000D01*
X78750000Y-60791000D02*
X75030000Y-60791000D01*
X85321000Y-60831000D02*
X81630000Y-60831000D01*
X78750000Y-60831000D02*
X75059000Y-60831000D01*
X85292000Y-60871000D02*
X81630000Y-60871000D01*
X78750000Y-60871000D02*
X75088000Y-60871000D01*
X85263000Y-60911000D02*
X81630000Y-60911000D01*
X78750000Y-60911000D02*
X75117000Y-60911000D01*
X85233000Y-60951000D02*
X81630000Y-60951000D01*
X78750000Y-60951000D02*
X75147000Y-60951000D01*
X85202000Y-60991000D02*
X81630000Y-60991000D01*
X78750000Y-60991000D02*
X75178000Y-60991000D01*
X85172000Y-61031000D02*
X81630000Y-61031000D01*
X78750000Y-61031000D02*
X75208000Y-61031000D01*
X85140000Y-61071000D02*
X75240000Y-61071000D01*
X85108000Y-61111000D02*
X75272000Y-61111000D01*
X85075000Y-61151000D02*
X75305000Y-61151000D01*
X85042000Y-61191000D02*
X75338000Y-61191000D01*
X85009000Y-61231000D02*
X75371000Y-61231000D01*
X84975000Y-61271000D02*
X75405000Y-61271000D01*
X84940000Y-61311000D02*
X75440000Y-61311000D01*
X84904000Y-61351000D02*
X75476000Y-61351000D01*
X84868000Y-61391000D02*
X75512000Y-61391000D01*
X84832000Y-61431000D02*
X75548000Y-61431000D01*
X84795000Y-61471000D02*
X75585000Y-61471000D01*
X84757000Y-61511000D02*
X75623000Y-61511000D01*
X84718000Y-61551000D02*
X75662000Y-61551000D01*
X84679000Y-61591000D02*
X75701000Y-61591000D01*
X84639000Y-61631000D02*
X75741000Y-61631000D01*
X84598000Y-61671000D02*
X75782000Y-61671000D01*
X84557000Y-61711000D02*
X75823000Y-61711000D01*
X84515000Y-61751000D02*
X75865000Y-61751000D01*
X84472000Y-61791000D02*
X75908000Y-61791000D01*
X84428000Y-61831000D02*
X75952000Y-61831000D01*
X84384000Y-61871000D02*
X75996000Y-61871000D01*
X84338000Y-61911000D02*
X76042000Y-61911000D01*
X84292000Y-61951000D02*
X76088000Y-61951000D01*
X84245000Y-61991000D02*
X76135000Y-61991000D01*
X84197000Y-62031000D02*
X76183000Y-62031000D01*
X84147000Y-62071000D02*
X76233000Y-62071000D01*
X84097000Y-62111000D02*
X76283000Y-62111000D01*
X84046000Y-62151000D02*
X76334000Y-62151000D01*
X83994000Y-62191000D02*
X76386000Y-62191000D01*
X83940000Y-62231000D02*
X76440000Y-62231000D01*
X83886000Y-62271000D02*
X76494000Y-62271000D01*
X83830000Y-62311000D02*
X76550000Y-62311000D01*
X83773000Y-62351000D02*
X76607000Y-62351000D01*
X83714000Y-62391000D02*
X76666000Y-62391000D01*
X83654000Y-62431000D02*
X76726000Y-62431000D01*
X83592000Y-62471000D02*
X76788000Y-62471000D01*
X83529000Y-62511000D02*
X76851000Y-62511000D01*
X83465000Y-62551000D02*
X76915000Y-62551000D01*
X83398000Y-62591000D02*
X76982000Y-62591000D01*
X83330000Y-62631000D02*
X77050000Y-62631000D01*
X83259000Y-62671000D02*
X77121000Y-62671000D01*
X83186000Y-62711000D02*
X77194000Y-62711000D01*
X83111000Y-62751000D02*
X77269000Y-62751000D01*
X83034000Y-62791000D02*
X77346000Y-62791000D01*
X82954000Y-62831000D02*
X77426000Y-62831000D01*
X82871000Y-62871000D02*
X77509000Y-62871000D01*
X82784000Y-62911000D02*
X77596000Y-62911000D01*
X82694000Y-62951000D02*
X77686000Y-62951000D01*
X82600000Y-62991000D02*
X77780000Y-62991000D01*
X82502000Y-63031000D02*
X77878000Y-63031000D01*
X82399000Y-63071000D02*
X77981000Y-63071000D01*
X82290000Y-63111000D02*
X78090000Y-63111000D01*
X82174000Y-63151000D02*
X78206000Y-63151000D01*
X82051000Y-63191000D02*
X78329000Y-63191000D01*
X81918000Y-63231000D02*
X78462000Y-63231000D01*
X81773000Y-63271000D02*
X78607000Y-63271000D01*
X81612000Y-63311000D02*
X78768000Y-63311000D01*
X81431000Y-63351000D02*
X78949000Y-63351000D01*
X81218000Y-63391000D02*
X79162000Y-63391000D01*
X80947000Y-63431000D02*
X79433000Y-63431000D01*
X80507000Y-63471000D02*
X79873000Y-63471000D01*
X86560000Y-57110000D02*
G75*
G03*
X86560000Y-57110000I-6370000J0D01*
G01*
%TO.C,J8*%
X227810000Y-80170000D02*
X227810000Y-82670000D01*
X225310000Y-80170000D02*
X227810000Y-80170000D01*
X227560000Y-80420000D02*
X227560000Y-112620000D01*
X211860000Y-80420000D02*
X227560000Y-80420000D01*
X211860000Y-80420000D02*
X211860000Y-112620000D01*
X227560000Y-112620000D02*
X211860000Y-112620000D01*
%TO.C,Q1*%
X133441000Y-19870000D02*
X128170000Y-19870000D01*
X133441000Y-19870000D02*
X133441000Y-36010000D01*
X128170000Y-19870000D02*
X128170000Y-36010000D01*
X133441000Y-26136000D02*
X128170000Y-26136000D01*
X133441000Y-29745000D02*
X128170000Y-29745000D01*
X133441000Y-36010000D02*
X128170000Y-36010000D01*
%TO.C,U1*%
X63970000Y-62424000D02*
X63970000Y-80324000D01*
X63970000Y-80324000D02*
X68470000Y-80324000D01*
X65220000Y-62424000D02*
X63970000Y-62424000D01*
X68470000Y-62424000D02*
X67220000Y-62424000D01*
X68470000Y-80324000D02*
X68470000Y-62424000D01*
X65220000Y-62424000D02*
G75*
G03*
X67220000Y-62424000I1000000J0D01*
G01*
%TD*%
M02*
