M48
; DRILL file {KiCad 7.0.1} date Thu Apr 13 18:21:36 2023
; FORMAT={3:3/ absolute / metric / suppress leading zeros}
; #@! TF.CreationDate,2023-04-13T18:21:36+09:00
; #@! TF.GenerationSoftware,Kicad,Pcbnew,7.0.1
; #@! TF.FileFunction,Plated,1,2,PTH
FMAT,2
METRIC,TZ
; #@! TA.AperFunction,Plated,PTH,ComponentDrill
T1C0.800
; #@! TA.AperFunction,Plated,PTH,ViaDrill
T2C1.000
; #@! TA.AperFunction,Plated,PTH,ComponentDrill
T3C1.200
; #@! TA.AperFunction,Plated,PTH,ComponentDrill
T4C1.500
; #@! TA.AperFunction,Plated,PTH,ComponentDrill
T5C2.200
%
G90
G05
T1
X62410Y-63754
X62410Y-66294
X62410Y-68834
X62410Y-71374
X62410Y-73914
X62410Y-76454
X62410Y-78994
X70030Y-63754
X70030Y-66294
X70030Y-68834
X70030Y-71374
X70030Y-73914
X70030Y-76454
X70030Y-78994
X89065Y-47000
X89065Y-49540
X89065Y-52080
X89065Y-54620
X89080Y-60960
X89080Y-63500
X89080Y-66040
X89080Y-68580
X89080Y-78740
X89080Y-81280
X89080Y-83820
X89080Y-86360
X89080Y-92710
X89080Y-95250
X89080Y-97790
X89080Y-100330
X89080Y-109220
X89080Y-111760
X89080Y-114300
X89080Y-116840
X89080Y-123190
X89080Y-125730
X89080Y-128270
X89080Y-130810
X96685Y-47000
X96685Y-49540
X96685Y-52080
X96685Y-54620
X96700Y-60960
X96700Y-63500
X96700Y-66040
X96700Y-68580
X96700Y-78740
X96700Y-81280
X96700Y-83820
X96700Y-86360
X96700Y-92710
X96700Y-95250
X96700Y-97790
X96700Y-100330
X96700Y-109220
X96700Y-111760
X96700Y-114300
X96700Y-116840
X96700Y-123190
X96700Y-125730
X96700Y-128270
X96700Y-130810
T2
X52070Y-120650
X105410Y-39370
X105410Y-72390
X105410Y-102870
T3
X80190Y-39370
X80190Y-44370
X80190Y-54610
X80190Y-59610
X80190Y-71835
X80190Y-76835
X80190Y-87211
X80190Y-92211
X80190Y-102235
X80190Y-107235
X80190Y-116920
X80190Y-121920
T4
X130990Y-22490
X130990Y-27940
X130990Y-33390
X130990Y-66940
X130990Y-72390
X130990Y-77840
X130990Y-107580
X130990Y-113030
X130990Y-118480
X167820Y-42810
X167820Y-48260
X167820Y-53710
X167820Y-88530
X167820Y-93980
X167820Y-99430
X167820Y-130440
X167820Y-135890
X167820Y-141340
T5
X39550Y-61120
X39550Y-71120
X39550Y-81120
X39550Y-113665
X39550Y-123665
X204550Y-26670
X214550Y-26670
X219710Y-86520
X219710Y-96520
X219710Y-106520
T0
M30
