%TF.GenerationSoftware,KiCad,Pcbnew,7.0.1*%
%TF.CreationDate,2023-04-13T18:21:32+09:00*%
%TF.ProjectId,motor_driver,6d6f746f-725f-4647-9269-7665722e6b69,rev?*%
%TF.SameCoordinates,Original*%
%TF.FileFunction,Legend,Bot*%
%TF.FilePolarity,Positive*%
%FSLAX46Y46*%
G04 Gerber Fmt 4.6, Leading zero omitted, Abs format (unit mm)*
G04 Created by KiCad (PCBNEW 7.0.1) date 2023-04-13 18:21:32*
%MOMM*%
%LPD*%
G01*
G04 APERTURE LIST*
%ADD10C,0.150000*%
%ADD11C,0.120000*%
G04 APERTURE END LIST*
D10*
%TO.C,D1*%
X113632619Y-41171905D02*
X112632619Y-41171905D01*
X112632619Y-41171905D02*
X112632619Y-41410000D01*
X112632619Y-41410000D02*
X112680238Y-41552857D01*
X112680238Y-41552857D02*
X112775476Y-41648095D01*
X112775476Y-41648095D02*
X112870714Y-41695714D01*
X112870714Y-41695714D02*
X113061190Y-41743333D01*
X113061190Y-41743333D02*
X113204047Y-41743333D01*
X113204047Y-41743333D02*
X113394523Y-41695714D01*
X113394523Y-41695714D02*
X113489761Y-41648095D01*
X113489761Y-41648095D02*
X113585000Y-41552857D01*
X113585000Y-41552857D02*
X113632619Y-41410000D01*
X113632619Y-41410000D02*
X113632619Y-41171905D01*
X113632619Y-42695714D02*
X113632619Y-42124286D01*
X113632619Y-42410000D02*
X112632619Y-42410000D01*
X112632619Y-42410000D02*
X112775476Y-42314762D01*
X112775476Y-42314762D02*
X112870714Y-42219524D01*
X112870714Y-42219524D02*
X112918333Y-42124286D01*
%TO.C,C9*%
X92732380Y-112795833D02*
X92780000Y-112748214D01*
X92780000Y-112748214D02*
X92827619Y-112605357D01*
X92827619Y-112605357D02*
X92827619Y-112510119D01*
X92827619Y-112510119D02*
X92780000Y-112367262D01*
X92780000Y-112367262D02*
X92684761Y-112272024D01*
X92684761Y-112272024D02*
X92589523Y-112224405D01*
X92589523Y-112224405D02*
X92399047Y-112176786D01*
X92399047Y-112176786D02*
X92256190Y-112176786D01*
X92256190Y-112176786D02*
X92065714Y-112224405D01*
X92065714Y-112224405D02*
X91970476Y-112272024D01*
X91970476Y-112272024D02*
X91875238Y-112367262D01*
X91875238Y-112367262D02*
X91827619Y-112510119D01*
X91827619Y-112510119D02*
X91827619Y-112605357D01*
X91827619Y-112605357D02*
X91875238Y-112748214D01*
X91875238Y-112748214D02*
X91922857Y-112795833D01*
X92827619Y-113272024D02*
X92827619Y-113462500D01*
X92827619Y-113462500D02*
X92780000Y-113557738D01*
X92780000Y-113557738D02*
X92732380Y-113605357D01*
X92732380Y-113605357D02*
X92589523Y-113700595D01*
X92589523Y-113700595D02*
X92399047Y-113748214D01*
X92399047Y-113748214D02*
X92018095Y-113748214D01*
X92018095Y-113748214D02*
X91922857Y-113700595D01*
X91922857Y-113700595D02*
X91875238Y-113652976D01*
X91875238Y-113652976D02*
X91827619Y-113557738D01*
X91827619Y-113557738D02*
X91827619Y-113367262D01*
X91827619Y-113367262D02*
X91875238Y-113272024D01*
X91875238Y-113272024D02*
X91922857Y-113224405D01*
X91922857Y-113224405D02*
X92018095Y-113176786D01*
X92018095Y-113176786D02*
X92256190Y-113176786D01*
X92256190Y-113176786D02*
X92351428Y-113224405D01*
X92351428Y-113224405D02*
X92399047Y-113272024D01*
X92399047Y-113272024D02*
X92446666Y-113367262D01*
X92446666Y-113367262D02*
X92446666Y-113557738D01*
X92446666Y-113557738D02*
X92399047Y-113652976D01*
X92399047Y-113652976D02*
X92351428Y-113700595D01*
X92351428Y-113700595D02*
X92256190Y-113748214D01*
%TO.C,R19*%
X79562857Y-113652619D02*
X79896190Y-113176428D01*
X80134285Y-113652619D02*
X80134285Y-112652619D01*
X80134285Y-112652619D02*
X79753333Y-112652619D01*
X79753333Y-112652619D02*
X79658095Y-112700238D01*
X79658095Y-112700238D02*
X79610476Y-112747857D01*
X79610476Y-112747857D02*
X79562857Y-112843095D01*
X79562857Y-112843095D02*
X79562857Y-112985952D01*
X79562857Y-112985952D02*
X79610476Y-113081190D01*
X79610476Y-113081190D02*
X79658095Y-113128809D01*
X79658095Y-113128809D02*
X79753333Y-113176428D01*
X79753333Y-113176428D02*
X80134285Y-113176428D01*
X78610476Y-113652619D02*
X79181904Y-113652619D01*
X78896190Y-113652619D02*
X78896190Y-112652619D01*
X78896190Y-112652619D02*
X78991428Y-112795476D01*
X78991428Y-112795476D02*
X79086666Y-112890714D01*
X79086666Y-112890714D02*
X79181904Y-112938333D01*
X78134285Y-113652619D02*
X77943809Y-113652619D01*
X77943809Y-113652619D02*
X77848571Y-113605000D01*
X77848571Y-113605000D02*
X77800952Y-113557380D01*
X77800952Y-113557380D02*
X77705714Y-113414523D01*
X77705714Y-113414523D02*
X77658095Y-113224047D01*
X77658095Y-113224047D02*
X77658095Y-112843095D01*
X77658095Y-112843095D02*
X77705714Y-112747857D01*
X77705714Y-112747857D02*
X77753333Y-112700238D01*
X77753333Y-112700238D02*
X77848571Y-112652619D01*
X77848571Y-112652619D02*
X78039047Y-112652619D01*
X78039047Y-112652619D02*
X78134285Y-112700238D01*
X78134285Y-112700238D02*
X78181904Y-112747857D01*
X78181904Y-112747857D02*
X78229523Y-112843095D01*
X78229523Y-112843095D02*
X78229523Y-113081190D01*
X78229523Y-113081190D02*
X78181904Y-113176428D01*
X78181904Y-113176428D02*
X78134285Y-113224047D01*
X78134285Y-113224047D02*
X78039047Y-113271666D01*
X78039047Y-113271666D02*
X77848571Y-113271666D01*
X77848571Y-113271666D02*
X77753333Y-113224047D01*
X77753333Y-113224047D02*
X77705714Y-113176428D01*
X77705714Y-113176428D02*
X77658095Y-113081190D01*
%TO.C,R11*%
X116372619Y-53054642D02*
X115896428Y-52721309D01*
X116372619Y-52483214D02*
X115372619Y-52483214D01*
X115372619Y-52483214D02*
X115372619Y-52864166D01*
X115372619Y-52864166D02*
X115420238Y-52959404D01*
X115420238Y-52959404D02*
X115467857Y-53007023D01*
X115467857Y-53007023D02*
X115563095Y-53054642D01*
X115563095Y-53054642D02*
X115705952Y-53054642D01*
X115705952Y-53054642D02*
X115801190Y-53007023D01*
X115801190Y-53007023D02*
X115848809Y-52959404D01*
X115848809Y-52959404D02*
X115896428Y-52864166D01*
X115896428Y-52864166D02*
X115896428Y-52483214D01*
X116372619Y-54007023D02*
X116372619Y-53435595D01*
X116372619Y-53721309D02*
X115372619Y-53721309D01*
X115372619Y-53721309D02*
X115515476Y-53626071D01*
X115515476Y-53626071D02*
X115610714Y-53530833D01*
X115610714Y-53530833D02*
X115658333Y-53435595D01*
X116372619Y-54959404D02*
X116372619Y-54387976D01*
X116372619Y-54673690D02*
X115372619Y-54673690D01*
X115372619Y-54673690D02*
X115515476Y-54578452D01*
X115515476Y-54578452D02*
X115610714Y-54483214D01*
X115610714Y-54483214D02*
X115658333Y-54387976D01*
%TO.C,R21*%
X111312857Y-113652619D02*
X111646190Y-113176428D01*
X111884285Y-113652619D02*
X111884285Y-112652619D01*
X111884285Y-112652619D02*
X111503333Y-112652619D01*
X111503333Y-112652619D02*
X111408095Y-112700238D01*
X111408095Y-112700238D02*
X111360476Y-112747857D01*
X111360476Y-112747857D02*
X111312857Y-112843095D01*
X111312857Y-112843095D02*
X111312857Y-112985952D01*
X111312857Y-112985952D02*
X111360476Y-113081190D01*
X111360476Y-113081190D02*
X111408095Y-113128809D01*
X111408095Y-113128809D02*
X111503333Y-113176428D01*
X111503333Y-113176428D02*
X111884285Y-113176428D01*
X110931904Y-112747857D02*
X110884285Y-112700238D01*
X110884285Y-112700238D02*
X110789047Y-112652619D01*
X110789047Y-112652619D02*
X110550952Y-112652619D01*
X110550952Y-112652619D02*
X110455714Y-112700238D01*
X110455714Y-112700238D02*
X110408095Y-112747857D01*
X110408095Y-112747857D02*
X110360476Y-112843095D01*
X110360476Y-112843095D02*
X110360476Y-112938333D01*
X110360476Y-112938333D02*
X110408095Y-113081190D01*
X110408095Y-113081190D02*
X110979523Y-113652619D01*
X110979523Y-113652619D02*
X110360476Y-113652619D01*
X109408095Y-113652619D02*
X109979523Y-113652619D01*
X109693809Y-113652619D02*
X109693809Y-112652619D01*
X109693809Y-112652619D02*
X109789047Y-112795476D01*
X109789047Y-112795476D02*
X109884285Y-112890714D01*
X109884285Y-112890714D02*
X109979523Y-112938333D01*
%TO.C,R3*%
X83032619Y-82025833D02*
X82556428Y-81692500D01*
X83032619Y-81454405D02*
X82032619Y-81454405D01*
X82032619Y-81454405D02*
X82032619Y-81835357D01*
X82032619Y-81835357D02*
X82080238Y-81930595D01*
X82080238Y-81930595D02*
X82127857Y-81978214D01*
X82127857Y-81978214D02*
X82223095Y-82025833D01*
X82223095Y-82025833D02*
X82365952Y-82025833D01*
X82365952Y-82025833D02*
X82461190Y-81978214D01*
X82461190Y-81978214D02*
X82508809Y-81930595D01*
X82508809Y-81930595D02*
X82556428Y-81835357D01*
X82556428Y-81835357D02*
X82556428Y-81454405D01*
X82032619Y-82359167D02*
X82032619Y-82978214D01*
X82032619Y-82978214D02*
X82413571Y-82644881D01*
X82413571Y-82644881D02*
X82413571Y-82787738D01*
X82413571Y-82787738D02*
X82461190Y-82882976D01*
X82461190Y-82882976D02*
X82508809Y-82930595D01*
X82508809Y-82930595D02*
X82604047Y-82978214D01*
X82604047Y-82978214D02*
X82842142Y-82978214D01*
X82842142Y-82978214D02*
X82937380Y-82930595D01*
X82937380Y-82930595D02*
X82985000Y-82882976D01*
X82985000Y-82882976D02*
X83032619Y-82787738D01*
X83032619Y-82787738D02*
X83032619Y-82502024D01*
X83032619Y-82502024D02*
X82985000Y-82406786D01*
X82985000Y-82406786D02*
X82937380Y-82359167D01*
%TO.C,C1*%
X92732380Y-50633333D02*
X92780000Y-50585714D01*
X92780000Y-50585714D02*
X92827619Y-50442857D01*
X92827619Y-50442857D02*
X92827619Y-50347619D01*
X92827619Y-50347619D02*
X92780000Y-50204762D01*
X92780000Y-50204762D02*
X92684761Y-50109524D01*
X92684761Y-50109524D02*
X92589523Y-50061905D01*
X92589523Y-50061905D02*
X92399047Y-50014286D01*
X92399047Y-50014286D02*
X92256190Y-50014286D01*
X92256190Y-50014286D02*
X92065714Y-50061905D01*
X92065714Y-50061905D02*
X91970476Y-50109524D01*
X91970476Y-50109524D02*
X91875238Y-50204762D01*
X91875238Y-50204762D02*
X91827619Y-50347619D01*
X91827619Y-50347619D02*
X91827619Y-50442857D01*
X91827619Y-50442857D02*
X91875238Y-50585714D01*
X91875238Y-50585714D02*
X91922857Y-50633333D01*
X92827619Y-51585714D02*
X92827619Y-51014286D01*
X92827619Y-51300000D02*
X91827619Y-51300000D01*
X91827619Y-51300000D02*
X91970476Y-51204762D01*
X91970476Y-51204762D02*
X92065714Y-51109524D01*
X92065714Y-51109524D02*
X92113333Y-51014286D01*
%TO.C,R24*%
X116372619Y-129254642D02*
X115896428Y-128921309D01*
X116372619Y-128683214D02*
X115372619Y-128683214D01*
X115372619Y-128683214D02*
X115372619Y-129064166D01*
X115372619Y-129064166D02*
X115420238Y-129159404D01*
X115420238Y-129159404D02*
X115467857Y-129207023D01*
X115467857Y-129207023D02*
X115563095Y-129254642D01*
X115563095Y-129254642D02*
X115705952Y-129254642D01*
X115705952Y-129254642D02*
X115801190Y-129207023D01*
X115801190Y-129207023D02*
X115848809Y-129159404D01*
X115848809Y-129159404D02*
X115896428Y-129064166D01*
X115896428Y-129064166D02*
X115896428Y-128683214D01*
X115467857Y-129635595D02*
X115420238Y-129683214D01*
X115420238Y-129683214D02*
X115372619Y-129778452D01*
X115372619Y-129778452D02*
X115372619Y-130016547D01*
X115372619Y-130016547D02*
X115420238Y-130111785D01*
X115420238Y-130111785D02*
X115467857Y-130159404D01*
X115467857Y-130159404D02*
X115563095Y-130207023D01*
X115563095Y-130207023D02*
X115658333Y-130207023D01*
X115658333Y-130207023D02*
X115801190Y-130159404D01*
X115801190Y-130159404D02*
X116372619Y-129587976D01*
X116372619Y-129587976D02*
X116372619Y-130207023D01*
X115705952Y-131064166D02*
X116372619Y-131064166D01*
X115325000Y-130826071D02*
X116039285Y-130587976D01*
X116039285Y-130587976D02*
X116039285Y-131207023D01*
%TO.C,C2*%
X92732380Y-64603333D02*
X92780000Y-64555714D01*
X92780000Y-64555714D02*
X92827619Y-64412857D01*
X92827619Y-64412857D02*
X92827619Y-64317619D01*
X92827619Y-64317619D02*
X92780000Y-64174762D01*
X92780000Y-64174762D02*
X92684761Y-64079524D01*
X92684761Y-64079524D02*
X92589523Y-64031905D01*
X92589523Y-64031905D02*
X92399047Y-63984286D01*
X92399047Y-63984286D02*
X92256190Y-63984286D01*
X92256190Y-63984286D02*
X92065714Y-64031905D01*
X92065714Y-64031905D02*
X91970476Y-64079524D01*
X91970476Y-64079524D02*
X91875238Y-64174762D01*
X91875238Y-64174762D02*
X91827619Y-64317619D01*
X91827619Y-64317619D02*
X91827619Y-64412857D01*
X91827619Y-64412857D02*
X91875238Y-64555714D01*
X91875238Y-64555714D02*
X91922857Y-64603333D01*
X91922857Y-64984286D02*
X91875238Y-65031905D01*
X91875238Y-65031905D02*
X91827619Y-65127143D01*
X91827619Y-65127143D02*
X91827619Y-65365238D01*
X91827619Y-65365238D02*
X91875238Y-65460476D01*
X91875238Y-65460476D02*
X91922857Y-65508095D01*
X91922857Y-65508095D02*
X92018095Y-65555714D01*
X92018095Y-65555714D02*
X92113333Y-65555714D01*
X92113333Y-65555714D02*
X92256190Y-65508095D01*
X92256190Y-65508095D02*
X92827619Y-64936667D01*
X92827619Y-64936667D02*
X92827619Y-65555714D01*
%TO.C,R7*%
X79086666Y-51422619D02*
X79419999Y-50946428D01*
X79658094Y-51422619D02*
X79658094Y-50422619D01*
X79658094Y-50422619D02*
X79277142Y-50422619D01*
X79277142Y-50422619D02*
X79181904Y-50470238D01*
X79181904Y-50470238D02*
X79134285Y-50517857D01*
X79134285Y-50517857D02*
X79086666Y-50613095D01*
X79086666Y-50613095D02*
X79086666Y-50755952D01*
X79086666Y-50755952D02*
X79134285Y-50851190D01*
X79134285Y-50851190D02*
X79181904Y-50898809D01*
X79181904Y-50898809D02*
X79277142Y-50946428D01*
X79277142Y-50946428D02*
X79658094Y-50946428D01*
X78753332Y-50422619D02*
X78086666Y-50422619D01*
X78086666Y-50422619D02*
X78515237Y-51422619D01*
%TO.C,R9*%
X110836666Y-51422619D02*
X111169999Y-50946428D01*
X111408094Y-51422619D02*
X111408094Y-50422619D01*
X111408094Y-50422619D02*
X111027142Y-50422619D01*
X111027142Y-50422619D02*
X110931904Y-50470238D01*
X110931904Y-50470238D02*
X110884285Y-50517857D01*
X110884285Y-50517857D02*
X110836666Y-50613095D01*
X110836666Y-50613095D02*
X110836666Y-50755952D01*
X110836666Y-50755952D02*
X110884285Y-50851190D01*
X110884285Y-50851190D02*
X110931904Y-50898809D01*
X110931904Y-50898809D02*
X111027142Y-50946428D01*
X111027142Y-50946428D02*
X111408094Y-50946428D01*
X110360475Y-51422619D02*
X110169999Y-51422619D01*
X110169999Y-51422619D02*
X110074761Y-51375000D01*
X110074761Y-51375000D02*
X110027142Y-51327380D01*
X110027142Y-51327380D02*
X109931904Y-51184523D01*
X109931904Y-51184523D02*
X109884285Y-50994047D01*
X109884285Y-50994047D02*
X109884285Y-50613095D01*
X109884285Y-50613095D02*
X109931904Y-50517857D01*
X109931904Y-50517857D02*
X109979523Y-50470238D01*
X109979523Y-50470238D02*
X110074761Y-50422619D01*
X110074761Y-50422619D02*
X110265237Y-50422619D01*
X110265237Y-50422619D02*
X110360475Y-50470238D01*
X110360475Y-50470238D02*
X110408094Y-50517857D01*
X110408094Y-50517857D02*
X110455713Y-50613095D01*
X110455713Y-50613095D02*
X110455713Y-50851190D01*
X110455713Y-50851190D02*
X110408094Y-50946428D01*
X110408094Y-50946428D02*
X110360475Y-50994047D01*
X110360475Y-50994047D02*
X110265237Y-51041666D01*
X110265237Y-51041666D02*
X110074761Y-51041666D01*
X110074761Y-51041666D02*
X109979523Y-50994047D01*
X109979523Y-50994047D02*
X109931904Y-50946428D01*
X109931904Y-50946428D02*
X109884285Y-50851190D01*
%TO.C,R20*%
X79562857Y-127622619D02*
X79896190Y-127146428D01*
X80134285Y-127622619D02*
X80134285Y-126622619D01*
X80134285Y-126622619D02*
X79753333Y-126622619D01*
X79753333Y-126622619D02*
X79658095Y-126670238D01*
X79658095Y-126670238D02*
X79610476Y-126717857D01*
X79610476Y-126717857D02*
X79562857Y-126813095D01*
X79562857Y-126813095D02*
X79562857Y-126955952D01*
X79562857Y-126955952D02*
X79610476Y-127051190D01*
X79610476Y-127051190D02*
X79658095Y-127098809D01*
X79658095Y-127098809D02*
X79753333Y-127146428D01*
X79753333Y-127146428D02*
X80134285Y-127146428D01*
X79181904Y-126717857D02*
X79134285Y-126670238D01*
X79134285Y-126670238D02*
X79039047Y-126622619D01*
X79039047Y-126622619D02*
X78800952Y-126622619D01*
X78800952Y-126622619D02*
X78705714Y-126670238D01*
X78705714Y-126670238D02*
X78658095Y-126717857D01*
X78658095Y-126717857D02*
X78610476Y-126813095D01*
X78610476Y-126813095D02*
X78610476Y-126908333D01*
X78610476Y-126908333D02*
X78658095Y-127051190D01*
X78658095Y-127051190D02*
X79229523Y-127622619D01*
X79229523Y-127622619D02*
X78610476Y-127622619D01*
X77991428Y-126622619D02*
X77896190Y-126622619D01*
X77896190Y-126622619D02*
X77800952Y-126670238D01*
X77800952Y-126670238D02*
X77753333Y-126717857D01*
X77753333Y-126717857D02*
X77705714Y-126813095D01*
X77705714Y-126813095D02*
X77658095Y-127003571D01*
X77658095Y-127003571D02*
X77658095Y-127241666D01*
X77658095Y-127241666D02*
X77705714Y-127432142D01*
X77705714Y-127432142D02*
X77753333Y-127527380D01*
X77753333Y-127527380D02*
X77800952Y-127575000D01*
X77800952Y-127575000D02*
X77896190Y-127622619D01*
X77896190Y-127622619D02*
X77991428Y-127622619D01*
X77991428Y-127622619D02*
X78086666Y-127575000D01*
X78086666Y-127575000D02*
X78134285Y-127527380D01*
X78134285Y-127527380D02*
X78181904Y-127432142D01*
X78181904Y-127432142D02*
X78229523Y-127241666D01*
X78229523Y-127241666D02*
X78229523Y-127003571D01*
X78229523Y-127003571D02*
X78181904Y-126813095D01*
X78181904Y-126813095D02*
X78134285Y-126717857D01*
X78134285Y-126717857D02*
X78086666Y-126670238D01*
X78086666Y-126670238D02*
X77991428Y-126622619D01*
%TO.C,R23*%
X116372619Y-115284642D02*
X115896428Y-114951309D01*
X116372619Y-114713214D02*
X115372619Y-114713214D01*
X115372619Y-114713214D02*
X115372619Y-115094166D01*
X115372619Y-115094166D02*
X115420238Y-115189404D01*
X115420238Y-115189404D02*
X115467857Y-115237023D01*
X115467857Y-115237023D02*
X115563095Y-115284642D01*
X115563095Y-115284642D02*
X115705952Y-115284642D01*
X115705952Y-115284642D02*
X115801190Y-115237023D01*
X115801190Y-115237023D02*
X115848809Y-115189404D01*
X115848809Y-115189404D02*
X115896428Y-115094166D01*
X115896428Y-115094166D02*
X115896428Y-114713214D01*
X115467857Y-115665595D02*
X115420238Y-115713214D01*
X115420238Y-115713214D02*
X115372619Y-115808452D01*
X115372619Y-115808452D02*
X115372619Y-116046547D01*
X115372619Y-116046547D02*
X115420238Y-116141785D01*
X115420238Y-116141785D02*
X115467857Y-116189404D01*
X115467857Y-116189404D02*
X115563095Y-116237023D01*
X115563095Y-116237023D02*
X115658333Y-116237023D01*
X115658333Y-116237023D02*
X115801190Y-116189404D01*
X115801190Y-116189404D02*
X116372619Y-115617976D01*
X116372619Y-115617976D02*
X116372619Y-116237023D01*
X115372619Y-116570357D02*
X115372619Y-117189404D01*
X115372619Y-117189404D02*
X115753571Y-116856071D01*
X115753571Y-116856071D02*
X115753571Y-116998928D01*
X115753571Y-116998928D02*
X115801190Y-117094166D01*
X115801190Y-117094166D02*
X115848809Y-117141785D01*
X115848809Y-117141785D02*
X115944047Y-117189404D01*
X115944047Y-117189404D02*
X116182142Y-117189404D01*
X116182142Y-117189404D02*
X116277380Y-117141785D01*
X116277380Y-117141785D02*
X116325000Y-117094166D01*
X116325000Y-117094166D02*
X116372619Y-116998928D01*
X116372619Y-116998928D02*
X116372619Y-116713214D01*
X116372619Y-116713214D02*
X116325000Y-116617976D01*
X116325000Y-116617976D02*
X116277380Y-116570357D01*
%TO.C,D8*%
X125102619Y-117411905D02*
X124102619Y-117411905D01*
X124102619Y-117411905D02*
X124102619Y-117650000D01*
X124102619Y-117650000D02*
X124150238Y-117792857D01*
X124150238Y-117792857D02*
X124245476Y-117888095D01*
X124245476Y-117888095D02*
X124340714Y-117935714D01*
X124340714Y-117935714D02*
X124531190Y-117983333D01*
X124531190Y-117983333D02*
X124674047Y-117983333D01*
X124674047Y-117983333D02*
X124864523Y-117935714D01*
X124864523Y-117935714D02*
X124959761Y-117888095D01*
X124959761Y-117888095D02*
X125055000Y-117792857D01*
X125055000Y-117792857D02*
X125102619Y-117650000D01*
X125102619Y-117650000D02*
X125102619Y-117411905D01*
X124531190Y-118554762D02*
X124483571Y-118459524D01*
X124483571Y-118459524D02*
X124435952Y-118411905D01*
X124435952Y-118411905D02*
X124340714Y-118364286D01*
X124340714Y-118364286D02*
X124293095Y-118364286D01*
X124293095Y-118364286D02*
X124197857Y-118411905D01*
X124197857Y-118411905D02*
X124150238Y-118459524D01*
X124150238Y-118459524D02*
X124102619Y-118554762D01*
X124102619Y-118554762D02*
X124102619Y-118745238D01*
X124102619Y-118745238D02*
X124150238Y-118840476D01*
X124150238Y-118840476D02*
X124197857Y-118888095D01*
X124197857Y-118888095D02*
X124293095Y-118935714D01*
X124293095Y-118935714D02*
X124340714Y-118935714D01*
X124340714Y-118935714D02*
X124435952Y-118888095D01*
X124435952Y-118888095D02*
X124483571Y-118840476D01*
X124483571Y-118840476D02*
X124531190Y-118745238D01*
X124531190Y-118745238D02*
X124531190Y-118554762D01*
X124531190Y-118554762D02*
X124578809Y-118459524D01*
X124578809Y-118459524D02*
X124626428Y-118411905D01*
X124626428Y-118411905D02*
X124721666Y-118364286D01*
X124721666Y-118364286D02*
X124912142Y-118364286D01*
X124912142Y-118364286D02*
X125007380Y-118411905D01*
X125007380Y-118411905D02*
X125055000Y-118459524D01*
X125055000Y-118459524D02*
X125102619Y-118554762D01*
X125102619Y-118554762D02*
X125102619Y-118745238D01*
X125102619Y-118745238D02*
X125055000Y-118840476D01*
X125055000Y-118840476D02*
X125007380Y-118888095D01*
X125007380Y-118888095D02*
X124912142Y-118935714D01*
X124912142Y-118935714D02*
X124721666Y-118935714D01*
X124721666Y-118935714D02*
X124626428Y-118888095D01*
X124626428Y-118888095D02*
X124578809Y-118840476D01*
X124578809Y-118840476D02*
X124531190Y-118745238D01*
%TO.C,D4*%
X125102619Y-55141905D02*
X124102619Y-55141905D01*
X124102619Y-55141905D02*
X124102619Y-55380000D01*
X124102619Y-55380000D02*
X124150238Y-55522857D01*
X124150238Y-55522857D02*
X124245476Y-55618095D01*
X124245476Y-55618095D02*
X124340714Y-55665714D01*
X124340714Y-55665714D02*
X124531190Y-55713333D01*
X124531190Y-55713333D02*
X124674047Y-55713333D01*
X124674047Y-55713333D02*
X124864523Y-55665714D01*
X124864523Y-55665714D02*
X124959761Y-55618095D01*
X124959761Y-55618095D02*
X125055000Y-55522857D01*
X125055000Y-55522857D02*
X125102619Y-55380000D01*
X125102619Y-55380000D02*
X125102619Y-55141905D01*
X124435952Y-56570476D02*
X125102619Y-56570476D01*
X124055000Y-56332381D02*
X124769285Y-56094286D01*
X124769285Y-56094286D02*
X124769285Y-56713333D01*
%TO.C,D7*%
X125102619Y-100861905D02*
X124102619Y-100861905D01*
X124102619Y-100861905D02*
X124102619Y-101100000D01*
X124102619Y-101100000D02*
X124150238Y-101242857D01*
X124150238Y-101242857D02*
X124245476Y-101338095D01*
X124245476Y-101338095D02*
X124340714Y-101385714D01*
X124340714Y-101385714D02*
X124531190Y-101433333D01*
X124531190Y-101433333D02*
X124674047Y-101433333D01*
X124674047Y-101433333D02*
X124864523Y-101385714D01*
X124864523Y-101385714D02*
X124959761Y-101338095D01*
X124959761Y-101338095D02*
X125055000Y-101242857D01*
X125055000Y-101242857D02*
X125102619Y-101100000D01*
X125102619Y-101100000D02*
X125102619Y-100861905D01*
X124102619Y-101766667D02*
X124102619Y-102433333D01*
X124102619Y-102433333D02*
X125102619Y-102004762D01*
%TO.C,D3*%
X113632619Y-104671905D02*
X112632619Y-104671905D01*
X112632619Y-104671905D02*
X112632619Y-104910000D01*
X112632619Y-104910000D02*
X112680238Y-105052857D01*
X112680238Y-105052857D02*
X112775476Y-105148095D01*
X112775476Y-105148095D02*
X112870714Y-105195714D01*
X112870714Y-105195714D02*
X113061190Y-105243333D01*
X113061190Y-105243333D02*
X113204047Y-105243333D01*
X113204047Y-105243333D02*
X113394523Y-105195714D01*
X113394523Y-105195714D02*
X113489761Y-105148095D01*
X113489761Y-105148095D02*
X113585000Y-105052857D01*
X113585000Y-105052857D02*
X113632619Y-104910000D01*
X113632619Y-104910000D02*
X113632619Y-104671905D01*
X112632619Y-105576667D02*
X112632619Y-106195714D01*
X112632619Y-106195714D02*
X113013571Y-105862381D01*
X113013571Y-105862381D02*
X113013571Y-106005238D01*
X113013571Y-106005238D02*
X113061190Y-106100476D01*
X113061190Y-106100476D02*
X113108809Y-106148095D01*
X113108809Y-106148095D02*
X113204047Y-106195714D01*
X113204047Y-106195714D02*
X113442142Y-106195714D01*
X113442142Y-106195714D02*
X113537380Y-106148095D01*
X113537380Y-106148095D02*
X113585000Y-106100476D01*
X113585000Y-106100476D02*
X113632619Y-106005238D01*
X113632619Y-106005238D02*
X113632619Y-105719524D01*
X113632619Y-105719524D02*
X113585000Y-105624286D01*
X113585000Y-105624286D02*
X113537380Y-105576667D01*
%TO.C,R5*%
X83032619Y-112505833D02*
X82556428Y-112172500D01*
X83032619Y-111934405D02*
X82032619Y-111934405D01*
X82032619Y-111934405D02*
X82032619Y-112315357D01*
X82032619Y-112315357D02*
X82080238Y-112410595D01*
X82080238Y-112410595D02*
X82127857Y-112458214D01*
X82127857Y-112458214D02*
X82223095Y-112505833D01*
X82223095Y-112505833D02*
X82365952Y-112505833D01*
X82365952Y-112505833D02*
X82461190Y-112458214D01*
X82461190Y-112458214D02*
X82508809Y-112410595D01*
X82508809Y-112410595D02*
X82556428Y-112315357D01*
X82556428Y-112315357D02*
X82556428Y-111934405D01*
X82032619Y-113410595D02*
X82032619Y-112934405D01*
X82032619Y-112934405D02*
X82508809Y-112886786D01*
X82508809Y-112886786D02*
X82461190Y-112934405D01*
X82461190Y-112934405D02*
X82413571Y-113029643D01*
X82413571Y-113029643D02*
X82413571Y-113267738D01*
X82413571Y-113267738D02*
X82461190Y-113362976D01*
X82461190Y-113362976D02*
X82508809Y-113410595D01*
X82508809Y-113410595D02*
X82604047Y-113458214D01*
X82604047Y-113458214D02*
X82842142Y-113458214D01*
X82842142Y-113458214D02*
X82937380Y-113410595D01*
X82937380Y-113410595D02*
X82985000Y-113362976D01*
X82985000Y-113362976D02*
X83032619Y-113267738D01*
X83032619Y-113267738D02*
X83032619Y-113029643D01*
X83032619Y-113029643D02*
X82985000Y-112934405D01*
X82985000Y-112934405D02*
X82937380Y-112886786D01*
%TO.C,R8*%
X79086666Y-65392619D02*
X79419999Y-64916428D01*
X79658094Y-65392619D02*
X79658094Y-64392619D01*
X79658094Y-64392619D02*
X79277142Y-64392619D01*
X79277142Y-64392619D02*
X79181904Y-64440238D01*
X79181904Y-64440238D02*
X79134285Y-64487857D01*
X79134285Y-64487857D02*
X79086666Y-64583095D01*
X79086666Y-64583095D02*
X79086666Y-64725952D01*
X79086666Y-64725952D02*
X79134285Y-64821190D01*
X79134285Y-64821190D02*
X79181904Y-64868809D01*
X79181904Y-64868809D02*
X79277142Y-64916428D01*
X79277142Y-64916428D02*
X79658094Y-64916428D01*
X78515237Y-64821190D02*
X78610475Y-64773571D01*
X78610475Y-64773571D02*
X78658094Y-64725952D01*
X78658094Y-64725952D02*
X78705713Y-64630714D01*
X78705713Y-64630714D02*
X78705713Y-64583095D01*
X78705713Y-64583095D02*
X78658094Y-64487857D01*
X78658094Y-64487857D02*
X78610475Y-64440238D01*
X78610475Y-64440238D02*
X78515237Y-64392619D01*
X78515237Y-64392619D02*
X78324761Y-64392619D01*
X78324761Y-64392619D02*
X78229523Y-64440238D01*
X78229523Y-64440238D02*
X78181904Y-64487857D01*
X78181904Y-64487857D02*
X78134285Y-64583095D01*
X78134285Y-64583095D02*
X78134285Y-64630714D01*
X78134285Y-64630714D02*
X78181904Y-64725952D01*
X78181904Y-64725952D02*
X78229523Y-64773571D01*
X78229523Y-64773571D02*
X78324761Y-64821190D01*
X78324761Y-64821190D02*
X78515237Y-64821190D01*
X78515237Y-64821190D02*
X78610475Y-64868809D01*
X78610475Y-64868809D02*
X78658094Y-64916428D01*
X78658094Y-64916428D02*
X78705713Y-65011666D01*
X78705713Y-65011666D02*
X78705713Y-65202142D01*
X78705713Y-65202142D02*
X78658094Y-65297380D01*
X78658094Y-65297380D02*
X78610475Y-65345000D01*
X78610475Y-65345000D02*
X78515237Y-65392619D01*
X78515237Y-65392619D02*
X78324761Y-65392619D01*
X78324761Y-65392619D02*
X78229523Y-65345000D01*
X78229523Y-65345000D02*
X78181904Y-65297380D01*
X78181904Y-65297380D02*
X78134285Y-65202142D01*
X78134285Y-65202142D02*
X78134285Y-65011666D01*
X78134285Y-65011666D02*
X78181904Y-64916428D01*
X78181904Y-64916428D02*
X78229523Y-64868809D01*
X78229523Y-64868809D02*
X78324761Y-64821190D01*
%TO.C,R14*%
X79562857Y-97142619D02*
X79896190Y-96666428D01*
X80134285Y-97142619D02*
X80134285Y-96142619D01*
X80134285Y-96142619D02*
X79753333Y-96142619D01*
X79753333Y-96142619D02*
X79658095Y-96190238D01*
X79658095Y-96190238D02*
X79610476Y-96237857D01*
X79610476Y-96237857D02*
X79562857Y-96333095D01*
X79562857Y-96333095D02*
X79562857Y-96475952D01*
X79562857Y-96475952D02*
X79610476Y-96571190D01*
X79610476Y-96571190D02*
X79658095Y-96618809D01*
X79658095Y-96618809D02*
X79753333Y-96666428D01*
X79753333Y-96666428D02*
X80134285Y-96666428D01*
X78610476Y-97142619D02*
X79181904Y-97142619D01*
X78896190Y-97142619D02*
X78896190Y-96142619D01*
X78896190Y-96142619D02*
X78991428Y-96285476D01*
X78991428Y-96285476D02*
X79086666Y-96380714D01*
X79086666Y-96380714D02*
X79181904Y-96428333D01*
X77753333Y-96475952D02*
X77753333Y-97142619D01*
X77991428Y-96095000D02*
X78229523Y-96809285D01*
X78229523Y-96809285D02*
X77610476Y-96809285D01*
%TO.C,R12*%
X116372619Y-67024642D02*
X115896428Y-66691309D01*
X116372619Y-66453214D02*
X115372619Y-66453214D01*
X115372619Y-66453214D02*
X115372619Y-66834166D01*
X115372619Y-66834166D02*
X115420238Y-66929404D01*
X115420238Y-66929404D02*
X115467857Y-66977023D01*
X115467857Y-66977023D02*
X115563095Y-67024642D01*
X115563095Y-67024642D02*
X115705952Y-67024642D01*
X115705952Y-67024642D02*
X115801190Y-66977023D01*
X115801190Y-66977023D02*
X115848809Y-66929404D01*
X115848809Y-66929404D02*
X115896428Y-66834166D01*
X115896428Y-66834166D02*
X115896428Y-66453214D01*
X116372619Y-67977023D02*
X116372619Y-67405595D01*
X116372619Y-67691309D02*
X115372619Y-67691309D01*
X115372619Y-67691309D02*
X115515476Y-67596071D01*
X115515476Y-67596071D02*
X115610714Y-67500833D01*
X115610714Y-67500833D02*
X115658333Y-67405595D01*
X115467857Y-68357976D02*
X115420238Y-68405595D01*
X115420238Y-68405595D02*
X115372619Y-68500833D01*
X115372619Y-68500833D02*
X115372619Y-68738928D01*
X115372619Y-68738928D02*
X115420238Y-68834166D01*
X115420238Y-68834166D02*
X115467857Y-68881785D01*
X115467857Y-68881785D02*
X115563095Y-68929404D01*
X115563095Y-68929404D02*
X115658333Y-68929404D01*
X115658333Y-68929404D02*
X115801190Y-68881785D01*
X115801190Y-68881785D02*
X116372619Y-68310357D01*
X116372619Y-68310357D02*
X116372619Y-68929404D01*
%TO.C,R13*%
X79562857Y-83172619D02*
X79896190Y-82696428D01*
X80134285Y-83172619D02*
X80134285Y-82172619D01*
X80134285Y-82172619D02*
X79753333Y-82172619D01*
X79753333Y-82172619D02*
X79658095Y-82220238D01*
X79658095Y-82220238D02*
X79610476Y-82267857D01*
X79610476Y-82267857D02*
X79562857Y-82363095D01*
X79562857Y-82363095D02*
X79562857Y-82505952D01*
X79562857Y-82505952D02*
X79610476Y-82601190D01*
X79610476Y-82601190D02*
X79658095Y-82648809D01*
X79658095Y-82648809D02*
X79753333Y-82696428D01*
X79753333Y-82696428D02*
X80134285Y-82696428D01*
X78610476Y-83172619D02*
X79181904Y-83172619D01*
X78896190Y-83172619D02*
X78896190Y-82172619D01*
X78896190Y-82172619D02*
X78991428Y-82315476D01*
X78991428Y-82315476D02*
X79086666Y-82410714D01*
X79086666Y-82410714D02*
X79181904Y-82458333D01*
X78277142Y-82172619D02*
X77658095Y-82172619D01*
X77658095Y-82172619D02*
X77991428Y-82553571D01*
X77991428Y-82553571D02*
X77848571Y-82553571D01*
X77848571Y-82553571D02*
X77753333Y-82601190D01*
X77753333Y-82601190D02*
X77705714Y-82648809D01*
X77705714Y-82648809D02*
X77658095Y-82744047D01*
X77658095Y-82744047D02*
X77658095Y-82982142D01*
X77658095Y-82982142D02*
X77705714Y-83077380D01*
X77705714Y-83077380D02*
X77753333Y-83125000D01*
X77753333Y-83125000D02*
X77848571Y-83172619D01*
X77848571Y-83172619D02*
X78134285Y-83172619D01*
X78134285Y-83172619D02*
X78229523Y-83125000D01*
X78229523Y-83125000D02*
X78277142Y-83077380D01*
%TO.C,C6*%
X92732380Y-96353333D02*
X92780000Y-96305714D01*
X92780000Y-96305714D02*
X92827619Y-96162857D01*
X92827619Y-96162857D02*
X92827619Y-96067619D01*
X92827619Y-96067619D02*
X92780000Y-95924762D01*
X92780000Y-95924762D02*
X92684761Y-95829524D01*
X92684761Y-95829524D02*
X92589523Y-95781905D01*
X92589523Y-95781905D02*
X92399047Y-95734286D01*
X92399047Y-95734286D02*
X92256190Y-95734286D01*
X92256190Y-95734286D02*
X92065714Y-95781905D01*
X92065714Y-95781905D02*
X91970476Y-95829524D01*
X91970476Y-95829524D02*
X91875238Y-95924762D01*
X91875238Y-95924762D02*
X91827619Y-96067619D01*
X91827619Y-96067619D02*
X91827619Y-96162857D01*
X91827619Y-96162857D02*
X91875238Y-96305714D01*
X91875238Y-96305714D02*
X91922857Y-96353333D01*
X91827619Y-97210476D02*
X91827619Y-97020000D01*
X91827619Y-97020000D02*
X91875238Y-96924762D01*
X91875238Y-96924762D02*
X91922857Y-96877143D01*
X91922857Y-96877143D02*
X92065714Y-96781905D01*
X92065714Y-96781905D02*
X92256190Y-96734286D01*
X92256190Y-96734286D02*
X92637142Y-96734286D01*
X92637142Y-96734286D02*
X92732380Y-96781905D01*
X92732380Y-96781905D02*
X92780000Y-96829524D01*
X92780000Y-96829524D02*
X92827619Y-96924762D01*
X92827619Y-96924762D02*
X92827619Y-97115238D01*
X92827619Y-97115238D02*
X92780000Y-97210476D01*
X92780000Y-97210476D02*
X92732380Y-97258095D01*
X92732380Y-97258095D02*
X92637142Y-97305714D01*
X92637142Y-97305714D02*
X92399047Y-97305714D01*
X92399047Y-97305714D02*
X92303809Y-97258095D01*
X92303809Y-97258095D02*
X92256190Y-97210476D01*
X92256190Y-97210476D02*
X92208571Y-97115238D01*
X92208571Y-97115238D02*
X92208571Y-96924762D01*
X92208571Y-96924762D02*
X92256190Y-96829524D01*
X92256190Y-96829524D02*
X92303809Y-96781905D01*
X92303809Y-96781905D02*
X92399047Y-96734286D01*
%TO.C,C10*%
X92732380Y-126289642D02*
X92780000Y-126242023D01*
X92780000Y-126242023D02*
X92827619Y-126099166D01*
X92827619Y-126099166D02*
X92827619Y-126003928D01*
X92827619Y-126003928D02*
X92780000Y-125861071D01*
X92780000Y-125861071D02*
X92684761Y-125765833D01*
X92684761Y-125765833D02*
X92589523Y-125718214D01*
X92589523Y-125718214D02*
X92399047Y-125670595D01*
X92399047Y-125670595D02*
X92256190Y-125670595D01*
X92256190Y-125670595D02*
X92065714Y-125718214D01*
X92065714Y-125718214D02*
X91970476Y-125765833D01*
X91970476Y-125765833D02*
X91875238Y-125861071D01*
X91875238Y-125861071D02*
X91827619Y-126003928D01*
X91827619Y-126003928D02*
X91827619Y-126099166D01*
X91827619Y-126099166D02*
X91875238Y-126242023D01*
X91875238Y-126242023D02*
X91922857Y-126289642D01*
X92827619Y-127242023D02*
X92827619Y-126670595D01*
X92827619Y-126956309D02*
X91827619Y-126956309D01*
X91827619Y-126956309D02*
X91970476Y-126861071D01*
X91970476Y-126861071D02*
X92065714Y-126765833D01*
X92065714Y-126765833D02*
X92113333Y-126670595D01*
X91827619Y-127861071D02*
X91827619Y-127956309D01*
X91827619Y-127956309D02*
X91875238Y-128051547D01*
X91875238Y-128051547D02*
X91922857Y-128099166D01*
X91922857Y-128099166D02*
X92018095Y-128146785D01*
X92018095Y-128146785D02*
X92208571Y-128194404D01*
X92208571Y-128194404D02*
X92446666Y-128194404D01*
X92446666Y-128194404D02*
X92637142Y-128146785D01*
X92637142Y-128146785D02*
X92732380Y-128099166D01*
X92732380Y-128099166D02*
X92780000Y-128051547D01*
X92780000Y-128051547D02*
X92827619Y-127956309D01*
X92827619Y-127956309D02*
X92827619Y-127861071D01*
X92827619Y-127861071D02*
X92780000Y-127765833D01*
X92780000Y-127765833D02*
X92732380Y-127718214D01*
X92732380Y-127718214D02*
X92637142Y-127670595D01*
X92637142Y-127670595D02*
X92446666Y-127622976D01*
X92446666Y-127622976D02*
X92208571Y-127622976D01*
X92208571Y-127622976D02*
X92018095Y-127670595D01*
X92018095Y-127670595D02*
X91922857Y-127718214D01*
X91922857Y-127718214D02*
X91875238Y-127765833D01*
X91875238Y-127765833D02*
X91827619Y-127861071D01*
%TO.C,R2*%
X83032619Y-64245833D02*
X82556428Y-63912500D01*
X83032619Y-63674405D02*
X82032619Y-63674405D01*
X82032619Y-63674405D02*
X82032619Y-64055357D01*
X82032619Y-64055357D02*
X82080238Y-64150595D01*
X82080238Y-64150595D02*
X82127857Y-64198214D01*
X82127857Y-64198214D02*
X82223095Y-64245833D01*
X82223095Y-64245833D02*
X82365952Y-64245833D01*
X82365952Y-64245833D02*
X82461190Y-64198214D01*
X82461190Y-64198214D02*
X82508809Y-64150595D01*
X82508809Y-64150595D02*
X82556428Y-64055357D01*
X82556428Y-64055357D02*
X82556428Y-63674405D01*
X82127857Y-64626786D02*
X82080238Y-64674405D01*
X82080238Y-64674405D02*
X82032619Y-64769643D01*
X82032619Y-64769643D02*
X82032619Y-65007738D01*
X82032619Y-65007738D02*
X82080238Y-65102976D01*
X82080238Y-65102976D02*
X82127857Y-65150595D01*
X82127857Y-65150595D02*
X82223095Y-65198214D01*
X82223095Y-65198214D02*
X82318333Y-65198214D01*
X82318333Y-65198214D02*
X82461190Y-65150595D01*
X82461190Y-65150595D02*
X83032619Y-64579167D01*
X83032619Y-64579167D02*
X83032619Y-65198214D01*
%TO.C,R10*%
X111312857Y-65392619D02*
X111646190Y-64916428D01*
X111884285Y-65392619D02*
X111884285Y-64392619D01*
X111884285Y-64392619D02*
X111503333Y-64392619D01*
X111503333Y-64392619D02*
X111408095Y-64440238D01*
X111408095Y-64440238D02*
X111360476Y-64487857D01*
X111360476Y-64487857D02*
X111312857Y-64583095D01*
X111312857Y-64583095D02*
X111312857Y-64725952D01*
X111312857Y-64725952D02*
X111360476Y-64821190D01*
X111360476Y-64821190D02*
X111408095Y-64868809D01*
X111408095Y-64868809D02*
X111503333Y-64916428D01*
X111503333Y-64916428D02*
X111884285Y-64916428D01*
X110360476Y-65392619D02*
X110931904Y-65392619D01*
X110646190Y-65392619D02*
X110646190Y-64392619D01*
X110646190Y-64392619D02*
X110741428Y-64535476D01*
X110741428Y-64535476D02*
X110836666Y-64630714D01*
X110836666Y-64630714D02*
X110931904Y-64678333D01*
X109741428Y-64392619D02*
X109646190Y-64392619D01*
X109646190Y-64392619D02*
X109550952Y-64440238D01*
X109550952Y-64440238D02*
X109503333Y-64487857D01*
X109503333Y-64487857D02*
X109455714Y-64583095D01*
X109455714Y-64583095D02*
X109408095Y-64773571D01*
X109408095Y-64773571D02*
X109408095Y-65011666D01*
X109408095Y-65011666D02*
X109455714Y-65202142D01*
X109455714Y-65202142D02*
X109503333Y-65297380D01*
X109503333Y-65297380D02*
X109550952Y-65345000D01*
X109550952Y-65345000D02*
X109646190Y-65392619D01*
X109646190Y-65392619D02*
X109741428Y-65392619D01*
X109741428Y-65392619D02*
X109836666Y-65345000D01*
X109836666Y-65345000D02*
X109884285Y-65297380D01*
X109884285Y-65297380D02*
X109931904Y-65202142D01*
X109931904Y-65202142D02*
X109979523Y-65011666D01*
X109979523Y-65011666D02*
X109979523Y-64773571D01*
X109979523Y-64773571D02*
X109931904Y-64583095D01*
X109931904Y-64583095D02*
X109884285Y-64487857D01*
X109884285Y-64487857D02*
X109836666Y-64440238D01*
X109836666Y-64440238D02*
X109741428Y-64392619D01*
%TO.C,R6*%
X83032619Y-126475833D02*
X82556428Y-126142500D01*
X83032619Y-125904405D02*
X82032619Y-125904405D01*
X82032619Y-125904405D02*
X82032619Y-126285357D01*
X82032619Y-126285357D02*
X82080238Y-126380595D01*
X82080238Y-126380595D02*
X82127857Y-126428214D01*
X82127857Y-126428214D02*
X82223095Y-126475833D01*
X82223095Y-126475833D02*
X82365952Y-126475833D01*
X82365952Y-126475833D02*
X82461190Y-126428214D01*
X82461190Y-126428214D02*
X82508809Y-126380595D01*
X82508809Y-126380595D02*
X82556428Y-126285357D01*
X82556428Y-126285357D02*
X82556428Y-125904405D01*
X82032619Y-127332976D02*
X82032619Y-127142500D01*
X82032619Y-127142500D02*
X82080238Y-127047262D01*
X82080238Y-127047262D02*
X82127857Y-126999643D01*
X82127857Y-126999643D02*
X82270714Y-126904405D01*
X82270714Y-126904405D02*
X82461190Y-126856786D01*
X82461190Y-126856786D02*
X82842142Y-126856786D01*
X82842142Y-126856786D02*
X82937380Y-126904405D01*
X82937380Y-126904405D02*
X82985000Y-126952024D01*
X82985000Y-126952024D02*
X83032619Y-127047262D01*
X83032619Y-127047262D02*
X83032619Y-127237738D01*
X83032619Y-127237738D02*
X82985000Y-127332976D01*
X82985000Y-127332976D02*
X82937380Y-127380595D01*
X82937380Y-127380595D02*
X82842142Y-127428214D01*
X82842142Y-127428214D02*
X82604047Y-127428214D01*
X82604047Y-127428214D02*
X82508809Y-127380595D01*
X82508809Y-127380595D02*
X82461190Y-127332976D01*
X82461190Y-127332976D02*
X82413571Y-127237738D01*
X82413571Y-127237738D02*
X82413571Y-127047262D01*
X82413571Y-127047262D02*
X82461190Y-126952024D01*
X82461190Y-126952024D02*
X82508809Y-126904405D01*
X82508809Y-126904405D02*
X82604047Y-126856786D01*
%TO.C,R17*%
X116372619Y-84804642D02*
X115896428Y-84471309D01*
X116372619Y-84233214D02*
X115372619Y-84233214D01*
X115372619Y-84233214D02*
X115372619Y-84614166D01*
X115372619Y-84614166D02*
X115420238Y-84709404D01*
X115420238Y-84709404D02*
X115467857Y-84757023D01*
X115467857Y-84757023D02*
X115563095Y-84804642D01*
X115563095Y-84804642D02*
X115705952Y-84804642D01*
X115705952Y-84804642D02*
X115801190Y-84757023D01*
X115801190Y-84757023D02*
X115848809Y-84709404D01*
X115848809Y-84709404D02*
X115896428Y-84614166D01*
X115896428Y-84614166D02*
X115896428Y-84233214D01*
X116372619Y-85757023D02*
X116372619Y-85185595D01*
X116372619Y-85471309D02*
X115372619Y-85471309D01*
X115372619Y-85471309D02*
X115515476Y-85376071D01*
X115515476Y-85376071D02*
X115610714Y-85280833D01*
X115610714Y-85280833D02*
X115658333Y-85185595D01*
X115372619Y-86090357D02*
X115372619Y-86757023D01*
X115372619Y-86757023D02*
X116372619Y-86328452D01*
%TO.C,R18*%
X116372619Y-98774642D02*
X115896428Y-98441309D01*
X116372619Y-98203214D02*
X115372619Y-98203214D01*
X115372619Y-98203214D02*
X115372619Y-98584166D01*
X115372619Y-98584166D02*
X115420238Y-98679404D01*
X115420238Y-98679404D02*
X115467857Y-98727023D01*
X115467857Y-98727023D02*
X115563095Y-98774642D01*
X115563095Y-98774642D02*
X115705952Y-98774642D01*
X115705952Y-98774642D02*
X115801190Y-98727023D01*
X115801190Y-98727023D02*
X115848809Y-98679404D01*
X115848809Y-98679404D02*
X115896428Y-98584166D01*
X115896428Y-98584166D02*
X115896428Y-98203214D01*
X116372619Y-99727023D02*
X116372619Y-99155595D01*
X116372619Y-99441309D02*
X115372619Y-99441309D01*
X115372619Y-99441309D02*
X115515476Y-99346071D01*
X115515476Y-99346071D02*
X115610714Y-99250833D01*
X115610714Y-99250833D02*
X115658333Y-99155595D01*
X115801190Y-100298452D02*
X115753571Y-100203214D01*
X115753571Y-100203214D02*
X115705952Y-100155595D01*
X115705952Y-100155595D02*
X115610714Y-100107976D01*
X115610714Y-100107976D02*
X115563095Y-100107976D01*
X115563095Y-100107976D02*
X115467857Y-100155595D01*
X115467857Y-100155595D02*
X115420238Y-100203214D01*
X115420238Y-100203214D02*
X115372619Y-100298452D01*
X115372619Y-100298452D02*
X115372619Y-100488928D01*
X115372619Y-100488928D02*
X115420238Y-100584166D01*
X115420238Y-100584166D02*
X115467857Y-100631785D01*
X115467857Y-100631785D02*
X115563095Y-100679404D01*
X115563095Y-100679404D02*
X115610714Y-100679404D01*
X115610714Y-100679404D02*
X115705952Y-100631785D01*
X115705952Y-100631785D02*
X115753571Y-100584166D01*
X115753571Y-100584166D02*
X115801190Y-100488928D01*
X115801190Y-100488928D02*
X115801190Y-100298452D01*
X115801190Y-100298452D02*
X115848809Y-100203214D01*
X115848809Y-100203214D02*
X115896428Y-100155595D01*
X115896428Y-100155595D02*
X115991666Y-100107976D01*
X115991666Y-100107976D02*
X116182142Y-100107976D01*
X116182142Y-100107976D02*
X116277380Y-100155595D01*
X116277380Y-100155595D02*
X116325000Y-100203214D01*
X116325000Y-100203214D02*
X116372619Y-100298452D01*
X116372619Y-100298452D02*
X116372619Y-100488928D01*
X116372619Y-100488928D02*
X116325000Y-100584166D01*
X116325000Y-100584166D02*
X116277380Y-100631785D01*
X116277380Y-100631785D02*
X116182142Y-100679404D01*
X116182142Y-100679404D02*
X115991666Y-100679404D01*
X115991666Y-100679404D02*
X115896428Y-100631785D01*
X115896428Y-100631785D02*
X115848809Y-100584166D01*
X115848809Y-100584166D02*
X115801190Y-100488928D01*
%TO.C,R1*%
X83032619Y-50275833D02*
X82556428Y-49942500D01*
X83032619Y-49704405D02*
X82032619Y-49704405D01*
X82032619Y-49704405D02*
X82032619Y-50085357D01*
X82032619Y-50085357D02*
X82080238Y-50180595D01*
X82080238Y-50180595D02*
X82127857Y-50228214D01*
X82127857Y-50228214D02*
X82223095Y-50275833D01*
X82223095Y-50275833D02*
X82365952Y-50275833D01*
X82365952Y-50275833D02*
X82461190Y-50228214D01*
X82461190Y-50228214D02*
X82508809Y-50180595D01*
X82508809Y-50180595D02*
X82556428Y-50085357D01*
X82556428Y-50085357D02*
X82556428Y-49704405D01*
X83032619Y-51228214D02*
X83032619Y-50656786D01*
X83032619Y-50942500D02*
X82032619Y-50942500D01*
X82032619Y-50942500D02*
X82175476Y-50847262D01*
X82175476Y-50847262D02*
X82270714Y-50752024D01*
X82270714Y-50752024D02*
X82318333Y-50656786D01*
%TO.C,D2*%
X113632619Y-74191905D02*
X112632619Y-74191905D01*
X112632619Y-74191905D02*
X112632619Y-74430000D01*
X112632619Y-74430000D02*
X112680238Y-74572857D01*
X112680238Y-74572857D02*
X112775476Y-74668095D01*
X112775476Y-74668095D02*
X112870714Y-74715714D01*
X112870714Y-74715714D02*
X113061190Y-74763333D01*
X113061190Y-74763333D02*
X113204047Y-74763333D01*
X113204047Y-74763333D02*
X113394523Y-74715714D01*
X113394523Y-74715714D02*
X113489761Y-74668095D01*
X113489761Y-74668095D02*
X113585000Y-74572857D01*
X113585000Y-74572857D02*
X113632619Y-74430000D01*
X113632619Y-74430000D02*
X113632619Y-74191905D01*
X112727857Y-75144286D02*
X112680238Y-75191905D01*
X112680238Y-75191905D02*
X112632619Y-75287143D01*
X112632619Y-75287143D02*
X112632619Y-75525238D01*
X112632619Y-75525238D02*
X112680238Y-75620476D01*
X112680238Y-75620476D02*
X112727857Y-75668095D01*
X112727857Y-75668095D02*
X112823095Y-75715714D01*
X112823095Y-75715714D02*
X112918333Y-75715714D01*
X112918333Y-75715714D02*
X113061190Y-75668095D01*
X113061190Y-75668095D02*
X113632619Y-75096667D01*
X113632619Y-75096667D02*
X113632619Y-75715714D01*
%TO.C,D6*%
X125102619Y-86891905D02*
X124102619Y-86891905D01*
X124102619Y-86891905D02*
X124102619Y-87130000D01*
X124102619Y-87130000D02*
X124150238Y-87272857D01*
X124150238Y-87272857D02*
X124245476Y-87368095D01*
X124245476Y-87368095D02*
X124340714Y-87415714D01*
X124340714Y-87415714D02*
X124531190Y-87463333D01*
X124531190Y-87463333D02*
X124674047Y-87463333D01*
X124674047Y-87463333D02*
X124864523Y-87415714D01*
X124864523Y-87415714D02*
X124959761Y-87368095D01*
X124959761Y-87368095D02*
X125055000Y-87272857D01*
X125055000Y-87272857D02*
X125102619Y-87130000D01*
X125102619Y-87130000D02*
X125102619Y-86891905D01*
X124102619Y-88320476D02*
X124102619Y-88130000D01*
X124102619Y-88130000D02*
X124150238Y-88034762D01*
X124150238Y-88034762D02*
X124197857Y-87987143D01*
X124197857Y-87987143D02*
X124340714Y-87891905D01*
X124340714Y-87891905D02*
X124531190Y-87844286D01*
X124531190Y-87844286D02*
X124912142Y-87844286D01*
X124912142Y-87844286D02*
X125007380Y-87891905D01*
X125007380Y-87891905D02*
X125055000Y-87939524D01*
X125055000Y-87939524D02*
X125102619Y-88034762D01*
X125102619Y-88034762D02*
X125102619Y-88225238D01*
X125102619Y-88225238D02*
X125055000Y-88320476D01*
X125055000Y-88320476D02*
X125007380Y-88368095D01*
X125007380Y-88368095D02*
X124912142Y-88415714D01*
X124912142Y-88415714D02*
X124674047Y-88415714D01*
X124674047Y-88415714D02*
X124578809Y-88368095D01*
X124578809Y-88368095D02*
X124531190Y-88320476D01*
X124531190Y-88320476D02*
X124483571Y-88225238D01*
X124483571Y-88225238D02*
X124483571Y-88034762D01*
X124483571Y-88034762D02*
X124531190Y-87939524D01*
X124531190Y-87939524D02*
X124578809Y-87891905D01*
X124578809Y-87891905D02*
X124674047Y-87844286D01*
%TO.C,D5*%
X125102619Y-69111905D02*
X124102619Y-69111905D01*
X124102619Y-69111905D02*
X124102619Y-69350000D01*
X124102619Y-69350000D02*
X124150238Y-69492857D01*
X124150238Y-69492857D02*
X124245476Y-69588095D01*
X124245476Y-69588095D02*
X124340714Y-69635714D01*
X124340714Y-69635714D02*
X124531190Y-69683333D01*
X124531190Y-69683333D02*
X124674047Y-69683333D01*
X124674047Y-69683333D02*
X124864523Y-69635714D01*
X124864523Y-69635714D02*
X124959761Y-69588095D01*
X124959761Y-69588095D02*
X125055000Y-69492857D01*
X125055000Y-69492857D02*
X125102619Y-69350000D01*
X125102619Y-69350000D02*
X125102619Y-69111905D01*
X124102619Y-70588095D02*
X124102619Y-70111905D01*
X124102619Y-70111905D02*
X124578809Y-70064286D01*
X124578809Y-70064286D02*
X124531190Y-70111905D01*
X124531190Y-70111905D02*
X124483571Y-70207143D01*
X124483571Y-70207143D02*
X124483571Y-70445238D01*
X124483571Y-70445238D02*
X124531190Y-70540476D01*
X124531190Y-70540476D02*
X124578809Y-70588095D01*
X124578809Y-70588095D02*
X124674047Y-70635714D01*
X124674047Y-70635714D02*
X124912142Y-70635714D01*
X124912142Y-70635714D02*
X125007380Y-70588095D01*
X125007380Y-70588095D02*
X125055000Y-70540476D01*
X125055000Y-70540476D02*
X125102619Y-70445238D01*
X125102619Y-70445238D02*
X125102619Y-70207143D01*
X125102619Y-70207143D02*
X125055000Y-70111905D01*
X125055000Y-70111905D02*
X125007380Y-70064286D01*
%TO.C,R16*%
X111312857Y-97142619D02*
X111646190Y-96666428D01*
X111884285Y-97142619D02*
X111884285Y-96142619D01*
X111884285Y-96142619D02*
X111503333Y-96142619D01*
X111503333Y-96142619D02*
X111408095Y-96190238D01*
X111408095Y-96190238D02*
X111360476Y-96237857D01*
X111360476Y-96237857D02*
X111312857Y-96333095D01*
X111312857Y-96333095D02*
X111312857Y-96475952D01*
X111312857Y-96475952D02*
X111360476Y-96571190D01*
X111360476Y-96571190D02*
X111408095Y-96618809D01*
X111408095Y-96618809D02*
X111503333Y-96666428D01*
X111503333Y-96666428D02*
X111884285Y-96666428D01*
X110360476Y-97142619D02*
X110931904Y-97142619D01*
X110646190Y-97142619D02*
X110646190Y-96142619D01*
X110646190Y-96142619D02*
X110741428Y-96285476D01*
X110741428Y-96285476D02*
X110836666Y-96380714D01*
X110836666Y-96380714D02*
X110931904Y-96428333D01*
X109503333Y-96142619D02*
X109693809Y-96142619D01*
X109693809Y-96142619D02*
X109789047Y-96190238D01*
X109789047Y-96190238D02*
X109836666Y-96237857D01*
X109836666Y-96237857D02*
X109931904Y-96380714D01*
X109931904Y-96380714D02*
X109979523Y-96571190D01*
X109979523Y-96571190D02*
X109979523Y-96952142D01*
X109979523Y-96952142D02*
X109931904Y-97047380D01*
X109931904Y-97047380D02*
X109884285Y-97095000D01*
X109884285Y-97095000D02*
X109789047Y-97142619D01*
X109789047Y-97142619D02*
X109598571Y-97142619D01*
X109598571Y-97142619D02*
X109503333Y-97095000D01*
X109503333Y-97095000D02*
X109455714Y-97047380D01*
X109455714Y-97047380D02*
X109408095Y-96952142D01*
X109408095Y-96952142D02*
X109408095Y-96714047D01*
X109408095Y-96714047D02*
X109455714Y-96618809D01*
X109455714Y-96618809D02*
X109503333Y-96571190D01*
X109503333Y-96571190D02*
X109598571Y-96523571D01*
X109598571Y-96523571D02*
X109789047Y-96523571D01*
X109789047Y-96523571D02*
X109884285Y-96571190D01*
X109884285Y-96571190D02*
X109931904Y-96618809D01*
X109931904Y-96618809D02*
X109979523Y-96714047D01*
%TO.C,C5*%
X92732380Y-82315833D02*
X92780000Y-82268214D01*
X92780000Y-82268214D02*
X92827619Y-82125357D01*
X92827619Y-82125357D02*
X92827619Y-82030119D01*
X92827619Y-82030119D02*
X92780000Y-81887262D01*
X92780000Y-81887262D02*
X92684761Y-81792024D01*
X92684761Y-81792024D02*
X92589523Y-81744405D01*
X92589523Y-81744405D02*
X92399047Y-81696786D01*
X92399047Y-81696786D02*
X92256190Y-81696786D01*
X92256190Y-81696786D02*
X92065714Y-81744405D01*
X92065714Y-81744405D02*
X91970476Y-81792024D01*
X91970476Y-81792024D02*
X91875238Y-81887262D01*
X91875238Y-81887262D02*
X91827619Y-82030119D01*
X91827619Y-82030119D02*
X91827619Y-82125357D01*
X91827619Y-82125357D02*
X91875238Y-82268214D01*
X91875238Y-82268214D02*
X91922857Y-82315833D01*
X91827619Y-83220595D02*
X91827619Y-82744405D01*
X91827619Y-82744405D02*
X92303809Y-82696786D01*
X92303809Y-82696786D02*
X92256190Y-82744405D01*
X92256190Y-82744405D02*
X92208571Y-82839643D01*
X92208571Y-82839643D02*
X92208571Y-83077738D01*
X92208571Y-83077738D02*
X92256190Y-83172976D01*
X92256190Y-83172976D02*
X92303809Y-83220595D01*
X92303809Y-83220595D02*
X92399047Y-83268214D01*
X92399047Y-83268214D02*
X92637142Y-83268214D01*
X92637142Y-83268214D02*
X92732380Y-83220595D01*
X92732380Y-83220595D02*
X92780000Y-83172976D01*
X92780000Y-83172976D02*
X92827619Y-83077738D01*
X92827619Y-83077738D02*
X92827619Y-82839643D01*
X92827619Y-82839643D02*
X92780000Y-82744405D01*
X92780000Y-82744405D02*
X92732380Y-82696786D01*
%TO.C,R4*%
X83032619Y-95995833D02*
X82556428Y-95662500D01*
X83032619Y-95424405D02*
X82032619Y-95424405D01*
X82032619Y-95424405D02*
X82032619Y-95805357D01*
X82032619Y-95805357D02*
X82080238Y-95900595D01*
X82080238Y-95900595D02*
X82127857Y-95948214D01*
X82127857Y-95948214D02*
X82223095Y-95995833D01*
X82223095Y-95995833D02*
X82365952Y-95995833D01*
X82365952Y-95995833D02*
X82461190Y-95948214D01*
X82461190Y-95948214D02*
X82508809Y-95900595D01*
X82508809Y-95900595D02*
X82556428Y-95805357D01*
X82556428Y-95805357D02*
X82556428Y-95424405D01*
X82365952Y-96852976D02*
X83032619Y-96852976D01*
X81985000Y-96614881D02*
X82699285Y-96376786D01*
X82699285Y-96376786D02*
X82699285Y-96995833D01*
%TO.C,R22*%
X111312857Y-127622619D02*
X111646190Y-127146428D01*
X111884285Y-127622619D02*
X111884285Y-126622619D01*
X111884285Y-126622619D02*
X111503333Y-126622619D01*
X111503333Y-126622619D02*
X111408095Y-126670238D01*
X111408095Y-126670238D02*
X111360476Y-126717857D01*
X111360476Y-126717857D02*
X111312857Y-126813095D01*
X111312857Y-126813095D02*
X111312857Y-126955952D01*
X111312857Y-126955952D02*
X111360476Y-127051190D01*
X111360476Y-127051190D02*
X111408095Y-127098809D01*
X111408095Y-127098809D02*
X111503333Y-127146428D01*
X111503333Y-127146428D02*
X111884285Y-127146428D01*
X110931904Y-126717857D02*
X110884285Y-126670238D01*
X110884285Y-126670238D02*
X110789047Y-126622619D01*
X110789047Y-126622619D02*
X110550952Y-126622619D01*
X110550952Y-126622619D02*
X110455714Y-126670238D01*
X110455714Y-126670238D02*
X110408095Y-126717857D01*
X110408095Y-126717857D02*
X110360476Y-126813095D01*
X110360476Y-126813095D02*
X110360476Y-126908333D01*
X110360476Y-126908333D02*
X110408095Y-127051190D01*
X110408095Y-127051190D02*
X110979523Y-127622619D01*
X110979523Y-127622619D02*
X110360476Y-127622619D01*
X109979523Y-126717857D02*
X109931904Y-126670238D01*
X109931904Y-126670238D02*
X109836666Y-126622619D01*
X109836666Y-126622619D02*
X109598571Y-126622619D01*
X109598571Y-126622619D02*
X109503333Y-126670238D01*
X109503333Y-126670238D02*
X109455714Y-126717857D01*
X109455714Y-126717857D02*
X109408095Y-126813095D01*
X109408095Y-126813095D02*
X109408095Y-126908333D01*
X109408095Y-126908333D02*
X109455714Y-127051190D01*
X109455714Y-127051190D02*
X110027142Y-127622619D01*
X110027142Y-127622619D02*
X109408095Y-127622619D01*
%TO.C,R15*%
X111312857Y-83172619D02*
X111646190Y-82696428D01*
X111884285Y-83172619D02*
X111884285Y-82172619D01*
X111884285Y-82172619D02*
X111503333Y-82172619D01*
X111503333Y-82172619D02*
X111408095Y-82220238D01*
X111408095Y-82220238D02*
X111360476Y-82267857D01*
X111360476Y-82267857D02*
X111312857Y-82363095D01*
X111312857Y-82363095D02*
X111312857Y-82505952D01*
X111312857Y-82505952D02*
X111360476Y-82601190D01*
X111360476Y-82601190D02*
X111408095Y-82648809D01*
X111408095Y-82648809D02*
X111503333Y-82696428D01*
X111503333Y-82696428D02*
X111884285Y-82696428D01*
X110360476Y-83172619D02*
X110931904Y-83172619D01*
X110646190Y-83172619D02*
X110646190Y-82172619D01*
X110646190Y-82172619D02*
X110741428Y-82315476D01*
X110741428Y-82315476D02*
X110836666Y-82410714D01*
X110836666Y-82410714D02*
X110931904Y-82458333D01*
X109455714Y-82172619D02*
X109931904Y-82172619D01*
X109931904Y-82172619D02*
X109979523Y-82648809D01*
X109979523Y-82648809D02*
X109931904Y-82601190D01*
X109931904Y-82601190D02*
X109836666Y-82553571D01*
X109836666Y-82553571D02*
X109598571Y-82553571D01*
X109598571Y-82553571D02*
X109503333Y-82601190D01*
X109503333Y-82601190D02*
X109455714Y-82648809D01*
X109455714Y-82648809D02*
X109408095Y-82744047D01*
X109408095Y-82744047D02*
X109408095Y-82982142D01*
X109408095Y-82982142D02*
X109455714Y-83077380D01*
X109455714Y-83077380D02*
X109503333Y-83125000D01*
X109503333Y-83125000D02*
X109598571Y-83172619D01*
X109598571Y-83172619D02*
X109836666Y-83172619D01*
X109836666Y-83172619D02*
X109931904Y-83125000D01*
X109931904Y-83125000D02*
X109979523Y-83077380D01*
%TO.C,D9*%
X125102619Y-131341905D02*
X124102619Y-131341905D01*
X124102619Y-131341905D02*
X124102619Y-131580000D01*
X124102619Y-131580000D02*
X124150238Y-131722857D01*
X124150238Y-131722857D02*
X124245476Y-131818095D01*
X124245476Y-131818095D02*
X124340714Y-131865714D01*
X124340714Y-131865714D02*
X124531190Y-131913333D01*
X124531190Y-131913333D02*
X124674047Y-131913333D01*
X124674047Y-131913333D02*
X124864523Y-131865714D01*
X124864523Y-131865714D02*
X124959761Y-131818095D01*
X124959761Y-131818095D02*
X125055000Y-131722857D01*
X125055000Y-131722857D02*
X125102619Y-131580000D01*
X125102619Y-131580000D02*
X125102619Y-131341905D01*
X125102619Y-132389524D02*
X125102619Y-132580000D01*
X125102619Y-132580000D02*
X125055000Y-132675238D01*
X125055000Y-132675238D02*
X125007380Y-132722857D01*
X125007380Y-132722857D02*
X124864523Y-132818095D01*
X124864523Y-132818095D02*
X124674047Y-132865714D01*
X124674047Y-132865714D02*
X124293095Y-132865714D01*
X124293095Y-132865714D02*
X124197857Y-132818095D01*
X124197857Y-132818095D02*
X124150238Y-132770476D01*
X124150238Y-132770476D02*
X124102619Y-132675238D01*
X124102619Y-132675238D02*
X124102619Y-132484762D01*
X124102619Y-132484762D02*
X124150238Y-132389524D01*
X124150238Y-132389524D02*
X124197857Y-132341905D01*
X124197857Y-132341905D02*
X124293095Y-132294286D01*
X124293095Y-132294286D02*
X124531190Y-132294286D01*
X124531190Y-132294286D02*
X124626428Y-132341905D01*
X124626428Y-132341905D02*
X124674047Y-132389524D01*
X124674047Y-132389524D02*
X124721666Y-132484762D01*
X124721666Y-132484762D02*
X124721666Y-132675238D01*
X124721666Y-132675238D02*
X124674047Y-132770476D01*
X124674047Y-132770476D02*
X124626428Y-132818095D01*
X124626428Y-132818095D02*
X124531190Y-132865714D01*
D11*
%TO.C,D1*%
X109020000Y-46420000D02*
X109020000Y-39410000D01*
X112320000Y-46420000D02*
X109020000Y-46420000D01*
X112320000Y-46420000D02*
X112320000Y-39410000D01*
%TO.C,C9*%
X93885000Y-112846665D02*
X93885000Y-113078335D01*
X93165000Y-112846665D02*
X93165000Y-113078335D01*
%TO.C,R19*%
X78665276Y-111237500D02*
X79174724Y-111237500D01*
X78665276Y-112282500D02*
X79174724Y-112282500D01*
%TO.C,R11*%
X113957500Y-53952224D02*
X113957500Y-53442776D01*
X115002500Y-53952224D02*
X115002500Y-53442776D01*
%TO.C,R21*%
X110415276Y-111237500D02*
X110924724Y-111237500D01*
X110415276Y-112282500D02*
X110924724Y-112282500D01*
%TO.C,R3*%
X84522500Y-81937776D02*
X84522500Y-82447224D01*
X83477500Y-81937776D02*
X83477500Y-82447224D01*
%TO.C,C1*%
X93885000Y-50684165D02*
X93885000Y-50915835D01*
X93165000Y-50684165D02*
X93165000Y-50915835D01*
%TO.C,R24*%
X113957500Y-130152224D02*
X113957500Y-129642776D01*
X115002500Y-130152224D02*
X115002500Y-129642776D01*
%TO.C,C2*%
X93885000Y-64654165D02*
X93885000Y-64885835D01*
X93165000Y-64654165D02*
X93165000Y-64885835D01*
%TO.C,R7*%
X78665276Y-49007500D02*
X79174724Y-49007500D01*
X78665276Y-50052500D02*
X79174724Y-50052500D01*
%TO.C,R9*%
X110415276Y-49007500D02*
X110924724Y-49007500D01*
X110415276Y-50052500D02*
X110924724Y-50052500D01*
%TO.C,R20*%
X78665276Y-125207500D02*
X79174724Y-125207500D01*
X78665276Y-126252500D02*
X79174724Y-126252500D01*
%TO.C,R23*%
X113957500Y-116182224D02*
X113957500Y-115672776D01*
X115002500Y-116182224D02*
X115002500Y-115672776D01*
%TO.C,D8*%
X119180000Y-122660000D02*
X119180000Y-115650000D01*
X122480000Y-122660000D02*
X119180000Y-122660000D01*
X122480000Y-122660000D02*
X122480000Y-115650000D01*
%TO.C,D4*%
X119180000Y-60390000D02*
X119180000Y-53380000D01*
X122480000Y-60390000D02*
X119180000Y-60390000D01*
X122480000Y-60390000D02*
X122480000Y-53380000D01*
%TO.C,D7*%
X119180000Y-106110000D02*
X119180000Y-99100000D01*
X122480000Y-106110000D02*
X119180000Y-106110000D01*
X122480000Y-106110000D02*
X122480000Y-99100000D01*
%TO.C,D3*%
X109020000Y-109920000D02*
X109020000Y-102910000D01*
X112320000Y-109920000D02*
X109020000Y-109920000D01*
X112320000Y-109920000D02*
X112320000Y-102910000D01*
%TO.C,R5*%
X84522500Y-112417776D02*
X84522500Y-112927224D01*
X83477500Y-112417776D02*
X83477500Y-112927224D01*
%TO.C,R8*%
X78665276Y-62977500D02*
X79174724Y-62977500D01*
X78665276Y-64022500D02*
X79174724Y-64022500D01*
%TO.C,R14*%
X78665276Y-94727500D02*
X79174724Y-94727500D01*
X78665276Y-95772500D02*
X79174724Y-95772500D01*
%TO.C,R12*%
X113957500Y-67922224D02*
X113957500Y-67412776D01*
X115002500Y-67922224D02*
X115002500Y-67412776D01*
%TO.C,R13*%
X78665276Y-80757500D02*
X79174724Y-80757500D01*
X78665276Y-81802500D02*
X79174724Y-81802500D01*
%TO.C,C6*%
X93885000Y-96404165D02*
X93885000Y-96635835D01*
X93165000Y-96404165D02*
X93165000Y-96635835D01*
%TO.C,C10*%
X93885000Y-126816665D02*
X93885000Y-127048335D01*
X93165000Y-126816665D02*
X93165000Y-127048335D01*
%TO.C,R2*%
X84522500Y-64157776D02*
X84522500Y-64667224D01*
X83477500Y-64157776D02*
X83477500Y-64667224D01*
%TO.C,R10*%
X110415276Y-62977500D02*
X110924724Y-62977500D01*
X110415276Y-64022500D02*
X110924724Y-64022500D01*
%TO.C,R6*%
X84522500Y-126387776D02*
X84522500Y-126897224D01*
X83477500Y-126387776D02*
X83477500Y-126897224D01*
%TO.C,R17*%
X113957500Y-85702224D02*
X113957500Y-85192776D01*
X115002500Y-85702224D02*
X115002500Y-85192776D01*
%TO.C,R18*%
X113957500Y-99672224D02*
X113957500Y-99162776D01*
X115002500Y-99672224D02*
X115002500Y-99162776D01*
%TO.C,R1*%
X84522500Y-50187776D02*
X84522500Y-50697224D01*
X83477500Y-50187776D02*
X83477500Y-50697224D01*
%TO.C,D2*%
X109020000Y-79440000D02*
X109020000Y-72430000D01*
X112320000Y-79440000D02*
X109020000Y-79440000D01*
X112320000Y-79440000D02*
X112320000Y-72430000D01*
%TO.C,D6*%
X119180000Y-92140000D02*
X119180000Y-85130000D01*
X122480000Y-92140000D02*
X119180000Y-92140000D01*
X122480000Y-92140000D02*
X122480000Y-85130000D01*
%TO.C,D5*%
X119180000Y-74360000D02*
X119180000Y-67350000D01*
X122480000Y-74360000D02*
X119180000Y-74360000D01*
X122480000Y-74360000D02*
X122480000Y-67350000D01*
%TO.C,R16*%
X110415276Y-94727500D02*
X110924724Y-94727500D01*
X110415276Y-95772500D02*
X110924724Y-95772500D01*
%TO.C,C5*%
X93885000Y-82366665D02*
X93885000Y-82598335D01*
X93165000Y-82366665D02*
X93165000Y-82598335D01*
%TO.C,R4*%
X84522500Y-95907776D02*
X84522500Y-96417224D01*
X83477500Y-95907776D02*
X83477500Y-96417224D01*
%TO.C,R22*%
X110415276Y-125207500D02*
X110924724Y-125207500D01*
X110415276Y-126252500D02*
X110924724Y-126252500D01*
%TO.C,R15*%
X110415276Y-80757500D02*
X110924724Y-80757500D01*
X110415276Y-81802500D02*
X110924724Y-81802500D01*
%TO.C,D9*%
X119180000Y-136590000D02*
X119180000Y-129580000D01*
X122480000Y-136590000D02*
X119180000Y-136590000D01*
X122480000Y-136590000D02*
X122480000Y-129580000D01*
%TD*%
M02*
